<svg width="69" height="50" viewBox="0 0 69 50" fill="none" xmlns="http://www.w3.org/2000/svg">
<path d="M63.6893 5.79949C61.6519 3.68341 59.2221 2.11619 56.4014 1.09712C54.3639 0.391938 52.2479 0 50.1318 0C43.7841 0 37.9846 3.13444 34.5366 8.22878C33.9877 7.36671 33.3613 6.58278 32.5774 5.79952C30.5399 3.68344 28.1101 2.11622 25.2894 1.09715C23.252 0.391966 21.1359 2.77597e-05 19.0198 2.77597e-05C10.9479 2.77597e-05 3.73806 5.09367 1.07354 12.6955C-0.572464 17.476 -0.336801 22.6484 1.85745 27.1936C4.05175 31.7389 7.89193 35.1873 12.6724 36.9114C13.6126 37.2246 14.5533 37.5384 15.5719 37.6953C14.0827 40.1246 12.2804 42.3976 10.0862 44.4349C9.30233 45.1401 8.83222 46.159 8.91093 47.1781C8.98911 48.1183 9.45978 48.9804 10.2431 49.4505C10.792 49.7637 11.3402 49.9993 12.0454 49.9993C12.5156 49.9993 12.9075 49.9212 13.3776 49.7643C18.4713 47.8051 23.3305 44.5136 27.4839 40.2034C29.2862 38.3224 31.6374 35.7361 33.5966 32.6017C34.0667 31.8965 34.4587 31.1125 34.8506 30.3293C37.123 33.3856 40.1793 35.658 43.7846 36.912C44.7248 37.2253 45.6655 37.5391 46.684 37.6959C45.1949 40.1252 43.3926 42.3983 41.1984 44.4356C40.4145 45.1408 39.9444 46.1597 40.0231 47.1788C40.1013 48.119 40.572 48.9811 41.3553 49.4512C41.9041 49.7644 42.4524 50 43.1576 50C43.6277 50 44.0197 49.9218 44.4898 49.7649C49.5835 47.8057 54.4427 44.5143 58.5961 40.204C60.3984 38.3231 62.7496 35.7368 64.7088 32.6023C66.1979 30.2512 67.2949 27.8219 68.0002 25.2356C70.1157 18.2597 68.4698 10.815 63.6893 5.79949ZM63.6112 23.9025C62.9841 26.0968 62.0439 28.1341 60.7899 30.1721C59.0658 32.9152 57.0284 35.1876 55.2255 36.99C53.5014 38.7923 51.6203 40.4383 49.583 41.7704C50.6801 40.1244 51.6204 38.479 52.4042 36.6768C52.7175 35.9716 52.6393 35.1096 52.2474 34.4044C51.8554 33.7774 51.0721 33.3854 50.2882 33.3854C48.5641 33.3854 46.9186 33.1504 45.3508 32.6015C41.7456 31.3475 38.8463 28.7613 37.2008 25.3136C37.1227 25.1567 37.1227 25.0785 37.0439 24.9216C35.5548 21.5521 35.3979 17.8688 36.5738 14.3417C36.652 14.0284 36.8089 13.7928 36.8871 13.4796C39.1606 8.15084 44.3324 4.7025 50.1319 4.7025C51.778 4.7025 53.3452 5.01574 54.9124 5.48641C57.0285 6.19159 58.8308 7.44561 60.398 9.01283C63.9244 12.7744 65.1784 18.4948 63.6112 23.9025ZM29.6778 30.0933C27.9537 32.8365 25.9163 35.1089 24.1134 36.9112C22.3893 38.7135 20.5082 40.3595 18.4709 41.6916C19.568 40.0456 20.5083 38.4002 21.2921 36.598C21.6054 35.8928 21.5272 35.0308 21.1352 34.3256C20.7433 33.6986 19.9599 33.3066 19.176 33.3066C17.4519 33.3066 15.8065 33.0716 14.2387 32.5227C10.6335 31.2687 7.73417 28.6826 6.08872 25.2348C4.44271 21.7865 4.20775 17.8681 5.46171 14.2635C7.49914 8.54281 12.9065 4.70264 19.0192 4.70264C20.6652 4.70264 22.2325 5.01588 23.7997 5.48655C25.9158 6.19173 27.7181 7.44575 29.2853 9.01297C30.4606 10.267 31.4014 11.7561 32.1066 13.4014C30.9313 17.2416 30.9313 21.2382 32.1847 24.9998C31.4801 26.8021 30.6967 28.448 29.6778 30.0933Z" fill="#245D51"/>
</svg>
