<svg width="104" height="100" viewBox="0 0 104 100" fill="none" xmlns="http://www.w3.org/2000/svg">
<path d="M49.607 14.1521C50.2554 14.3683 51.0119 14.5844 51.7684 14.5844C52.5249 14.5844 53.2814 14.4763 53.9299 14.1521C56.3074 13.2876 57.9285 11.0181 57.9285 8.3163C57.9285 4.85802 55.1186 2.15625 51.7684 2.15625C48.3102 2.15625 45.6084 4.9661 45.6084 8.3163C45.6084 11.0181 47.2295 13.2876 49.607 14.1521Z" fill="#245D51"/>
<path d="M72.0859 2.80985C72.0859 1.94528 71.8697 1.29685 71.7617 0.756497C71.6536 0.324213 71.6536 0 71.6536 0C71.6536 0 71.5455 0.216142 71.4375 0.648426C71.3294 1.08071 71.1132 1.83721 70.789 2.5937C70.6809 3.02599 70.4648 3.3502 70.2487 3.89056C70.0325 4.32284 69.8164 4.8632 69.6002 5.29548C69.0599 6.26812 68.4115 7.34883 67.655 8.42954C66.7904 9.51025 65.9258 10.591 64.737 11.4555C63.6563 12.4282 62.3595 13.2927 61.0626 14.0492C59.6577 14.8057 58.1447 15.3461 56.6317 15.7784C55.9833 15.8864 55.2268 16.1026 54.4703 16.2107C54.3622 16.2107 54.2542 16.2107 54.2542 16.2107C53.8219 16.3187 53.4977 16.3187 53.0654 16.3187H52.417H52.0927H51.9847H51.8766C50.7959 16.3187 49.9313 16.2107 49.1748 16.1026C48.4183 15.9945 47.7699 15.8864 47.0134 15.6703C45.5004 15.238 43.9874 14.6977 42.5825 13.9412C41.2856 13.1847 39.9888 12.3201 38.9081 11.3475C37.8274 10.3748 36.8547 9.29411 35.9902 8.32147C35.2337 7.24076 34.4772 6.16005 34.0449 5.18741C33.8287 4.64705 33.6126 4.21477 33.3964 3.78249C33.1803 3.3502 33.0722 2.91792 32.8561 2.48563C32.5319 1.72914 32.4238 1.08071 32.2077 0.648426C32.0996 0.216142 31.9915 0 31.9915 0C31.9915 0 31.8835 0.216142 31.8835 0.756497C31.7754 1.18878 31.5592 1.94528 31.5592 2.80985C31.5592 3.24213 31.5592 3.78249 31.4512 4.32284C31.4512 4.8632 31.5592 5.51162 31.5592 6.05198C31.6673 6.7004 31.7754 7.34883 31.8835 8.10533C31.9915 8.86182 32.3157 9.51025 32.5319 10.2667C33.1803 11.7797 33.9368 13.4008 35.0175 14.9138C36.0982 16.4268 37.6112 17.8317 39.2323 19.1286C40.313 19.9931 41.1776 21.0738 41.6098 22.3707L42.7986 26.4774V26.5855L43.7713 30.0437L43.8793 30.476L44.6358 32.9617L51.7685 58.2503L58.7931 32.9617L59.4416 30.476L59.5496 30.0437L60.5223 26.5855V26.4774L61.603 22.3707C61.9272 21.0738 62.7918 19.8851 63.9806 19.0205C64.0886 19.0205 64.0886 18.9124 64.1967 18.9124C65.8178 17.6156 67.3308 16.2107 68.4115 14.6977C69.6002 13.1847 70.3567 11.5636 70.8971 10.0506C71.4375 8.53761 71.7617 7.13269 71.8697 5.83584C71.8697 5.18741 71.9778 4.64705 71.9778 4.1067C72.0859 3.78249 72.0859 3.24213 72.0859 2.80985Z" fill="#245D51"/>
<path d="M49.7169 59.5636V59.3474C44.5295 58.699 31.1287 57.0779 24.6445 58.699L26.5898 32.762C25.0768 32.87 24.2122 33.0862 24.2122 33.0862L21.4023 62.3734C30.6965 58.9152 44.6376 59.3474 49.7169 59.5636Z" fill="white"/>
<path d="M49.6047 59.0389L49.4967 58.8227C37.1766 53.8514 29.6116 54.3918 29.6116 54.3918L31.665 32.4534L32.0972 28.3467C30.4762 28.3467 29.6116 28.4548 29.6116 28.4548L29.1793 32.5615L26.8018 56.1209C35.9878 55.4725 45.39 57.8501 49.6047 59.0389Z" fill="white"/>
<path d="M42.2596 32.8706L41.395 29.8446L41.287 29.3043L40.2062 25.6299C39.882 25.5218 39.5578 25.5218 39.2336 25.4137C38.8013 25.3057 38.369 25.1976 37.9368 25.0895C37.7206 25.0895 37.6125 24.9814 37.3964 24.9814C37.1803 24.9814 37.0722 24.8734 36.856 24.8734C36.2076 24.7653 35.6673 24.7653 35.0188 24.6572L34.6946 28.0074V28.5478L34.3704 32.4383L32.5332 52.2153C32.5332 52.2153 40.5305 53.5122 49.5004 58.3754L42.2596 32.8706Z" fill="white"/>
<path d="M82.1359 62.3734L79.326 33.0862C79.326 33.0862 78.4615 32.9781 76.9485 32.762L78.8938 58.699C72.4095 57.0779 59.0087 58.699 53.8213 59.4555V59.6716C58.9006 59.3474 72.7337 58.9152 82.1359 62.3734Z" fill="white"/>
<path d="M76.5149 56.1209L74.1373 32.5615L73.705 28.4548C73.705 28.4548 72.8405 28.3467 71.2194 28.3467L71.6517 32.4534L73.705 54.3918C73.705 54.3918 66.2481 53.8514 53.82 58.8227L53.7119 59.0389C58.0348 57.8501 67.4369 55.4725 76.5149 56.1209Z" fill="white"/>
<path d="M69.1667 32.4383L68.8425 28.5478V28.0074L68.5183 24.6572C67.8699 24.6572 67.2215 24.7653 66.6811 24.8734C66.465 24.8734 66.3569 24.9814 66.1407 24.9814C65.9246 24.9814 65.8165 25.0895 65.6004 25.0895C64.7358 25.3057 63.9793 25.4137 63.2228 25.7379V25.846L62.2502 29.5204L62.1421 30.0608L61.2775 33.0868L54.2529 58.4834C63.1148 53.6203 71.2201 52.3234 71.2201 52.3234L69.1667 32.4383Z" fill="white"/>
<path d="M41.3937 74.05C41.5017 71.1321 38.7999 69.7272 36.3143 68.6465C35.0175 68.1061 33.7206 67.7819 32.856 67.4577C31.8834 67.2415 31.235 67.0254 31.235 67.0254C31.8834 67.89 32.2076 68.4303 32.4238 68.9707C33.3964 72.2128 37.0708 73.5097 39.3403 73.8339C36.9627 73.8339 33.2883 73.8339 30.6946 76.2114C30.2623 76.6437 29.722 76.9679 28.5332 77.2921C28.5332 77.2921 29.2897 77.5083 30.4785 77.7244C31.6673 77.9406 33.1803 78.1567 34.8013 78.0486C38.0435 78.1567 41.2856 76.9679 41.3937 74.05Z" fill="white"/>
<path d="M31.67 72.7375C32.2104 70.2519 30.049 68.6308 27.9956 67.442C26.9149 66.7936 25.9423 66.3613 25.0777 65.929C24.3212 65.6048 23.7809 65.3887 23.7809 65.3887C24.3212 66.2532 24.4293 66.6855 24.5374 67.2259C24.9696 70.1438 27.9956 71.7649 29.9409 72.4133C27.8876 72.0891 24.6454 71.6568 22.1598 73.2779C21.7275 73.6021 21.1872 73.8182 20.1064 73.9263C20.1064 73.9263 20.7549 74.2505 21.7275 74.5747C22.7001 74.8989 23.997 75.2231 25.4019 75.4393C28.2118 75.6554 31.1297 75.1151 31.67 72.7375Z" fill="white"/>
<path d="M23.1281 70.0637C23.5604 68.983 23.3442 68.1184 22.8039 67.2538C22.5877 66.8215 22.2635 66.3893 21.8312 66.065C21.507 65.6328 21.0747 65.3085 20.6424 64.9843C19.7779 64.3359 18.9133 63.6875 18.2649 63.3633C17.6165 62.931 17.1842 62.7148 17.1842 62.7148C17.5084 63.4713 17.6165 64.0117 17.6165 64.444C17.7245 67.0377 19.994 68.8749 21.6151 69.6314C19.8859 69.091 17.0761 68.2265 14.6985 69.4153C14.3743 69.4153 13.834 69.6314 12.8613 69.6314C12.8613 69.6314 13.4017 69.9556 14.1582 70.3879C15.0227 70.8202 16.1035 71.3605 17.2922 71.5767C17.8326 71.6847 18.481 71.9009 19.1294 71.9009C19.7779 71.9009 20.3182 71.9009 20.8586 71.7928C21.8312 71.6847 22.6958 71.1444 23.1281 70.0637Z" fill="white"/>
<path d="M15.8898 66.5767C16.8625 64.8476 15.6737 63.2265 14.3768 61.8216C13.7284 61.1731 13.08 60.5247 12.5396 60.0924C11.9993 59.6602 11.6751 59.3359 11.6751 59.3359C11.8912 60.0924 11.8912 60.4166 11.8912 60.8489C11.6751 63.1184 13.4042 64.9556 14.701 65.8202C13.2961 65.0637 11.0266 64.0911 8.86521 64.8476C8.54099 64.9556 8.00064 65.0637 7.24414 64.9556C7.24414 64.9556 7.67642 65.2798 8.32485 65.7121C8.97328 66.1444 9.83785 66.6848 10.8105 67.117C12.6477 67.9816 14.9172 68.1978 15.8898 66.5767Z" fill="white"/>
<path d="M10.1545 62.6848C11.1271 61.3879 10.3706 59.7669 9.398 58.5781C8.96572 57.9297 8.42536 57.3893 7.99308 56.957C7.56079 56.5247 7.34465 56.3086 7.34465 56.3086C7.45272 56.957 7.45272 57.2812 7.34465 57.6054C6.91237 59.4427 8.31729 61.1718 9.28993 62.0364C8.20922 61.2799 6.37201 60.1991 4.42673 60.6314C4.10252 60.7395 3.77831 60.7395 3.12988 60.5234C3.12988 60.5234 3.4541 60.8476 3.88638 61.2799C4.42673 61.7121 5.07516 62.2525 5.83166 62.6848C7.34465 63.5493 9.07379 63.9816 10.1545 62.6848Z" fill="white"/>
<path d="M5.40355 58.6822C6.26812 57.7096 5.83584 56.4127 5.07934 55.332C4.43091 54.2513 3.56634 53.3867 3.56634 53.3867C3.67442 53.819 3.56634 54.1432 3.56634 54.3594C3.13406 55.7643 3.99863 57.2773 4.75513 58.0338C3.99863 57.3853 2.5937 56.3046 1.08071 56.5208C0.864568 56.5208 0.540355 56.5208 0 56.4127C0 56.4127 0.864569 57.4934 1.94528 58.2499C3.13406 59.0064 4.53898 59.5468 5.40355 58.6822Z" fill="white"/>
<path d="M63.1132 78.1589C60.7356 75.1329 56.6289 74.4845 54.0352 74.0522C56.6289 74.1603 60.8437 73.2957 62.4647 69.9455C62.789 69.4052 63.1132 68.8648 64.0858 68.0002C64.0858 68.0002 61.1679 68.2164 58.25 68.8648C55.3321 69.6213 52.3061 70.702 51.7657 73.8361C51.2254 70.702 48.1994 69.6213 45.2815 68.8648C42.3635 68.2164 39.4456 68.0002 39.4456 68.0002C40.3102 68.7567 40.7425 69.4052 41.0667 69.9455C42.6878 73.2957 46.9025 74.1603 49.4962 74.0522C46.9025 74.4845 42.7958 75.241 40.4183 78.1589C39.986 78.6993 39.4456 79.1316 38.2568 79.78C38.2568 79.78 39.1214 79.8881 40.4183 79.9961C41.7151 79.9961 43.5523 79.9961 45.2815 79.6719C48.4155 79.1316 51.4415 77.5105 51.7657 75.0249C52.198 77.5105 55.224 79.0235 58.25 79.6719C59.9791 79.9961 61.8163 80.1042 63.1132 79.9961C64.41 79.9961 65.2746 79.78 65.2746 79.78C64.0858 79.2396 63.5455 78.6993 63.1132 78.1589Z" fill="white"/>
<path d="M64.0858 73.9384C66.4633 73.6141 70.0297 72.2092 71.0023 69.0752C71.2185 68.5348 71.4346 67.9945 72.1911 67.1299C72.1911 67.1299 71.5427 67.346 70.57 67.5622C69.5974 67.8864 68.3006 68.2106 67.1118 68.7509C64.6261 69.8317 61.9244 71.2366 62.0324 74.1545C62.2486 76.9643 65.3826 78.1531 68.6248 78.2612C70.2458 78.3693 71.7588 78.1531 72.9476 77.937C74.1364 77.7208 74.8929 77.5047 74.8929 77.5047C73.7041 77.1805 73.1638 76.7482 72.7315 76.424C70.2458 73.9384 66.4633 73.8303 64.0858 73.9384Z" fill="white"/>
<path d="M73.5971 72.3088C75.5424 71.6604 78.4603 70.0393 79.0007 67.1214C79.1087 66.581 79.2168 66.1487 79.7571 65.2842C79.7571 65.2842 79.2168 65.5003 78.4603 65.8245C77.5957 66.2568 76.515 66.6891 75.4343 67.3375C73.381 68.5263 71.2195 70.2554 71.7599 72.633C72.3002 75.1186 75.2182 75.659 78.028 75.3348C79.4329 75.1186 80.7298 74.7944 81.7024 74.4702C82.6751 74.146 83.3235 73.8218 83.3235 73.8218C82.2428 73.7137 81.7024 73.3895 81.2701 73.1734C78.7845 71.5523 75.5424 71.8765 73.5971 72.3088Z" fill="white"/>
<path d="M81.8103 69.5279C83.4314 68.7714 85.809 66.9342 85.809 64.3405C85.809 63.9082 85.917 63.3678 86.2413 62.6113C86.2413 62.6113 85.809 62.8275 85.1605 63.2598C84.5121 63.692 83.6475 64.2324 82.783 64.8808C82.3507 65.205 81.9184 65.6373 81.5942 65.9615C81.27 66.2857 80.8377 66.718 80.6216 67.1503C80.0812 68.0149 79.8651 68.9875 80.2973 69.9602C80.7296 70.9328 81.5942 71.5812 82.5668 71.6893C83.1072 71.7974 83.6475 71.7974 84.296 71.7974C84.8363 71.6893 85.4848 71.5812 86.1332 71.4732C87.322 71.1489 88.4027 70.6086 89.2672 70.2844C90.0237 69.9602 90.5641 69.6359 90.5641 69.6359C89.5915 69.6359 89.1592 69.5279 88.7269 69.3117C86.3493 68.0149 83.5395 68.8795 81.8103 69.5279Z" fill="white"/>
<path d="M94.6711 64.8476C92.5097 64.0911 90.2402 65.1718 88.8353 65.8202C90.1322 64.9556 91.9694 63.1184 91.6451 60.8489C91.6451 60.5247 91.6451 60.0924 91.8613 59.3359C91.8613 59.3359 91.5371 59.6602 90.9967 60.0924C90.4564 60.5247 89.8079 61.1731 89.1595 61.8216C87.8627 63.2265 86.6739 64.8476 87.6465 66.5767C88.6192 68.1978 90.8886 67.9816 92.8339 67.117C93.8066 66.6848 94.6711 66.1444 95.3196 65.7121C95.968 65.2798 96.4003 64.9556 96.4003 64.9556C95.4276 65.0637 94.9954 64.9556 94.6711 64.8476Z" fill="white"/>
<path d="M99.101 60.5289C97.1558 60.0966 95.4266 61.1773 94.2379 61.9338C95.2105 61.0693 96.5073 59.3401 96.1831 57.5029C96.0751 57.1787 96.0751 56.8545 96.1831 56.2061C96.1831 56.2061 95.8589 56.4222 95.5347 56.8545C95.1024 57.2868 94.5621 57.8271 94.1298 58.4755C93.1571 59.7724 92.4006 61.2854 93.3733 62.5822C94.3459 63.8791 96.1831 63.3387 97.6961 62.4742C98.4526 62.0419 99.101 61.5015 99.6414 61.0693C100.074 60.637 100.398 60.3128 100.398 60.3128C99.7495 60.637 99.3172 60.637 99.101 60.5289Z" fill="white"/>
<path d="M102.344 56.5208C100.831 56.3046 99.5346 57.2773 98.67 58.0338C99.4265 57.2773 100.291 55.7643 99.8588 54.3594C99.7507 54.1432 99.7507 53.819 99.8588 53.3867C99.8588 53.3867 98.9942 54.2513 98.3458 55.332C97.6974 56.4127 97.157 57.7096 98.0216 58.6822C98.8862 59.5468 100.291 59.1145 101.372 58.2499C102.453 57.3853 103.317 56.4127 103.317 56.4127C102.885 56.5208 102.561 56.5208 102.344 56.5208Z" fill="white"/>
<path d="M19.3535 88.8574V85.2911C19.3535 84.7507 19.0293 84.8588 19.0293 84.6427C19.0293 84.4265 19.1374 84.4265 19.3535 84.4265H20.6504C20.8665 84.4265 20.9746 84.4265 20.9746 84.6427C20.9746 84.8588 20.5423 84.7507 20.5423 85.2911V88.7494C20.5423 89.9381 21.0826 91.1269 22.5956 91.1269C24.0006 91.1269 24.5409 89.9381 24.5409 88.7494V85.2911C24.5409 84.6427 24.2167 84.8588 24.2167 84.6427C24.2167 84.4265 24.3248 84.4265 24.5409 84.4265H25.7297C25.9458 84.4265 26.0539 84.4265 26.0539 84.6427C26.0539 84.8588 25.7297 84.7507 25.7297 85.2911V88.7494C25.7297 90.9108 24.649 92.2076 22.4876 92.2076C20.5423 92.3157 19.4616 91.0189 19.3535 88.8574Z" fill="white"/>
<path d="M27.3516 91.9915C27.3516 91.6673 27.7838 91.8834 27.7838 91.1269V85.3992C27.7838 84.7507 27.3516 84.8588 27.3516 84.6427C27.3516 84.5346 27.4596 84.4265 27.8919 84.4265H28.6484C28.8646 84.4265 28.9726 84.5346 28.9726 84.7507V85.5072C28.9726 85.7234 29.0807 85.7234 29.1888 85.9395L33.0793 89.2897C33.1874 89.3978 33.4035 89.3978 33.4035 89.1816V85.6153C33.4035 84.7507 32.9713 84.9669 32.9713 84.6427C32.9713 84.4265 33.1874 84.4265 33.6197 84.4265H34.3762C34.8085 84.4265 35.0246 84.4265 35.0246 84.6427C35.0246 84.9669 34.5923 84.7507 34.5923 85.5072V91.3431C34.5923 91.7753 34.9165 91.6673 34.9165 91.9915C34.9165 92.2076 34.7004 92.2076 34.5923 92.2076H33.5116C33.4035 92.2076 33.2955 92.0996 33.2955 91.9915V91.4511C33.2955 91.3431 33.1874 91.1269 33.0793 91.0189L29.1888 87.7767C28.9726 87.5606 28.8646 87.6686 28.8646 87.8848V91.235C28.8646 91.8834 29.2968 91.6673 29.2968 91.9915C29.2968 92.2076 29.1888 92.0996 28.8646 92.0996H27.5677C27.5677 92.2076 27.3516 92.2076 27.3516 91.9915Z" fill="white"/>
<path d="M36.3164 91.9915C36.3164 91.7753 36.7487 91.7753 36.7487 91.235V85.3992C36.7487 84.8588 36.4245 84.8588 36.4245 84.6427C36.4245 84.4265 36.6406 84.4265 36.7487 84.4265H37.9375C38.0455 84.4265 38.3698 84.4265 38.3698 84.6427C38.3698 84.8588 37.9375 84.7507 37.9375 85.3992V91.235C37.9375 91.7753 38.3698 91.7753 38.3698 91.9915C38.3698 92.0996 38.0455 92.0996 37.9375 92.0996H36.7487C36.4245 92.2076 36.3164 92.2076 36.3164 91.9915Z" fill="white"/>
<path d="M43.0201 92.2043L39.4538 85.2877C39.2376 84.8555 39.0215 84.9635 39.0215 84.7474C39.0215 84.5312 39.1296 84.5313 39.2376 84.5313H40.6425C40.8587 84.5313 41.0748 84.5312 41.0748 84.7474C41.0748 84.9635 40.6425 84.8555 40.9668 85.2877L43.2363 89.6106C43.3443 89.8267 43.4524 89.7187 43.4524 89.6106L45.0735 86.4765C45.2896 86.0442 45.2896 85.612 45.2896 85.3958C45.1815 84.8555 44.8573 85.0716 44.8573 84.7474C44.8573 84.5312 44.9654 84.5313 45.0735 84.5313H46.4784C46.6945 84.5313 46.8026 84.5312 46.8026 84.6393C46.8026 84.9635 46.5865 84.7474 46.5865 85.1797C46.5865 85.5039 46.5865 86.2604 46.1542 87.0169L43.4524 92.2043C43.3443 92.3124 43.1282 92.3124 43.0201 92.2043Z" fill="white"/>
<path d="M47.2412 92.1064C47.2412 91.7822 47.6735 91.8902 47.6735 91.3499V85.406C47.6735 84.6495 47.2412 84.9737 47.2412 84.6495C47.2412 84.4334 47.5654 84.5414 47.9977 84.5414H53.2932C53.4013 84.5414 53.6174 84.5414 53.6174 84.7576V85.6221C53.6174 85.7302 53.6174 86.0544 53.4013 86.0544C53.1851 86.0544 53.2932 85.7302 52.6448 85.7302H49.1865C49.0784 85.7302 48.9703 85.8383 48.9703 85.9463V87.5674C48.9703 87.7835 49.0784 87.8916 49.1865 87.8916H51.456C51.7802 87.8916 51.7802 87.5674 51.9963 87.5674C52.2125 87.5674 52.2125 87.7835 52.2125 87.9997V88.8643C52.2125 89.1885 52.1044 89.2965 51.9963 89.2965C51.8883 89.2965 51.7802 88.9723 51.456 88.9723H49.2946C49.0784 88.9723 48.9703 89.0804 48.9703 89.1885V90.9176C48.9703 91.1337 49.0784 91.1338 49.2946 91.1338H52.7528C53.2932 91.1338 53.077 90.7015 53.4013 90.7015C53.6174 90.7015 53.6174 90.9176 53.6174 91.1338V91.9983C53.6174 92.1064 53.5093 92.2145 53.4013 92.2145H47.7816C47.5654 92.2145 47.2412 92.2145 47.2412 92.1064Z" fill="white"/>
<path d="M54.5889 91.9963C54.5889 91.7801 55.0211 91.7801 55.0211 91.2398V85.404C55.0211 84.6475 54.5889 84.8636 54.5889 84.5394C54.5889 84.4313 54.6969 84.3232 55.2373 84.3232H58.5875C59.9924 84.3232 61.2893 85.0797 61.2893 86.8089C61.2893 87.6734 60.6408 88.4299 60.3166 88.7542C60.2086 88.8622 60.1005 88.9703 60.2086 89.0784L61.1812 91.2398C61.2893 91.564 61.6135 91.4559 61.6135 91.7801C61.6135 91.9963 61.3973 91.9963 61.2893 91.9963H60.2086C59.7763 91.9963 59.6682 91.9963 59.6682 91.7801C59.6682 91.4559 60.1005 91.564 59.8843 91.1317L59.1279 89.2945C59.0198 89.0784 59.0198 89.0784 58.6956 89.0784H56.6422C56.5341 89.0784 56.318 89.0784 56.318 89.5107V91.2398C56.318 91.6721 56.7503 91.6721 56.7503 91.8882C56.7503 91.9963 56.6422 92.1044 56.4261 92.1044H55.0211C54.6969 92.2124 54.5889 92.2124 54.5889 91.9963ZM58.5875 88.2138C59.344 88.2138 59.8843 87.7815 59.8843 87.025C59.8843 86.2685 59.4521 85.7282 58.3713 85.7282H56.4261C56.2099 85.7282 56.1019 85.8362 56.1019 86.0524V87.9977C56.1019 88.2138 56.318 88.2138 56.4261 88.2138H58.5875Z" fill="white"/>
<path d="M62.6901 91.564C62.3659 91.3479 62.2578 91.564 62.0417 91.4559C61.8256 91.3479 62.0417 91.1317 62.1498 90.9156L62.6901 90.2671C62.7982 90.051 63.0143 89.9429 63.1224 90.051C63.2305 90.1591 63.0143 90.3752 63.3386 90.5914C63.4466 90.6994 63.8789 91.2398 65.3919 91.2398C66.3645 91.2398 67.2291 91.0236 67.2291 90.051C67.2291 88.2138 62.3659 89.8349 62.2578 86.5927C62.2578 85.1878 63.3386 84.3232 65.5 84.3232C66.9049 84.3232 67.5533 84.7555 67.7695 84.8636C68.2018 85.0797 68.2017 84.7555 68.4179 84.9717C68.526 85.0797 68.526 85.1878 68.3098 85.404L67.7695 86.2685C67.6614 86.4847 67.5533 86.5927 67.4453 86.4847C67.2291 86.3766 67.5533 86.1605 67.013 85.8362C66.9049 85.8362 66.5807 85.512 65.5 85.512C64.4193 85.512 63.5547 85.7282 63.5547 86.5927C63.5547 88.4299 68.634 86.8089 68.634 90.051C68.634 91.6721 67.3372 92.4286 65.608 92.4286C63.5547 92.3205 62.7982 91.6721 62.6901 91.564Z" fill="white"/>
<path d="M69.3896 91.9915C69.3896 91.7753 69.8219 91.7753 69.8219 91.235V85.3992C69.8219 84.8588 69.4977 84.8588 69.4977 84.6427C69.4977 84.4265 69.7139 84.4265 69.8219 84.4265H71.0107C71.1188 84.4265 71.443 84.4265 71.443 84.6427C71.443 84.8588 71.0107 84.7507 71.0107 85.3992V91.235C71.0107 91.7753 71.443 91.7753 71.443 91.9915C71.443 92.0996 71.1188 92.0996 71.0107 92.0996H69.8219C69.6058 92.2076 69.3896 92.2076 69.3896 91.9915Z" fill="white"/>
<path d="M74.6855 91.9881C74.6855 91.772 75.1178 91.772 75.1178 91.3397V85.8281C75.1178 85.612 75.1178 85.5039 74.7936 85.5039H73.3887C72.7402 85.5039 72.8483 85.8281 72.6322 85.8281C72.5241 85.8281 72.416 85.72 72.416 85.3958V84.7474C72.416 84.5312 72.5241 84.5313 72.7402 84.5313H78.5761C78.6841 84.5313 78.7922 84.6393 78.7922 84.7474V85.3958C78.7922 85.8281 78.6841 85.9362 78.5761 85.9362C78.3599 85.9362 78.468 85.612 78.0357 85.612H76.6308C76.4146 85.612 76.3066 85.72 76.3066 85.9362V91.4478C76.3066 91.8801 76.6308 91.772 76.6308 91.9881C76.6308 92.2043 76.5227 92.2043 76.4146 92.2043H74.9017C74.7936 92.2043 74.6855 92.0962 74.6855 91.9881Z" fill="white"/>
<path d="M81.9264 91.9915C81.9264 91.7753 82.2506 91.7753 82.2506 91.4511V89.722C82.2506 89.5059 82.2506 89.5059 82.1425 89.3978L79.765 85.183C79.5488 84.7507 79.2246 84.9669 79.2246 84.6427C79.2246 84.4265 79.4408 84.4265 79.6569 84.4265H81.0618C81.278 84.4265 81.386 84.4265 81.386 84.6427C81.386 84.9669 80.9537 84.7507 81.1699 85.183L82.791 87.9929C82.899 88.1009 82.899 88.1009 83.0071 87.9929L84.7362 85.183C84.9524 84.8588 84.6282 84.8588 84.6282 84.6427C84.6282 84.5346 84.7362 84.4265 84.9524 84.4265H86.4654C86.5734 84.4265 86.7896 84.4265 86.7896 84.6427C86.7896 84.9669 86.4654 84.7507 86.1412 85.2911L83.7636 89.2897C83.6555 89.3978 83.6555 89.5059 83.6555 89.6139V91.3431C83.6555 91.7753 83.9797 91.6673 83.9797 91.8834C83.9797 92.0996 83.8717 92.0996 83.6555 92.0996H82.2506C82.1425 92.2076 81.9264 92.2076 81.9264 91.9915Z" fill="white"/>
<path d="M44.4179 96.8663C44.4179 96.8663 44.3099 96.8663 44.4179 96.8663C44.3099 96.9744 44.3099 96.9744 44.3099 96.9744H44.2018L44.0937 96.8663C43.9856 96.8663 43.9856 96.7582 43.8776 96.7582C43.7695 96.7582 43.6614 96.7582 43.5534 96.7582C43.4453 96.7582 43.3372 96.7582 43.2291 96.7582C43.1211 96.7582 43.1211 96.8663 43.013 96.8663C42.9049 96.8663 42.9049 96.9744 42.9049 97.0824C42.9049 97.1905 42.9049 97.1905 42.9049 97.2986C42.9049 97.4066 42.9049 97.5147 43.013 97.5147C43.013 97.6228 43.1211 97.6228 43.2291 97.7309C43.3372 97.7309 43.4453 97.8389 43.5534 97.8389C43.6614 97.8389 43.7695 97.947 43.8776 97.947C43.9856 97.947 44.0937 98.0551 44.2018 98.0551C44.3099 98.0551 44.4179 98.1631 44.526 98.2712C44.6341 98.3793 44.6341 98.3793 44.7421 98.4873C44.7421 98.5954 44.8502 98.7035 44.8502 98.9196C44.8502 99.0277 44.8502 99.2438 44.7421 99.3519C44.7421 99.46 44.6341 99.5681 44.526 99.6761C44.4179 99.7842 44.3099 99.8923 44.0937 99.8923C43.9856 100 43.7695 100 43.5534 100C43.3372 100 43.1211 100 42.9049 99.8923C42.6888 99.7842 42.5807 99.6761 42.3646 99.5681L42.4726 99.3519C42.4726 99.3519 42.4726 99.3519 42.5807 99.3519C42.5807 99.3519 42.5807 99.3519 42.6888 99.3519C42.6888 99.3519 42.7969 99.3519 42.7969 99.46L42.9049 99.5681L43.013 99.6761C43.1211 99.6761 43.1211 99.6761 43.2291 99.7842C43.3372 99.7842 43.3372 99.7842 43.4453 99.7842C43.5534 99.7842 43.6614 99.7842 43.7695 99.7842C43.8776 99.7842 43.9856 99.6761 43.9856 99.6761C44.0937 99.5681 44.0937 99.5681 44.0937 99.46C44.0937 99.3519 44.0937 99.2439 44.0937 99.1358C44.0937 99.0277 44.0937 98.9196 43.9856 98.8116C43.9856 98.7035 43.8776 98.7035 43.7695 98.5954C43.6614 98.5954 43.5534 98.4873 43.4453 98.4873C43.3372 98.4873 43.2291 98.3793 43.1211 98.3793C43.013 98.3793 42.9049 98.2712 42.7969 98.2712C42.6888 98.2712 42.5807 98.1631 42.4726 98.0551C42.3646 97.947 42.3646 97.8389 42.2565 97.7309C42.2565 97.6228 42.1484 97.5147 42.1484 97.2986C42.1484 97.1905 42.1484 97.0824 42.2565 96.9744C42.2565 96.8663 42.3646 96.7582 42.4726 96.6501C42.5807 96.5421 42.6888 96.434 42.7969 96.434C42.9049 96.3259 43.1211 96.3259 43.2291 96.3259C43.4453 96.3259 43.6614 96.3259 43.7695 96.434C43.9856 96.5421 44.0937 96.5421 44.2018 96.7582L44.4179 96.8663Z" fill="white"/>
<path d="M49.7151 96.6549H48.5263V99.8971H48.0941V96.6549H46.9053V96.2227H49.7151V96.6549Z" fill="white"/>
<path d="M54.7955 100H54.4713H54.3632C54.3632 100 54.3632 100 54.2552 99.8923L53.9309 99.0277H52.3099L51.9857 99.8923C51.9857 99.8923 51.9857 100 51.8776 100H51.7695H51.4453L52.8502 96.3259H53.3906L54.7955 100ZM53.8229 98.5954L53.2825 97.0824V96.9744C53.2825 96.8663 53.2825 96.8663 53.2825 96.7582C53.2825 96.8663 53.1745 96.9744 53.1745 97.0824L52.6341 98.5954H53.8229Z" fill="white"/>
<path d="M59.4378 96.6549H58.249V99.8971H57.8167V96.6549H56.6279V96.2227H59.4378V96.6549Z" fill="white"/>
<path d="M64.1923 99.5681V100H61.9229V96.3259H64.1923V96.6501H62.4632V97.8389H63.8681V98.2712H62.4632V99.5681H64.1923Z" fill="white"/>
</svg>
