<svg width="68" height="100" viewBox="0 0 68 100" fill="none" xmlns="http://www.w3.org/2000/svg">
<path d="M47.622 52.4985C48.431 51.8917 49.2401 51.2849 50.0492 50.577C48.3299 50.4759 46.7118 50.3748 45.0938 50.3748C45.4983 50.8804 45.9028 51.4872 46.3073 51.9928C46.7118 52.094 47.2175 52.2962 47.622 52.4985Z" fill="#245D51"/>
<path d="M48.5295 54.3109C48.5295 54.8166 48.4284 55.2211 48.125 55.6256C49.2374 58.255 50.0465 60.9855 50.2488 63.9183C50.8556 64.1206 51.3612 64.6262 51.6646 65.233H58.0358C57.8336 59.772 55.6086 54.8166 52.1702 50.9736C51.0578 52.0861 49.8442 53.0974 48.5295 54.0075C48.5295 54.1087 48.5295 54.2098 48.5295 54.3109Z" fill="#245D51"/>
<path d="M34.8789 55.5314C35.4857 55.7336 35.9914 56.1381 36.2948 56.7449C38.9241 56.5427 41.5535 55.8348 43.9806 54.7223C43.9806 54.6212 43.9806 54.5201 43.9806 54.4189C43.9806 53.8121 44.284 53.2054 44.6886 52.8008C44.1829 51.9918 43.5761 51.2839 42.9693 50.4749C38.9241 50.4749 35.8902 50.6771 34.98 50.7782V55.5314H34.8789Z" fill="#245D51"/>
<path d="M47.3179 66.8271H36.2948C35.9914 67.4339 35.4857 67.9396 34.8789 68.1418V72.2882C35.5868 72.4904 36.0925 72.9961 36.3959 73.704C39.4298 74.0074 42.3625 74.8164 45.093 76.03C45.4976 75.7266 46.0032 75.5244 46.61 75.5244H46.7112C47.7225 73.1984 48.3292 70.6701 48.5315 68.0407C48.0258 67.8385 47.5202 67.3328 47.3179 66.8271Z" fill="#245D51"/>
<path d="M31.8478 66.8271H20.5212C20.3189 67.3328 19.8133 67.8385 19.3076 68.0407C19.5099 70.6701 20.2178 73.1984 21.1279 75.5244H21.2291C21.8359 75.5244 22.3415 75.7266 22.746 76.03C25.4766 74.7153 28.5105 73.9063 31.7466 73.704C31.9489 73.0972 32.3534 72.6927 32.9602 72.3893V68.1418C32.5557 67.7373 32.05 67.3328 31.8478 66.8271Z" fill="#245D51"/>
<path d="M31.8487 58.3626C28.8148 58.1603 25.8821 57.3513 23.1515 56.1377C22.747 56.4411 22.2414 56.6433 21.7357 56.6433C21.5335 56.6433 21.4323 56.6433 21.2301 56.6433C20.2188 58.9693 19.612 61.4976 19.3086 64.0259C19.8142 64.2281 20.3199 64.7338 20.5221 65.2394H31.8487C32.051 64.7338 32.4555 64.2281 33.0623 64.0259V59.6773C32.4555 59.3739 32.051 58.9693 31.8487 58.3626Z" fill="#245D51"/>
<path d="M34.8789 59.7784V63.9247C35.4857 64.127 36.0925 64.6326 36.2948 65.2394H47.3179C47.5202 64.7338 48.0258 64.2281 48.5315 64.0259C48.3292 61.4976 47.6213 58.9693 46.61 56.6433C46.4077 56.6433 46.3066 56.6433 46.1043 56.6433C45.5987 56.6433 45.0931 56.4411 44.6886 56.1377C42.0592 57.3513 39.2275 58.0592 36.2948 58.3626C36.0925 58.9693 35.4857 59.5761 34.8789 59.7784Z" fill="#245D51"/>
<path d="M51.663 66.8271C51.4607 67.4339 50.854 67.9396 50.2472 68.1418C50.045 70.9735 49.337 73.704 48.2246 76.2323C48.6291 76.6368 48.8314 77.1424 48.8314 77.7492C48.8314 77.9515 48.8314 78.0526 48.7303 78.2549C49.9438 79.0639 51.0562 80.0752 52.0675 81.0865C55.6071 77.2436 57.7308 72.2882 57.9331 66.8271H51.663Z" fill="#245D51"/>
<path d="M31.9433 75.3225C29.0105 75.5248 26.28 76.3338 23.7517 77.4462C23.7517 77.5474 23.7517 77.6485 23.7517 77.7496C23.7517 78.2553 23.5495 78.7609 23.2461 79.1655C25.6732 82.9073 29.0105 85.9412 33.1568 87.9638V76.4349C32.5501 76.1316 32.1456 75.727 31.9433 75.3225Z" fill="#245D51"/>
<path d="M21.6281 79.9953C21.527 79.9953 21.4259 79.9953 21.3247 79.9953C20.8191 79.9953 20.4145 79.8942 20.01 79.5908C18.8976 80.3999 17.7852 81.31 16.875 82.3213C20.6168 85.8609 25.5722 88.288 31.1343 88.8948C27.1903 86.6699 23.9541 83.636 21.6281 79.9953Z" fill="#245D51"/>
<path d="M23.3457 52.7008C23.8514 53.1053 24.0536 53.7121 24.0536 54.3188C24.0536 54.42 24.0536 54.5211 24.0536 54.6222C26.4807 55.7347 29.1101 56.4426 31.9418 56.6448C32.144 56.1392 32.5486 55.7347 33.0542 55.5324V50.577C31.5373 50.4759 28.6045 50.3748 25.0649 50.3748C24.4581 51.1838 23.8514 51.8917 23.3457 52.7008Z" fill="#245D51"/>
<path d="M46.5069 79.9953C46.4058 79.9953 46.3047 79.9953 46.2035 79.9953C43.8775 83.636 40.6413 86.6699 36.6973 88.8948C42.2594 88.288 47.2148 85.8609 50.9567 82.3213C49.9454 81.31 48.934 80.3999 47.8216 79.5908C47.5182 79.8942 47.0126 79.9953 46.5069 79.9953Z" fill="#245D51"/>
<path d="M44.6842 79.1655C44.3808 78.7609 44.1785 78.2553 44.1785 77.7496C44.1785 77.6485 44.1785 77.5474 44.1785 77.5474C41.6503 76.3338 39.0209 75.6259 36.1892 75.3225C35.8858 75.8282 35.3802 76.3338 34.7734 76.5361V87.9638C38.9198 85.9412 42.2571 82.8062 44.6842 79.1655Z" fill="#245D51"/>
<path d="M21.6334 52.0929C22.0379 51.4862 22.3413 50.9805 22.847 50.4749C21.33 50.4749 19.6108 50.576 17.8916 50.6771C18.5995 51.385 19.4085 51.9918 20.2176 52.5986C20.6221 52.2952 21.1278 52.0929 21.6334 52.0929Z" fill="#245D51"/>
<path d="M18.9977 77.7492C18.9977 77.1424 19.2 76.6368 19.6045 76.2323C18.4921 73.704 17.7842 70.9735 17.5819 68.1418C16.9752 67.9396 16.4695 67.4339 16.1661 66.8271H9.79492C9.99718 72.2882 12.222 77.2436 15.6605 81.0865C16.6718 80.0752 17.7842 79.0639 18.9977 78.2549C18.9977 78.0526 18.9977 77.8504 18.9977 77.7492Z" fill="#245D51"/>
<path d="M17.5835 63.9198C17.7857 60.9871 18.5948 58.2565 19.7072 55.6271C19.4038 55.2226 19.3027 54.8181 19.3027 54.3125C19.3027 54.2113 19.3027 54.1102 19.3027 54.0091C17.988 53.0989 16.7744 52.0876 15.5609 50.874C12.1224 54.717 9.89757 59.6724 9.69531 65.1334H16.0665C16.471 64.5266 16.9767 64.1221 17.5835 63.9198Z" fill="#245D51"/>
<path d="M34.8812 13.956H39.9377C39.9377 13.956 40.4434 9.20285 42.5671 5.25877C42.5671 5.25877 35.488 9.20286 34.8812 0C34.1733 9.10172 27.1953 5.25877 27.1953 5.25877C29.319 9.20285 29.8247 13.956 29.8247 13.956H34.8812Z" fill="#245D51"/>
<path d="M33.0595 48.7634C32.9583 48.7634 32.7561 48.7634 32.5538 48.6623C31.7448 48.5611 30.6323 48.3589 29.4188 48.2577C28.812 48.1566 28.1041 48.0555 27.3962 48.0555C27.1939 48.0555 26.9916 48.0555 26.7894 47.9543C26.2837 47.8532 25.7781 47.8532 25.1713 47.7521C23.4521 47.5498 21.6318 47.4487 19.8114 47.3476C19.4069 47.3476 18.9012 47.2464 18.4967 47.2464C17.7888 47.2464 17.0809 47.1453 16.373 47.1453C12.4289 47.0442 8.58593 47.1453 5.85541 47.8532L7.77691 22.4695L7.87802 20.6492C7.06898 20.7503 6.46221 20.8514 6.05769 20.8514C5.55204 20.9526 5.34976 20.9526 5.34976 20.9526L2.41699 51.6962C6.56333 50.1792 11.6198 49.3702 16.4741 48.9656C16.8786 48.9656 17.3843 48.8645 17.7888 48.8645C20.1148 48.6623 22.2385 48.6623 24.2611 48.6623C24.969 48.6623 25.677 48.6623 26.3849 48.6623C26.486 48.6623 26.5871 48.6623 26.6883 48.6623C27.3962 48.6623 28.1041 48.6623 28.812 48.6623C29.3176 48.6623 29.8233 48.6623 30.2278 48.6623C31.138 48.6623 31.8459 48.7634 32.4527 48.7634C32.6549 48.7634 32.756 48.7634 32.9583 48.7634C33.5651 48.7634 33.9696 48.8645 34.1719 48.8645C34.273 48.8645 34.2731 48.8645 34.2731 48.8645C34.2731 48.8645 34.0708 48.8645 33.7674 48.7634C33.6663 48.8645 33.3629 48.7634 33.0595 48.7634Z" fill="white"/>
<path d="M33.0572 48.3436C32.8549 48.2424 32.7538 48.2424 32.5515 48.1413C31.338 47.6356 30.2255 47.2311 29.1131 46.8266C29.012 46.8266 28.9108 46.7255 28.8097 46.7255C28.2029 46.5232 27.6973 46.321 27.0905 46.1187C26.9893 46.1187 26.9894 46.1187 26.8882 46.0176C25.7758 45.613 24.6634 45.3097 23.6521 45.1074C21.6294 44.5006 19.8091 44.1972 18.191 43.8938C13.6402 43.0848 11.1119 43.287 11.1119 43.287L13.1345 22.1508L13.3368 20.3305L13.539 18.5101L13.6402 17.8022L13.7413 17.2966L13.8424 16.083C13.0334 16.083 12.4266 16.083 12.0221 16.083C11.5164 16.083 11.213 16.1841 11.213 16.1841L11.1119 17.3977L11.0108 18.7124L10.8085 20.5327L10.6063 22.3531L8.28027 45.3097C9.08932 45.2085 9.99949 45.2085 10.8085 45.2085C13.539 45.2085 16.1684 45.3097 18.6967 45.613C19.8091 45.7142 21.0227 45.9164 22.034 46.1187C23.4498 46.321 24.7645 46.6243 26.0792 46.9277H26.1803C26.2814 46.9277 26.4837 47.0289 26.5848 47.0289C27.1916 47.13 27.6973 47.3323 28.2029 47.4334C29.9221 47.8379 31.4391 48.2424 32.4504 48.5458C32.6526 48.6469 32.7538 48.6469 32.956 48.6469C33.0571 48.6469 33.1583 48.7481 33.2595 48.7481C33.9674 48.9503 34.2708 49.0515 34.2708 49.0515C33.9674 48.7481 33.5628 48.5458 33.0572 48.3436Z" fill="white"/>
<path d="M63.3979 20.9526C63.3979 20.9526 63.0945 20.9526 62.69 20.8514C62.2855 20.7503 61.6787 20.7503 60.8696 20.6492L60.9707 22.4695L62.8923 47.8532C60.1617 47.1453 56.3188 47.0442 52.3747 47.1453C51.6668 47.1453 50.9589 47.2464 50.251 47.2464C49.5431 47.2464 48.8351 47.3476 48.2284 47.3476C46.408 47.4487 44.5877 47.6509 42.8685 47.8532C42.5651 47.8532 42.2616 47.9543 42.0594 47.9543C41.5537 48.0555 41.1492 48.0555 40.6436 48.1566C40.2391 48.2577 39.7334 48.2577 39.3289 48.3589C38.1153 48.5611 37.0029 48.6622 36.1938 48.7634C35.6882 48.8645 35.1825 48.8645 34.8792 48.9656C34.5758 48.9656 34.4746 49.0668 34.4746 49.0668C34.4746 49.0668 34.4746 49.0668 34.5758 49.0668C34.6769 49.0668 34.778 49.0668 34.9803 49.0668C35.2837 49.0668 35.7894 48.9656 36.295 48.9656C36.9018 48.9656 37.7108 48.8645 38.5198 48.8645C39.0255 48.8645 39.43 48.8645 39.9357 48.8645C40.3402 48.8645 40.7447 48.8645 41.2503 48.8645C41.6549 48.8645 41.9583 48.8645 42.3628 48.8645C42.7673 48.8645 43.1718 48.8645 43.5763 48.8645C45.5989 48.8645 47.7227 48.9656 50.0487 49.0668C50.7566 49.0668 51.5657 49.1679 52.2736 49.269C57.1278 49.6735 62.1843 50.4826 66.3306 51.9995L63.3979 20.9526Z" fill="white"/>
<path d="M35.3878 48.5649C35.5901 48.4638 35.8935 48.4638 36.0957 48.3627C37.0059 48.0593 38.2194 47.7559 39.7364 47.3514C40.3432 47.1491 41.0511 47.048 41.759 46.8457C41.8601 46.8457 41.9612 46.8457 42.0624 46.7446C42.2646 46.7446 42.3658 46.6435 42.568 46.6435C43.5793 46.4412 44.7929 46.239 45.9054 46.0367C47.2201 45.8344 48.5347 45.6322 49.8494 45.4299C52.3777 45.1265 55.1082 44.9243 57.7376 45.0254C58.5466 45.0254 59.4568 45.1265 60.2658 45.1265L58.041 22.1699L57.8387 20.3496L57.6365 18.5293L57.5353 17.3157L57.4342 16.1021C57.4342 16.1021 57.1308 16.1021 56.6252 16.001C56.2206 16.001 55.6139 15.8999 54.8048 16.001L54.9059 17.3157V17.8213L55.0071 18.5293L55.2093 20.3496L55.4116 22.1699L57.4342 43.3062C57.4342 43.3062 54.9059 43.1039 50.3551 43.913C48.6358 44.2163 46.6133 44.6209 44.3884 45.3288C43.4782 45.6322 42.4669 45.8344 41.4556 46.239C41.3545 46.239 41.1522 46.3401 41.0511 46.3401C40.5454 46.5423 40.0398 46.6435 39.433 46.8457C39.3319 46.8457 39.2308 46.9469 39.1296 46.9469C38.1183 47.3514 37.107 47.7559 35.9946 48.1604C35.7923 48.2616 35.6912 48.2616 35.4889 48.3627C35.1855 48.4638 34.9833 48.5649 34.6799 48.6661C34.4776 48.7672 34.3765 48.7672 34.2754 48.8683C34.2754 48.8683 34.4776 48.7672 34.6799 48.6661C34.9833 48.7672 35.1855 48.6661 35.3878 48.5649Z" fill="white"/>
<path d="M35.8866 48.0525C35.9877 48.0525 36.0888 47.9514 36.0888 47.9514C36.6956 47.648 37.3024 47.3446 37.9092 46.9401C38.2126 46.8389 38.4148 46.6367 38.7182 46.5355C39.325 46.2321 39.8306 46.0299 40.4374 45.7265C40.9431 45.4231 41.5498 45.2208 42.0555 45.0186C42.3589 44.9174 42.6623 44.8163 42.8646 44.7152C45.5951 43.6028 48.1233 42.7937 50.0448 42.2881C52.8764 41.479 54.5957 41.2768 54.5957 41.2768L52.7753 22.2643L52.5731 20.4439L52.3708 18.6236V18.1179V17.6123L52.2697 16.2976V15.7919L52.1685 14.5784V14.1739V14.0727L51.9663 12.3535C51.2584 12.3535 50.6516 12.4546 50.0448 12.5558C49.8425 12.5558 49.6403 12.6569 49.5392 12.6569C49.3369 12.6569 49.1347 12.758 48.9324 12.758C44.0781 13.7693 40.4374 16.0953 38.0103 18.2191C37.808 18.4213 37.6058 18.5225 37.4035 18.7247C37.2013 18.927 36.8979 19.1292 36.6956 19.3315C36.2911 19.736 35.8866 20.2417 35.5832 20.5451C35.4821 20.7473 35.3809 20.8485 35.1786 20.9496C35.0775 21.0507 34.9764 21.1518 34.8753 21.253V21.5564V22.2643L34.3696 47.1423L33.9651 22.3654V21.6575V21.3541C33.8639 21.253 33.7628 21.1518 33.6617 21.0507C33.5606 20.9496 33.4595 20.7473 33.2572 20.6462C32.9538 20.2417 32.5493 19.8372 32.1447 19.4326C31.9425 19.2304 31.7402 19.0281 31.4368 18.8259C31.2346 18.6236 31.0323 18.5225 30.83 18.3202C28.4029 16.1965 24.7622 13.8705 19.908 12.8592C19.7057 12.8592 19.5035 12.758 19.3012 12.758C19.0989 12.758 18.9978 12.6569 18.7956 12.6569C18.1888 12.5558 17.4809 12.4546 16.8741 12.4546L16.6718 14.1739V14.275V14.6795L16.5707 15.8931V16.3987L16.4695 17.6123L16.3684 18.1179V18.6236L16.1662 20.4439L15.9639 22.2643L14.1436 41.0745C14.1436 41.0745 15.8628 41.3779 18.6944 42.0858C20.5148 42.5915 22.8408 43.4005 25.4702 44.4118C25.8747 44.6141 26.2792 44.7152 26.6837 44.9175C27.0882 45.1197 27.3916 45.2208 27.7961 45.4231C28.4029 45.7265 28.9086 45.9288 29.5154 46.2321C29.7176 46.3333 29.8188 46.4344 30.021 46.4344C30.3244 46.5355 30.5267 46.7378 30.83 46.8389C31.4368 47.1423 32.0436 47.4457 32.6504 47.7491C32.7515 47.7491 32.8527 47.8502 32.8527 47.8502C32.9538 47.8502 33.0549 47.9514 33.0549 47.9514C33.4594 48.1536 33.9651 48.457 34.3696 48.7604C34.4707 48.6593 34.673 48.5581 34.7742 48.457C35.1787 48.457 35.5832 48.2547 35.8866 48.0525Z" fill="white"/>
<path d="M3.22605 58.3519L3.02378 60.0711C2.21474 59.97 2.01247 60.6779 1.91134 61.0824C1.91134 61.3858 1.91136 61.8915 2.21475 61.8915C2.92266 61.9926 3.1249 58.453 5.4509 58.7564C6.76559 58.9587 7.17012 60.2734 7.06899 61.1835C6.96786 61.9926 6.56333 62.7005 5.85542 62.9028L6.56334 63.105L6.36107 64.622L4.03508 64.3186L4.23736 62.7005C4.94527 62.8016 5.34977 62.296 5.4509 61.6892C5.4509 61.3858 5.34978 61.0824 5.04639 60.9813C4.13621 60.8802 3.83283 64.5208 1.7091 64.1163C0.293275 63.9141 -0.0101219 62.4982 0.0910084 61.3858C0.192139 60.4756 0.697796 59.8689 1.20345 59.5655L0.495523 59.3632L0.697796 57.7451L3.22605 58.3519Z" fill="white"/>
<path d="M4.64159 72.1134L4.54045 70.7987L5.75403 70.6976L5.65289 69.8885L1.70882 70.293L1.80992 71.1021L0.596378 71.2032L0.292969 67.7648L1.50654 67.6637L1.60768 68.3716L5.55175 67.967L5.45062 67.158L4.23707 67.2591L4.13594 65.9444L6.56306 65.7422L7.16984 71.9111L4.64159 72.1134Z" fill="white"/>
<path d="M2.31511 78.0858L3.42755 77.6813L3.73096 78.4903L4.23661 78.0858L3.52868 76.3666H2.92189L3.2253 77.0745L2.11287 77.479L1.10156 74.7485L2.214 74.344L2.41624 74.9508L6.66373 74.6474L6.56259 74.344L7.67503 73.9395L8.98971 77.2768L4.74226 80.7152L4.9445 81.322L3.83206 81.7265L2.31511 78.0858ZM5.24791 77.3779L6.86597 76.0632L4.84336 76.2655L5.24791 77.3779Z" fill="white"/>
<path d="M11.7183 86.173L10.9093 85.0605L11.8195 84.3526L11.3138 83.7458L8.07763 86.0718L8.48215 86.6786L7.47085 87.3865L5.44824 84.656L6.45954 83.9481L6.86406 84.5549L10.1002 82.2289L9.59459 81.6221L8.68442 82.33L7.87536 81.2176L9.79686 79.8018L13.4375 84.7571L11.7183 86.173Z" fill="white"/>
<path d="M18.4998 88.8039L17.1851 90.3209L15.9716 89.3096L16.4772 88.7028L15.3648 87.7926L14.5557 88.8039L15.8705 89.9163L15.0614 90.8265L13.7467 89.7141L12.7354 90.8265L13.8479 91.7367L14.3535 91.1299L15.567 92.1412L14.2524 93.7593L10.0049 90.2197L10.8139 89.3096L11.2185 89.7141L13.7467 86.6802L13.3422 86.2757L14.1512 85.3655L18.4998 88.8039Z" fill="white"/>
<path d="M24.4608 91.7402L24.0563 92.8527L23.5506 92.6504L22.8427 94.4708C22.3371 95.8866 22.5393 96.2911 23.1461 96.4934C23.6518 96.6956 24.0563 96.5945 24.6631 95.0775L25.2699 93.2572L24.7642 93.0549L25.2699 92.0436L27.7981 92.9538L27.3936 94.0662L26.888 93.864L26.18 95.9877C25.4721 98.0103 24.2586 98.6171 22.6405 98.1115C20.9213 97.4035 20.3145 96.19 21.0224 94.2685L21.8314 92.1448L21.3258 91.9425L21.7303 90.8301L24.4608 91.7402Z" fill="white"/>
<path d="M34.7802 94.7411L34.3756 99.9999L32.4542 99.8988L30.3304 96.2581L30.1282 98.5841H30.8361L30.735 99.7976L27.9033 99.5954L28.0045 98.3818H28.5101L28.8135 94.3366H28.3078L28.409 93.123L31.0384 93.3253L33.061 96.8649L33.1621 94.64H32.5553L32.6564 93.4264L35.387 93.6287L35.2858 94.8423L34.7802 94.7411Z" fill="white"/>
<path d="M39.4333 92.9238L39.6356 94.1374L39.0288 94.2385L39.6356 98.1826L40.2424 98.0815L40.4446 99.295L37.4107 99.6996L37.2084 98.486L37.8153 98.3849L37.2084 94.4408L36.6017 94.5419L36.3994 93.3284L39.4333 92.9238Z" fill="white"/>
<path d="M45.2984 95.6481C45.1972 95.4459 45.1973 94.9402 45.1973 94.4346L45.2984 92.3108L44.7927 92.5131L44.3882 91.4007L46.8153 90.4905L47.2199 91.6029L46.8153 91.8052L46.6131 97.4685L44.995 98.0752L40.8487 94.03L40.343 94.2323L39.9385 93.1199L43.0735 91.9063L43.478 93.0187L42.9724 93.221L44.3882 94.8391C44.8939 95.1425 45.1972 95.4459 45.2984 95.6481Z" fill="white"/>
<path d="M51.8713 86.9609L52.9838 88.579L51.669 89.4892L51.1634 88.7813L49.9499 89.5903L50.6577 90.6016L52.0736 89.5903L52.7815 90.6016L51.3656 91.6129L52.1747 92.8265L53.3883 92.0175L52.8826 91.3095L54.1973 90.3994L55.4109 92.1186L50.86 95.2536L50.1521 94.2423L50.6577 93.9389L48.3317 90.7028L47.8261 91.0061L47.1182 89.9948L51.8713 86.9609Z" fill="white"/>
<path d="M54.4991 84.1389C55.9149 82.5209 56.8251 82.8242 57.6341 83.431C58.1398 83.9367 58.1397 84.6446 57.7352 85.3525C58.2409 84.948 59.05 84.8469 59.5556 85.3525C59.859 85.6559 60.0612 85.757 60.1624 85.5548C60.2635 85.4536 60.2635 85.3525 60.0613 85.2514L59.859 85.0491L60.2635 84.5435L60.668 84.8469C61.2748 85.3525 61.5782 86.0604 60.8703 86.8695C60.0613 87.7796 59.2522 87.7796 58.4431 87.0717C57.8364 86.5661 57.6341 86.4649 57.0274 87.0717L58.1398 87.9819L58.5443 87.5774L59.4544 88.3864L57.533 90.6113L56.6228 89.8022L56.9262 89.3977L53.8923 86.7683L53.5889 87.1728L52.6787 86.3638L54.4991 84.1389ZM56.2183 86.3638L56.5217 86.0604C56.8251 85.6559 56.9262 85.2514 56.5217 84.948C56.1172 84.5435 55.7127 84.6446 55.3081 85.0491L55.0048 85.3525L56.2183 86.3638Z" fill="white"/>
<path d="M60.7679 82.8123L61.577 81.2953C62.2849 81.5987 62.6894 80.9919 62.8917 80.6885C62.9928 80.3851 63.195 79.9806 62.7905 79.7784C62.1837 79.475 60.869 82.7111 58.7453 81.6998C57.5317 81.0931 57.5318 79.6772 57.9363 78.8682C58.2397 78.1603 58.8465 77.5535 59.6555 77.5535L59.0487 77.149L59.7566 75.7332L61.7792 76.7445L61.0713 78.2614C60.4646 77.958 59.8578 78.2614 59.5544 78.8682C59.4533 79.0705 59.4532 79.475 59.7566 79.6772C60.5656 80.0818 62.0826 76.7445 64.0041 77.7558C65.3188 78.3625 65.1166 79.8795 64.6109 80.7897C64.2064 81.5987 63.4984 82.0032 62.9928 82.1044L63.5996 82.5089L62.8917 83.9247L60.7679 82.8123Z" fill="white"/>
<path d="M60.8696 71.7048L62.0832 72.0082L61.982 72.5139L65.8249 73.5252L65.9261 73.0195L67.1397 73.3229L66.3306 76.2557L65.1171 75.9523L65.2182 75.3455L61.3752 74.3342L61.2741 74.941L60.0605 74.6376L60.8696 71.7048Z" fill="white"/>
<path d="M63.9029 64.8077L63.8018 66.1224L62.5882 66.0213V66.8303L66.5323 67.1337V66.3247L67.7459 66.4258L67.5436 69.8642L66.33 69.7631V69.0552L62.386 68.7518V69.5609L63.5995 69.662L63.4984 70.9767L61.0713 70.7744L61.4758 64.6055L63.9029 64.8077Z" fill="white"/>
<path d="M63.702 60.2709C63.4997 60.2709 63.0952 60.1697 62.893 60.0686L61.8817 59.7652L61.9828 60.2709L60.8704 60.4731L60.4658 58.046L61.5783 57.8438L61.6794 58.3494L64.9156 59.4618L65.9269 59.2596L65.8257 58.7539L67.0393 58.5517L67.5449 61.4844L66.3314 61.6867L66.2303 61.181L65.1178 61.3833L62.4884 63.7093L62.5896 64.1138L61.4771 64.3161L60.9715 61.181L62.0839 60.9788L62.185 61.4844L63.0952 60.7765C63.1964 60.6754 63.6009 60.372 63.702 60.2709Z" fill="white"/>
</svg>
