<svg width="109" height="100" viewBox="0 0 109 100" fill="none" xmlns="http://www.w3.org/2000/svg">
<path d="M38.1552 2.81657C35.8751 3.79374 33.8122 4.98807 31.8579 6.18239C32.4007 6.61669 33.3779 6.50811 35.658 5.31379C38.1552 4.01089 41.7382 1.51367 41.7382 1.51367C41.7382 1.51367 37.2866 1.62225 34.4636 3.03372C32.075 4.22804 31.4236 5.20522 31.6407 5.74809C33.5951 4.66234 35.7666 3.68517 38.1552 2.81657Z" fill="#245D51"/>
<path d="M41.3034 83.5893C39.5662 83.8065 37.9375 83.9151 36.2003 84.0236C37.829 83.8065 39.349 83.5894 40.9776 83.2636C40.7605 83.0465 40.4348 82.9379 40.109 82.8293C39.6747 82.7208 39.0233 82.6122 38.2632 82.7208C38.0461 82.7208 37.829 82.7208 37.6118 82.7208C36.6347 82.8293 35.6575 83.1551 34.8975 83.4808C34.1374 83.8065 33.7031 84.1322 33.7031 84.1322C33.7031 84.1322 33.7031 84.1322 33.8117 84.1322C33.8117 84.1322 33.9203 84.1322 34.0288 84.1322C34.246 84.1322 34.4631 84.2408 34.6803 84.2408C34.8974 84.2408 35.1146 84.3494 35.2232 84.3494C35.6575 84.458 36.2003 84.5665 36.7432 84.5665C37.0689 84.5665 37.3947 84.6751 37.6118 84.6751C37.7204 84.6751 37.9375 84.6751 38.0461 84.6751C38.1547 84.6751 38.3718 84.6751 38.4804 84.6751C38.589 84.6751 38.8061 84.6751 38.9147 84.6751C39.0233 84.6751 39.2404 84.6751 39.349 84.6751C40.5433 84.4579 41.0862 84.2408 41.1948 83.9151C41.1948 83.8065 41.1948 83.6979 41.1948 83.5893C41.3034 83.6979 41.3034 83.5893 41.3034 83.5893Z" fill="#245D51"/>
<path d="M34.1369 82.6121C35.8741 82.5035 36.3084 82.0692 35.9827 81.6349C34.3541 81.6349 32.7255 81.6349 30.9883 81.5264C32.5083 81.5264 34.1369 81.4178 35.657 81.2006C35.1141 80.6578 34.2455 80.332 32.5083 80.332C30.554 80.332 28.5996 81.3092 28.5996 81.3092C28.5996 81.3092 32.074 82.7207 34.1369 82.6121Z" fill="#245D51"/>
<path d="M31.2087 79.1457C29.5801 79.0372 28.0601 78.82 26.4314 78.4943C27.9515 78.6029 29.4716 78.7114 30.9916 78.7114C30.5573 78.1686 29.7973 77.7343 28.0601 77.6257C26.2143 77.4085 24.1514 78.1686 24.1514 78.1686C24.1514 78.1686 27.3001 79.9058 29.2544 80.0143C30.9916 80.0143 31.4259 79.58 31.2087 79.1457Z" fill="#245D51"/>
<path d="M26.9691 76.0962C25.4491 75.7705 23.929 75.4448 22.409 75.0105C23.929 75.3362 25.3405 75.5533 26.752 75.6619C26.4263 75.119 25.6662 74.5762 24.0376 74.2504C22.1918 73.8161 20.1289 74.359 20.1289 74.359C20.1289 74.359 22.9518 76.4219 24.9062 76.7477C26.6434 77.0734 27.0777 76.6391 26.9691 76.0962Z" fill="#245D51"/>
<path d="M23.2829 72.8282C21.8714 72.3939 20.3513 71.851 18.9399 71.1996C20.3513 71.6339 21.7628 72.0682 23.1743 72.2853C22.9571 71.6339 22.3057 71.091 20.7857 70.6567C19.0485 70.1138 16.877 70.331 16.877 70.331C16.877 70.331 19.3742 72.6111 21.2199 73.1539C22.8486 73.5882 23.2829 73.2625 23.2829 72.8282Z" fill="#245D51"/>
<path d="M20.0214 69.1427C18.6099 68.5999 17.307 67.8398 16.0041 67.0798C17.307 67.7313 18.7185 68.1656 20.0214 68.5999C19.8043 67.9484 19.2614 67.4055 17.8499 66.6455C16.2213 65.8855 14.0498 65.8855 14.0498 65.8855C14.0498 65.8855 16.3299 68.3827 17.9585 69.1427C19.4786 69.9028 19.9128 69.577 20.0214 69.1427Z" fill="#245D51"/>
<path d="M17.1975 65.1544C15.8946 64.3943 14.7003 63.6343 13.3974 62.6572C14.5917 63.4172 15.8946 64.0686 17.1975 64.6115C17.0889 63.96 16.6546 63.3086 15.2431 62.44C14.7003 62.1143 14.0488 61.8971 13.5059 61.68C12.5288 61.3543 11.6602 61.3542 11.6602 61.3542C11.6602 61.3542 11.8773 61.7885 12.3116 62.3314C12.9631 63.2 14.1574 64.5029 15.1346 65.0458C16.6546 65.8058 17.0889 65.5887 17.1975 65.1544Z" fill="#245D51"/>
<path d="M36.1997 78.5097C35.1139 76.9897 32.8339 74.9268 32.9424 74.9268C32.9424 74.9268 32.7253 76.9897 33.7025 78.6183C34.5711 80.0298 35.4396 80.5727 36.0911 80.5727C35.2225 79.2698 34.571 78.0754 33.9196 76.7725C34.6796 78.0754 35.5482 79.2698 36.634 80.5727C37.0683 80.3555 37.0683 79.8126 36.1997 78.5097Z" fill="#245D51"/>
<path d="M31.8514 76.0093C30.9828 74.3807 29.1371 72.1006 29.1371 72.1006C29.1371 72.1006 28.5942 74.1635 29.3542 75.7921C30.0057 77.3122 30.7657 77.8551 31.4171 77.9636C30.7657 76.6607 30.2228 75.3578 29.7885 74.0549C30.3314 75.3578 31.0914 76.6607 31.8514 78.0722C32.3943 77.9636 32.5029 77.4208 31.8514 76.0093Z" fill="#245D51"/>
<path d="M27.9428 73.192C27.3999 71.5634 25.7713 69.0662 25.7713 69.0662C25.7713 69.0662 25.0113 71.0205 25.4456 72.7577C25.8799 74.2778 26.5313 74.9292 27.1828 75.1464C26.7485 73.7349 26.4228 72.432 26.2056 71.1291C26.6399 72.5406 27.0742 73.8435 27.7256 75.2549C28.2685 75.1464 28.4856 74.7121 27.9428 73.192Z" fill="#245D51"/>
<path d="M24.5793 70.0166C24.2536 68.2794 22.9507 65.7822 22.9507 65.7822C22.9507 65.7822 21.9735 67.628 22.1907 69.3652C22.4078 70.8852 22.9507 71.6453 23.6021 71.8624C23.385 70.451 23.1678 69.1481 23.1678 67.7366C23.385 69.1481 23.7107 70.5595 24.145 71.971C24.5793 71.971 24.9051 71.5367 24.5793 70.0166Z" fill="#245D51"/>
<path d="M20.8911 68.4163C21.434 68.5249 21.7597 68.0906 21.6512 66.5705C21.5426 64.8333 20.5654 62.2275 20.5654 62.2275C20.5654 62.2275 19.3711 63.9647 19.3711 65.7019C19.3711 67.222 19.914 67.982 20.4568 68.3077C20.3483 66.8963 20.3483 65.4848 20.4568 64.1819C20.5654 65.4848 20.674 66.8963 20.8911 68.4163Z" fill="#245D51"/>
<path d="M18.2833 64.4668C18.8262 64.5754 19.1519 64.2497 19.2605 62.7296C19.3691 61.6439 19.0433 60.2324 18.9348 59.2552C18.8262 58.7124 18.7176 58.2781 18.7176 58.2781C18.7176 58.2781 18.1747 58.9295 17.7404 59.7981C17.5233 60.341 17.1976 60.9924 17.1976 61.6439C17.089 63.1639 17.4147 64.0325 17.9576 64.3583C18.0662 62.9468 18.2833 61.6439 18.5005 60.341C18.2833 61.5353 18.1747 63.0554 18.2833 64.4668Z" fill="#245D51"/>
<path d="M41.8482 81.5366C41.7397 81.428 41.7397 81.3195 41.6311 81.1023C41.5225 80.8852 41.3054 80.668 41.0882 80.3423C40.7625 80.0166 40.3282 79.5823 39.8939 79.2565C39.6767 79.0394 39.4596 78.9308 39.2425 78.7137C39.0253 78.4965 38.8081 78.3879 38.591 78.1708C38.3738 78.0622 38.1567 77.8451 38.0481 77.7365C37.9395 77.6279 37.831 77.6279 37.831 77.5193C37.7224 77.4108 37.6138 77.3022 37.5052 77.3022C37.3967 77.1936 37.3967 77.1936 37.2881 77.1936C37.2881 77.1936 37.2881 77.1936 37.2881 77.3022C37.2881 77.5193 37.2881 77.9536 37.5052 78.4965C37.5052 78.7137 37.6138 78.9308 37.7224 79.2565C37.831 79.5823 37.9396 80.0166 38.1567 80.3423C38.2653 80.5594 38.3738 80.7766 38.591 80.8851C39.0253 81.428 39.351 81.7537 39.7853 81.9709C39.8939 82.0795 40.0025 82.1881 40.111 82.1881C40.4368 82.4052 40.7625 82.5138 41.0882 82.5138C41.1968 82.5138 41.3054 82.5138 41.414 82.5138C40.3282 81.3194 39.4596 80.1251 38.591 78.9308C39.5682 80.1251 40.6539 81.3195 41.8482 82.4052C41.9568 82.4052 42.0654 82.2966 42.174 82.1881C42.2825 82.0795 42.2825 81.9709 42.174 81.7538C41.9568 81.7538 41.8482 81.6452 41.8482 81.5366Z" fill="#245D51"/>
<path d="M12.9639 60.5586C13.1811 60.7758 13.3982 60.8844 13.6154 60.9929C13.8325 61.1015 13.9411 61.2101 14.1582 61.2101C14.5925 61.3187 14.8097 61.2101 14.9182 60.9929C14.9182 60.9929 15.0268 60.8844 15.0268 60.7758C14.484 60.3415 13.8325 59.9072 13.2896 59.3643C12.7467 58.93 12.0953 58.3871 11.5525 57.8443C12.0953 58.2786 12.7467 58.7129 13.2896 59.0386C13.8325 59.4729 14.484 59.7986 15.0268 60.1243C15.0268 59.9072 14.9183 59.69 14.8097 59.3643C14.7011 59.1472 14.484 58.8214 14.1582 58.4957C13.9411 58.2786 13.7239 58.0614 13.3982 57.8443C13.0725 57.6271 12.6382 57.3014 12.3125 57.1928C11.1181 56.6499 9.92383 56.3242 9.92383 56.3242C9.92383 56.3242 10.0324 56.5414 10.141 56.7585C10.2495 56.8671 10.3581 57.0842 10.4667 57.3014C10.5753 57.41 10.5753 57.5185 10.6838 57.6271C10.901 58.0614 11.2267 58.4957 11.661 58.93C11.9867 59.69 12.5296 60.2329 12.9639 60.5586Z" fill="#245D51"/>
<path d="M11.2308 55.9256C12.4251 57.0114 12.968 56.9028 13.1852 56.4685C12.0994 55.4913 11.0136 54.4056 10.0365 53.3198C11.1222 54.297 12.208 55.1656 13.2937 56.0342C13.2937 55.3828 12.968 54.6227 11.8822 53.537C10.5793 52.3427 8.625 51.6912 8.625 51.6912C8.625 51.5826 9.92789 54.7313 11.2308 55.9256Z" fill="#245D51"/>
<path d="M11.9829 51.7721C11.0057 50.6863 10.1371 49.492 9.26855 48.2977C10.2457 49.3834 11.2229 50.3606 12.2 51.3378C12.3086 50.6863 12.0915 49.9263 11.1143 48.732C10.0286 47.4291 8.07422 46.4519 8.07422 46.4519C8.07422 46.4519 9.05139 49.7091 10.2457 51.012C11.1143 52.3149 11.6572 52.2064 11.9829 51.7721Z" fill="#245D51"/>
<path d="M11.2263 47.1138C10.3577 45.9195 9.59773 44.6166 8.8377 43.3137C9.7063 44.508 10.4663 45.5938 11.4435 46.6795C11.6606 46.0281 11.4435 45.2681 10.5749 43.9652C9.5977 42.4451 7.75195 41.4679 7.75195 41.3594C7.75195 41.3594 8.2948 44.6166 9.48912 46.1367C10.3577 47.4396 10.9006 47.5481 11.2263 47.1138Z" fill="#245D51"/>
<path d="M11.0058 42.3468C10.2457 41.0439 9.59426 39.741 9.05139 38.3295C9.70283 39.6324 10.4629 40.8267 11.2229 41.9125C11.44 41.3696 11.44 40.501 10.68 39.0895C9.81141 37.5695 8.18279 36.2666 8.07422 36.2666C8.07422 36.2666 8.29138 39.6324 9.26855 41.1525C10.0286 42.6725 10.5715 42.7811 11.0058 42.3468Z" fill="#245D51"/>
<path d="M11.2247 37.5757C10.6818 36.2728 10.139 34.8613 9.70467 33.3412C10.2475 34.6441 10.899 35.947 11.5505 37.2499C11.8762 36.7071 11.8762 35.8385 11.3333 34.427C10.6818 32.7984 9.05321 31.2783 9.05321 31.2783C9.05321 31.2783 8.94464 34.6441 9.70467 36.2728C10.2475 37.7928 10.7904 37.9014 11.2247 37.5757Z" fill="#245D51"/>
<path d="M11.9856 32.904C11.5513 31.4925 11.2255 30.081 10.8998 28.561C11.3341 29.9724 11.7684 31.2753 12.3113 32.5782C12.637 32.0354 12.7456 31.2753 12.3113 29.7553C12.0941 29.1038 11.877 28.4524 11.5513 28.0181C11.0084 27.1495 10.4655 26.498 10.4655 26.498C10.4655 26.498 10.3569 26.9323 10.3569 27.6924C10.2484 28.7781 10.2483 30.5153 10.5741 31.6011C11.0084 33.0125 11.5513 33.2297 11.9856 32.904Z" fill="#245D51"/>
<path d="M15.6809 54.4994C16.1152 52.8708 16.1151 50.0479 16.1151 50.0479C16.1151 50.0479 14.3779 51.2422 13.8351 52.9794C13.4008 54.3908 13.5093 55.2594 13.9436 55.8023C14.3779 54.4994 14.8123 53.1965 15.3551 52.0022C14.9208 53.3051 14.5951 54.7166 14.2694 56.128C14.8123 56.2366 15.2466 55.9109 15.6809 54.4994Z" fill="#245D51"/>
<path d="M14.588 50.1711C15.2395 48.6511 15.5652 45.8281 15.5652 45.8281C15.5652 45.8281 13.7194 46.9139 13.068 48.4339C12.4165 49.8454 12.5251 50.714 12.8508 51.1483C13.3937 49.8454 14.0451 48.6511 14.6966 47.4567C14.1537 48.7596 13.6108 50.0625 13.1765 51.3654C13.6108 51.7997 14.0451 51.5826 14.588 50.1711Z" fill="#245D51"/>
<path d="M14.0506 45.802C14.8106 44.282 15.462 41.5676 15.462 41.5676C15.462 41.5676 13.5077 42.4362 12.6391 43.8477C11.8791 45.1506 11.8791 46.0192 12.2048 46.5621C12.8562 45.3677 13.6163 44.1734 14.3763 43.1962C13.7248 44.3906 13.0734 45.6935 12.5305 46.9964C12.8563 47.3221 13.2906 47.1049 14.0506 45.802Z" fill="#245D51"/>
<path d="M11.8775 42.0116C12.6375 40.9258 13.5061 39.8401 14.3747 38.8629C13.6147 39.9486 12.8547 41.143 12.0947 42.4459C12.4204 42.7716 12.9632 42.663 13.8318 41.4687C14.809 40.0572 15.6776 37.4514 15.6776 37.4514C15.6776 37.4514 13.7233 38.1029 12.6375 39.4058C11.7689 40.4915 11.6604 41.3601 11.8775 42.0116Z" fill="#245D51"/>
<path d="M12.2016 37.3585C13.0702 36.3813 14.0474 35.4042 15.0246 34.5356C14.156 35.5127 13.1788 36.5985 12.4188 37.7928C12.7445 38.2271 13.2874 38.1185 14.2646 37.0328C15.3503 35.7299 16.5446 33.2327 16.5446 33.2327C16.5446 33.2327 14.4817 33.667 13.2874 34.8613C12.2016 35.947 11.9845 36.7071 12.2016 37.3585Z" fill="#245D51"/>
<path d="M13.1764 33.1018C13.5022 33.5361 13.9364 33.5361 15.0222 32.4504C15.7822 31.6904 16.6508 30.4961 17.0851 29.736C17.4108 29.3017 17.628 28.8674 17.628 28.8674C17.628 28.8674 16.7594 28.976 15.8908 29.3017C15.3479 29.5189 14.8051 29.8446 14.2622 30.1703C13.0679 31.1475 12.8507 32.0161 12.9593 32.559C13.9364 31.6904 15.0222 30.8218 16.1079 30.0618C15.0222 31.1475 14.045 32.1247 13.1764 33.1018Z" fill="#245D51"/>
<path d="M16.2169 60.3519C16.3255 60.3519 16.434 60.3519 16.5426 60.2433C16.6512 60.1347 16.8684 59.9176 16.977 59.5918C17.0855 59.3747 17.0855 59.049 17.1941 58.7232C17.1941 58.5061 17.3027 58.2889 17.3027 58.0718C17.3027 57.8546 17.3027 57.6375 17.3027 57.3118C17.3027 57.0946 17.3027 56.7689 17.3027 56.5517C17.3027 56.3346 17.3027 56.1174 17.3027 55.7917C17.3027 54.9231 17.1941 54.1631 17.1941 54.1631C17.1941 54.1631 17.1941 54.1631 17.0855 54.2717C16.9769 54.3802 16.8684 54.4888 16.6512 54.706C16.2169 55.2488 15.4569 56.226 15.2397 57.3118C14.914 58.8318 15.2397 59.7004 15.674 60.0261C15.8912 58.6147 16.2169 57.3118 16.6512 56.0089C16.3255 57.4203 16.2169 58.8318 16.1083 60.2433C16.1083 60.3519 16.2169 60.3519 16.2169 60.3519Z" fill="#245D51"/>
<path d="M14.9142 23.8803C14.8056 22.3602 14.8056 20.8402 14.8056 19.3201C14.9142 20.7316 15.0228 22.2516 15.2399 23.5545C15.6742 23.1202 15.9999 22.3602 15.8914 20.7316C15.7828 18.8858 14.8056 17.04 14.8056 17.04C14.8056 17.04 13.6113 20.1887 13.7199 22.0345C14.0456 23.6631 14.4799 23.9888 14.9142 23.8803Z" fill="#245D51"/>
<path d="M17.1948 19.5529C17.3033 18.0329 17.4119 16.5128 17.6291 14.9928C17.5205 16.5128 17.5205 17.9243 17.6291 19.3358C18.1719 19.0101 18.4977 18.25 18.6063 16.6214C18.7148 14.7756 17.9548 12.8213 17.9548 12.8213C17.9548 12.8213 16.3262 15.8614 16.3262 17.7072C16.3262 19.3358 16.6519 19.7701 17.1948 19.5529Z" fill="#245D51"/>
<path d="M19.9123 15.6406C20.1295 14.1206 20.4552 12.7091 20.8895 11.1891C20.5638 12.6005 20.4552 14.1206 20.3466 15.5321C20.8895 15.2063 21.3238 14.5549 21.6495 12.9263C21.9753 11.1891 21.541 9.01758 21.541 9.01758C21.541 9.01758 19.5866 11.8405 19.2609 13.6863C19.0437 15.3149 19.478 15.6406 19.9123 15.6406Z" fill="#245D51"/>
<path d="M23.1721 11.9351C23.6064 10.5237 24.1493 9.00362 24.8007 7.59215C24.3664 9.00362 23.9321 10.4151 23.715 11.8266C24.3664 11.6094 24.9093 10.958 25.4522 9.32935C25.995 7.59215 25.7779 5.42065 25.7779 5.42065C25.7779 5.42065 23.3893 8.02645 22.8464 9.87222C22.3035 11.5008 22.6292 11.9351 23.1721 11.9351Z" fill="#245D51"/>
<path d="M26.9653 8.58055C27.6167 7.16907 28.3768 5.7576 29.1368 4.34613C28.4853 5.7576 27.8339 7.0605 27.3996 8.47197C28.051 8.25482 28.7025 7.71195 29.4625 6.1919C30.3311 4.4547 30.3311 2.2832 30.3311 2.2832C30.3311 2.2832 27.5082 4.67185 26.7481 6.40905C26.0967 8.03767 26.4224 8.47197 26.9653 8.58055Z" fill="#245D51"/>
<path d="M17.8497 21.8077C16.5468 22.5677 16.0039 23.3277 16.0039 23.8706C17.1982 23.2192 18.3926 22.5677 19.5869 22.0248C18.3926 22.6763 17.1982 23.4363 16.0039 24.3049C16.2211 24.8478 16.6554 24.8478 17.9583 24.0878C19.3697 23.2192 21.3241 21.1562 21.3241 21.1562C21.4327 21.2648 19.3697 20.9391 17.8497 21.8077Z" fill="#245D51"/>
<path d="M22.0845 18.3235C20.7816 18.8663 19.4787 19.5178 18.2844 20.1692C18.3929 20.7121 18.9358 20.8207 20.2387 20.1692C21.7588 19.4092 23.9303 17.5634 23.9303 17.672C23.9303 17.672 21.8674 17.1291 20.2387 17.7806C18.8273 18.3235 18.2844 19.0835 18.1758 19.6264C19.4787 19.1921 20.7816 18.7578 22.0845 18.3235Z" fill="#245D51"/>
<path d="M23.283 14.2151C21.763 14.6494 21.1115 15.3009 21.0029 15.8437C22.3058 15.4094 23.7173 15.0837 25.0202 14.8666C23.6087 15.3009 22.3058 15.7352 21.0029 16.278C21.0029 16.8209 21.5458 17.0381 22.9573 16.4952C24.5859 15.9523 26.9745 14.3237 26.9745 14.3237C26.9745 14.4323 25.0202 13.6722 23.283 14.2151Z" fill="#245D51"/>
<path d="M26.6429 10.8537C25.0143 11.0708 24.3628 11.7223 24.1457 12.2651C25.5571 12.048 26.9686 11.8308 28.2715 11.7223C26.86 11.9394 25.4486 12.2651 24.0371 12.6994C24.0371 13.2423 24.4714 13.4595 25.9914 13.1337C27.7286 12.808 30.3344 11.3965 30.3344 11.3965C30.443 11.5051 28.4887 10.5279 26.6429 10.8537Z" fill="#245D51"/>
<path d="M27.842 8.98841C29.2535 8.87984 30.7736 8.87984 32.185 8.87984C30.665 8.98841 29.2535 9.20556 27.7335 9.42271C27.6249 9.96558 28.0592 10.2913 29.6878 10.0742C31.425 9.85701 34.3565 8.77126 34.3565 8.87984C34.3565 8.87984 32.5107 7.68551 30.665 7.79409C29.0363 8.01124 28.1678 8.44554 27.842 8.98841Z" fill="#245D51"/>
<path d="M12.0951 27.25C12.2037 27.5758 12.3122 27.7929 12.4208 28.0101C12.5294 28.2272 12.6379 28.3358 12.7465 28.3358C12.9637 28.4444 13.0722 28.4444 13.2894 28.3358C12.9637 26.9243 12.8551 25.4043 12.7465 23.8842C12.9637 25.2957 13.2894 26.7072 13.7237 28.1186C13.9409 27.9015 14.0494 27.5758 14.158 27.1415C14.158 27.0329 14.158 26.9243 14.158 26.8157C14.158 26.7072 14.158 26.5986 14.158 26.3814C14.158 26.0557 14.158 25.73 14.0494 25.4043C14.0494 25.4043 14.0494 25.4043 14.0494 25.2957C14.0494 24.97 13.9408 24.6442 13.8323 24.3185C13.7237 23.9928 13.6151 23.6671 13.5066 23.4499C13.2894 23.0156 13.1808 22.6899 12.9637 22.4727C12.7465 22.0384 12.5294 21.8213 12.5294 21.8213C12.5294 21.8213 12.5294 21.9299 12.4208 22.147C12.4208 22.2556 12.3122 22.4727 12.3122 22.5813C12.2036 22.907 12.2037 23.2328 12.0951 23.6671C12.0951 23.7756 12.0951 23.8842 11.9865 24.1014C11.9865 24.5357 11.8779 24.97 11.8779 25.4043C11.8779 25.9471 11.8779 26.49 11.9865 26.9243C11.9865 26.9243 11.9865 27.0329 12.0951 27.25Z" fill="#245D51"/>
<path d="M19.3665 25.0635C19.2579 25.0635 19.3665 25.0635 19.3665 25.0635C19.2579 25.0635 19.1494 25.0635 19.0408 25.0635C18.8237 25.0635 18.4979 25.0635 18.1722 25.172C17.955 25.172 17.8465 25.2806 17.6293 25.2806C17.3036 25.3892 16.9779 25.4978 16.6521 25.6064C16.435 25.7149 16.2178 25.8235 16.1093 25.9321C16.0007 25.9321 16.0007 26.0406 15.8921 26.0406C15.7836 26.1492 15.5664 26.2578 15.4578 26.3664C15.3492 26.475 15.2407 26.5835 15.1321 26.6921C15.0235 26.8007 14.915 26.9092 14.8064 27.0178C14.5892 27.235 14.4807 27.4521 14.4807 27.5607C14.3721 27.7778 14.3721 27.8864 14.3721 28.1036C14.3721 28.2121 14.3721 28.2121 14.3721 28.3207C14.9149 27.8864 15.4578 27.5607 16.1093 27.1264C16.6521 26.8007 17.195 26.3664 17.8465 26.0406C17.3036 26.4749 16.7607 26.9092 16.2179 27.3435C15.675 27.7778 15.1321 28.2121 14.5892 28.755C14.6978 28.8636 14.6978 28.9722 14.8064 28.9722C14.915 28.9722 15.0235 29.0807 15.0235 29.0807C15.2407 29.0807 15.4578 28.9722 15.8921 28.755C16.1093 28.6464 16.2178 28.5379 16.5436 28.3207C16.8693 28.1036 17.195 27.7778 17.5208 27.3435C17.8465 27.0178 18.1722 26.5835 18.4979 26.2578C18.7151 25.9321 19.0408 25.7149 19.1494 25.4978C19.0408 25.2806 19.1494 25.1721 19.3665 25.0635C19.2579 25.0635 19.2579 25.0635 19.3665 25.0635Z" fill="#245D51"/>
<path d="M75.9407 6.17709C73.9863 4.87419 71.9234 3.78844 69.6434 2.81127C72.032 3.67987 74.2035 4.65704 76.2664 5.85136C76.375 5.30849 75.8321 4.33131 73.4435 3.13699C70.6205 1.72552 66.1689 1.61694 66.1689 1.61694C66.2775 1.61694 69.7519 4.11417 72.2491 5.41706C74.4206 6.50281 75.3978 6.61139 75.9407 6.17709Z" fill="#245D51"/>
<path d="M72.0278 81.2006C73.5478 81.4178 75.0679 81.4178 76.6965 81.5264C75.0679 81.6349 73.3307 81.7435 71.7021 81.6349C71.4849 82.1778 71.8106 82.6121 73.5478 82.6121C75.6107 82.7207 79.0851 81.3092 78.9765 81.3092C78.9765 81.3092 77.0222 80.332 75.0679 80.332C73.4393 80.332 72.4621 80.6578 72.0278 81.2006Z" fill="#245D51"/>
<path d="M79.629 77.5217C78.0003 77.7388 77.1318 78.0645 76.6975 78.6074C78.2175 78.6074 79.7375 78.4988 81.2576 78.3903C79.629 78.716 78.1089 78.9331 76.4803 79.0417C76.2632 79.5846 76.6974 79.9103 78.4346 79.8017C80.389 79.6932 83.5377 77.956 83.5377 77.956C83.5377 78.0645 81.4747 77.3045 79.629 77.5217Z" fill="#245D51"/>
<path d="M83.5429 74.2739C81.9143 74.5996 81.2629 75.1425 80.8286 75.6853C82.24 75.5768 83.7601 75.3596 85.1715 75.0339C83.6515 75.4682 82.1314 75.9025 80.6114 76.1196C80.5028 76.6625 80.9371 76.9882 82.5658 76.6625C84.5201 76.3368 87.343 74.3824 87.343 74.2739C87.4516 74.3824 85.3887 73.9481 83.5429 74.2739Z" fill="#245D51"/>
<path d="M87.009 70.6567C85.4889 71.1996 84.8374 71.7425 84.6203 72.2853C86.0318 71.9596 87.4432 71.6339 88.8547 71.1996C87.4432 71.851 86.0318 72.3939 84.5117 72.8282C84.5117 73.3711 84.946 73.6968 86.5746 73.1539C88.4204 72.6111 90.9176 70.331 90.9176 70.331C90.9176 70.331 88.7462 70.1138 87.009 70.6567Z" fill="#245D51"/>
<path d="M87.7754 68.5958C89.0783 68.1615 90.4898 67.6186 91.7927 67.0757C90.4898 67.8358 89.0783 68.4872 87.7754 69.1387C87.7754 69.6815 88.3183 69.8987 89.8383 69.2472C91.5755 68.5958 93.8556 65.99 93.747 65.99C93.747 65.99 91.5755 65.99 89.9469 66.75C88.5354 67.4015 87.9925 68.0529 87.7754 68.5958Z" fill="#245D51"/>
<path d="M92.4426 62.5445C91.1398 63.4131 90.5969 64.0645 90.4883 64.716C91.7912 64.1731 92.9855 63.5217 94.2884 62.7616C93.0941 63.6302 91.7912 64.4988 90.4883 65.2589C90.5969 65.8017 91.1397 66.0189 92.5512 65.1503C93.5284 64.6074 94.7227 63.3045 95.3741 62.4359C95.8084 61.893 96.0256 61.4587 96.0256 61.4587C96.0256 61.4587 95.157 61.5673 94.1798 61.7845C93.6369 62.0016 92.9855 62.2188 92.4426 62.5445Z" fill="#245D51"/>
<path d="M74.0871 78.6183C75.0643 76.9897 74.8471 74.9268 74.8471 74.9268C74.8471 74.9268 72.5671 76.9897 71.5899 78.5097C70.7213 79.8126 70.7213 80.3555 71.2642 80.5727C72.2414 79.3783 73.11 78.0754 73.9786 76.7725C73.3271 78.0754 72.6757 79.2698 71.8071 80.5727C72.3499 80.4641 73.2185 80.0298 74.0871 78.6183Z" fill="#245D51"/>
<path d="M78.3249 75.8956C79.085 74.267 78.5421 72.2041 78.5421 72.2041C78.5421 72.2041 76.6963 74.4842 75.8277 76.1128C75.1762 77.5243 75.2848 78.0671 75.8277 78.1757C76.5877 76.8728 77.3477 75.5699 77.8906 74.1585C77.4563 75.4614 76.9134 76.7642 76.262 78.0671C76.9134 77.9586 77.6735 77.4157 78.3249 75.8956Z" fill="#245D51"/>
<path d="M82.1242 72.7577C82.5585 71.0205 81.7984 69.0662 81.7984 69.0662C81.7984 69.0662 80.2784 71.5634 79.627 73.192C79.0841 74.7121 79.3012 75.1464 79.8441 75.2549C80.4956 73.8435 80.9299 72.5406 81.3642 71.1291C81.147 72.432 80.8213 73.8435 80.387 75.1464C81.0384 74.9292 81.6899 74.3863 82.1242 72.7577Z" fill="#245D51"/>
<path d="M85.3868 69.3652C85.6039 67.628 84.6267 65.7822 84.6267 65.7822C84.6267 65.7822 83.4324 68.388 82.9981 70.0166C82.6724 71.5367 82.9981 71.971 83.541 71.971C83.9753 70.5595 84.301 69.1481 84.5182 67.7366C84.4096 69.0395 84.301 70.451 84.0839 71.8624C84.6267 71.5367 85.1696 70.8852 85.3868 69.3652Z" fill="#245D51"/>
<path d="M88.2042 65.5562C88.2042 63.819 87.0099 62.0818 87.0099 62.0818C87.0099 62.0818 86.1413 64.7962 85.9241 66.4248C85.8155 67.9448 86.1413 68.3791 86.6841 68.2705C86.9013 66.8591 87.0098 65.4476 87.1184 64.0361C87.227 65.339 87.227 66.7505 87.1184 68.162C87.7699 67.8363 88.2042 67.0762 88.2042 65.5562Z" fill="#245D51"/>
<path d="M90.5965 61.5397C90.4879 60.8882 90.2708 60.2367 90.0536 59.6939C89.6193 58.8253 89.0764 58.1738 89.0764 58.1738C89.0764 58.1738 88.9679 58.6081 88.8593 59.151C88.7507 60.1282 88.425 61.5397 88.5336 62.6254C88.6421 64.1454 88.9679 64.5797 89.5107 64.3626C89.5107 62.9511 89.5107 61.4311 89.4022 60.1282C89.6193 61.4311 89.8365 62.8425 89.945 64.1454C90.3793 63.9283 90.7051 63.0597 90.5965 61.5397Z" fill="#245D51"/>
<path d="M70.1878 82.7429C69.9707 82.7429 69.7535 82.7429 69.5364 82.7429C68.7763 82.7429 68.1249 82.7429 67.6906 82.8515C67.3648 82.9601 67.0391 83.0686 66.822 83.2858C68.342 83.6115 69.9707 83.8287 71.5993 84.0458C69.8621 84.0458 68.1249 83.8287 66.4962 83.6115C66.3877 83.7201 66.3877 83.8287 66.3877 83.9372V84.0458C66.4963 84.3715 67.0391 84.5887 68.2334 84.8058C68.342 84.8058 68.4506 84.8058 68.6677 84.8058C68.7763 84.8058 68.9935 84.8058 69.1021 84.8058C69.2106 84.8058 69.4278 84.8058 69.5364 84.8058C69.6449 84.8058 69.8621 84.8058 69.9707 84.8058C70.2964 84.8058 70.6221 84.6973 70.8392 84.6973C71.3821 84.5887 71.925 84.5887 72.3593 84.4801C72.5765 84.4801 72.7936 84.3715 72.9022 84.3715C73.1193 84.263 73.3365 84.263 73.5536 84.263C73.6622 84.263 73.6622 84.263 73.7708 84.263C73.8793 84.263 73.8794 84.263 73.8794 84.263C73.8794 84.263 73.445 83.9372 72.685 83.6115C72.1421 83.1772 71.165 82.8515 70.1878 82.7429Z" fill="#245D51"/>
<path d="M69.4205 78.9308C68.5519 80.1251 67.6833 81.3194 66.5976 82.5138C66.7061 82.5138 66.8147 82.5138 66.9233 82.5138C67.249 82.5138 67.5747 82.4052 67.9005 82.1881C68.1176 82.0795 68.3348 81.9709 68.5519 81.7538C68.8777 81.5366 69.0948 81.2109 69.4205 80.8851C69.8548 80.3423 70.1805 79.6908 70.3977 79.0394C70.6148 78.4965 70.7234 77.9536 70.7234 77.5193C70.7234 77.4108 70.7234 77.3022 70.7234 77.3022C70.7234 77.1936 70.7234 77.1936 70.7234 77.1936C70.7234 77.1936 70.6148 77.3022 70.5063 77.3022C70.3977 77.4108 70.2891 77.4108 70.1806 77.5193C70.072 77.6279 70.072 77.6279 69.9634 77.7365C69.7462 77.8451 69.6377 78.0622 69.4205 78.1708C69.2034 78.2794 68.9862 78.4965 68.7691 78.7137C68.5519 78.9308 68.3348 79.0394 68.1176 79.2565C67.6833 79.5823 67.249 80.0166 66.9233 80.3423C66.7062 80.668 66.489 80.8852 66.3804 81.1023C66.2719 81.2109 66.1633 81.428 66.1633 81.5366C66.1633 81.6452 66.0547 81.7538 66.0547 81.7538C66.0547 81.8623 66.0547 82.0795 66.0547 82.1881C66.1633 82.2966 66.1633 82.4052 66.3804 82.4052C67.3576 81.3195 68.4433 80.1251 69.4205 78.9308Z" fill="#245D51"/>
<path d="M94.3936 55.9289C95.4794 55.0603 96.5651 54.1917 97.6508 53.2146C96.6737 54.3003 95.5879 55.3861 94.5022 56.3632C94.7193 56.7975 95.2622 56.9061 96.4565 55.8204C97.868 54.626 99.1709 51.5859 99.0623 51.5859C99.0623 51.5859 96.9994 52.2374 95.8051 53.4317C94.6107 54.626 94.285 55.3861 94.3936 55.9289Z" fill="#245D51"/>
<path d="M96.6725 48.732C95.6953 49.9263 95.3696 50.6863 95.5868 51.3378C96.5639 50.3606 97.5411 49.3834 98.5183 48.2977C97.6497 49.492 96.6725 50.6863 95.8039 51.7721C96.021 52.2064 96.6725 52.2064 97.6497 51.012C98.844 49.7091 99.8212 46.4519 99.8212 46.4519C99.8212 46.5605 97.8668 47.4291 96.6725 48.732Z" fill="#245D51"/>
<path d="M98.3084 46.1367C99.3942 44.7252 100.046 41.3594 100.046 41.3594C100.046 41.3594 98.1999 42.4451 97.2227 43.9652C96.3541 45.2681 96.2455 46.0281 96.3541 46.6795C97.2227 45.5938 98.0913 44.508 98.9599 43.3137C98.1999 44.6166 97.4398 45.9195 96.5712 47.1138C96.7884 47.5481 97.3313 47.4396 98.3084 46.1367Z" fill="#245D51"/>
<path d="M97.1121 39.1919C96.3521 40.6034 96.3521 41.3634 96.5693 42.0149C97.3293 40.8205 98.0893 39.6262 98.7408 38.4319C98.1979 39.8434 97.4379 41.1463 96.7864 42.4492C97.1122 42.7749 97.655 42.7749 98.5236 41.3634C99.5008 39.7348 99.7179 36.4776 99.7179 36.4776C99.6094 36.369 97.8722 37.5633 97.1121 39.1919Z" fill="#245D51"/>
<path d="M96.236 37.2499C96.8874 36.0556 97.5389 34.7527 98.0817 33.3412C97.6474 34.7527 97.1046 36.1642 96.5617 37.5757C96.996 37.9014 97.4303 37.7928 98.0817 36.2728C98.8418 34.6441 98.7332 31.2783 98.7332 31.2783C98.7332 31.2783 97.1046 32.7984 96.4531 34.427C95.9102 35.8385 95.9102 36.7071 96.236 37.2499Z" fill="#245D51"/>
<path d="M95.4769 32.5451C96.0198 31.2422 96.4541 29.9393 96.8884 28.5279C96.5627 30.0479 96.2369 31.4594 95.8027 32.8709C96.2369 33.1966 96.7798 32.9794 97.2141 31.3508C97.5399 30.2651 97.5398 28.5279 97.4313 27.4421C97.3227 26.7907 97.3227 26.2478 97.3227 26.2478C97.3227 26.2478 96.7799 26.8993 96.237 27.7679C95.9113 28.3107 95.5855 28.9622 95.4769 29.505C94.9341 31.2422 95.0426 32.0023 95.4769 32.5451Z" fill="#245D51"/>
<path d="M92.436 57.3118C92.436 57.0946 92.3274 56.8775 92.2188 56.6603C92.1103 56.4432 92.0017 56.226 92.0017 56.1174C91.6759 55.5746 91.3502 55.0317 91.0245 54.706C90.8074 54.4888 90.6988 54.2717 90.5902 54.2717L90.4816 54.1631C90.4816 54.1631 90.373 54.8145 90.373 55.7917C90.373 56.0089 90.373 56.226 90.373 56.5517C90.373 56.7689 90.373 57.0946 90.373 57.3118C90.373 57.5289 90.373 57.8546 90.373 58.0718C90.373 58.2889 90.3731 58.5061 90.4816 58.7232V58.8318C90.5902 59.1575 90.5902 59.3747 90.6988 59.5918C90.8074 59.9176 90.9159 60.1347 91.1331 60.2433C91.2417 60.3519 91.3502 60.3519 91.4588 60.3519C91.5674 60.3519 91.5674 60.3519 91.676 60.3519C91.5674 58.9404 91.3502 57.5289 91.1331 56.1174C91.5674 57.4203 91.8931 58.7232 92.1103 60.1347C92.436 59.7004 92.7617 58.8318 92.436 57.3118Z" fill="#245D51"/>
<path d="M93.8484 52.9794C93.3056 51.3507 91.5684 50.0479 91.5684 50.0479C91.5684 50.0479 91.5684 52.8708 92.0027 54.4994C92.437 55.9109 92.8713 56.2366 93.3056 56.0195C92.9798 54.608 92.6541 53.1965 92.2198 51.8936C92.7627 53.0879 93.197 54.3908 93.6313 55.6937C94.0656 55.2594 94.2827 54.3908 93.8484 52.9794Z" fill="#245D51"/>
<path d="M94.7208 48.4339C93.9608 46.8053 92.2236 45.8281 92.2236 45.8281C92.2236 45.8281 92.5494 48.6511 93.2008 50.1711C93.7437 51.5826 94.2865 51.7997 94.7208 51.5826C94.2865 50.1711 93.7437 48.8682 93.2008 47.6739C93.8522 48.8682 94.5037 50.0625 95.0466 51.3654C95.2637 50.714 95.3723 49.8454 94.7208 48.4339Z" fill="#245D51"/>
<path d="M95.0466 43.8477C94.178 42.3276 92.2236 41.5676 92.2236 41.5676C92.2236 41.5676 92.8751 44.282 93.6351 45.802C94.3951 47.1049 94.8294 47.3221 95.2637 46.9964C94.7208 45.6935 94.0694 44.3906 93.418 43.1962C94.178 44.282 94.938 45.3677 95.5895 46.5621C95.9152 46.1278 95.9152 45.2592 95.0466 43.8477Z" fill="#245D51"/>
<path d="M95.046 39.3068C93.9602 37.8953 92.0059 37.2439 92.0059 37.3525C92.0059 37.3525 92.8745 39.9582 93.8516 41.3697C94.7202 42.564 95.2631 42.7812 95.5888 42.3469C94.8288 41.1526 94.0688 39.9582 93.3088 38.7639C94.1774 39.7411 95.046 40.8268 95.806 41.9126C96.0231 41.3697 95.9146 40.5011 95.046 39.3068Z" fill="#245D51"/>
<path d="M95.4856 37.3585C95.7027 36.8156 95.4856 35.947 94.3998 34.8613C93.2055 33.5584 91.1426 33.2327 91.1426 33.2327C91.1426 33.2327 92.3369 35.7299 93.4227 37.0328C94.3998 38.1185 94.9427 38.2271 95.2684 37.7928C94.3998 36.5985 93.5312 35.5127 92.6626 34.5356C93.6398 35.4042 94.617 36.2728 95.4856 37.3585Z" fill="#245D51"/>
<path d="M93.4176 30.2736C92.9833 29.8393 92.3318 29.5136 91.789 29.405C90.8118 29.0793 90.0518 28.9707 90.0518 28.9707C90.0518 28.9707 90.2689 29.2964 90.5946 29.8393C91.1375 30.5993 91.8975 31.9022 92.6575 32.5537C93.7433 33.5308 94.2862 33.6394 94.5033 33.2051C93.5262 32.1194 92.549 31.1422 91.5718 30.2736C92.6575 31.0336 93.6347 31.9022 94.7205 32.7708C94.829 32.1194 94.6119 31.2508 93.4176 30.2736Z" fill="#245D51"/>
<path d="M94.3923 58.094C94.0666 58.3112 93.8494 58.5283 93.6323 58.7455C93.3065 59.0712 93.0894 59.3969 92.9808 59.6141C92.8723 59.8312 92.7637 60.1569 92.7637 60.3741C93.958 59.6141 95.1523 58.854 96.2381 57.9854C95.1523 58.9626 93.958 59.9398 92.7637 60.8084C92.7637 60.917 92.7637 60.917 92.8723 61.0255C92.9808 61.2427 93.198 61.3513 93.6323 61.2427C93.7408 61.2427 93.958 61.1341 94.1751 61.0255C94.3923 60.917 94.6094 60.8084 94.8266 60.5912C95.2609 60.2655 95.8038 59.7226 96.2381 59.1798C96.5638 58.7455 96.8895 58.3112 97.2152 57.8769C97.3238 57.7683 97.3238 57.6597 97.4324 57.5511C97.541 57.334 97.6495 57.2254 97.7581 57.0083C97.9753 56.6825 97.9753 56.574 97.9753 56.574C97.9753 56.574 96.7809 56.7911 95.5866 57.4426C95.0438 57.5511 94.718 57.8769 94.3923 58.094Z" fill="#245D51"/>
<path d="M93.7453 25.1632C93.7453 25.3803 93.7453 25.4889 93.6367 25.706C93.6367 25.9232 93.6367 26.0318 93.6367 26.1403C93.6367 26.2489 93.6367 26.4661 93.6367 26.5746C93.6367 26.6832 93.6367 26.7918 93.6367 26.9004C93.7453 27.3347 93.8539 27.6604 94.071 27.8775C94.3968 26.5746 94.7225 25.1632 95.0482 23.6431C94.9396 25.1632 94.7225 26.6832 94.5053 28.0947C94.7225 28.2033 94.8311 28.2033 95.0482 28.0947C95.1568 28.0947 95.1568 27.9861 95.2653 27.8775C95.3739 27.769 95.3739 27.6604 95.4825 27.5518C95.5911 27.4432 95.5911 27.2261 95.6997 27.0089C95.6997 26.9004 95.8082 26.6832 95.8082 26.4661C95.9168 26.0318 95.9168 25.4889 95.9168 24.946C95.9168 24.5117 95.8082 24.0774 95.8082 23.6431C95.8082 23.5345 95.8082 23.426 95.6997 23.2088C95.5911 22.7745 95.5911 22.4488 95.4825 22.1231C95.4825 21.9059 95.3739 21.7973 95.3739 21.6888C95.3739 21.4716 95.2653 21.363 95.2653 21.363C95.2653 21.363 95.0482 21.5802 94.831 22.0145C94.7225 22.2316 94.5053 22.6659 94.2882 22.9917C94.1796 23.3174 94.071 23.5345 93.9625 23.8603C93.9625 24.5117 93.8539 24.8374 93.7453 25.1632C93.8539 25.1632 93.8539 25.1632 93.7453 25.1632Z" fill="#245D51"/>
<path d="M92.8765 19.3158C92.9851 20.8358 92.8765 22.3559 92.7679 23.8759C93.2022 24.0931 93.7451 23.7674 93.8537 22.1387C94.0708 20.293 92.8765 17.1443 92.7679 17.1443C92.7679 17.1443 91.7908 19.0986 91.6822 20.8358C91.5736 22.4645 91.8993 23.2245 92.3336 23.6588C92.6594 22.2473 92.7679 20.7273 92.8765 19.3158Z" fill="#245D51"/>
<path d="M90.0561 19.4393C90.1647 18.0278 90.0561 16.6163 90.0561 15.0963C90.2733 16.6163 90.4904 18.1364 90.4904 19.6564C91.0333 19.765 91.3591 19.4393 91.3591 17.8107C91.3591 15.9649 89.7304 12.9248 89.7304 12.9248C89.7304 12.9248 88.9704 14.9877 89.079 16.7249C89.1876 18.245 89.6218 19.005 90.0561 19.4393Z" fill="#245D51"/>
<path d="M87.3424 15.4286C87.2338 14.0171 87.0167 12.6056 86.7995 11.0856C87.2338 12.6056 87.5595 14.1257 87.7767 15.5371C88.3196 15.6457 88.6453 15.2114 88.4282 13.5828C88.211 11.737 86.2567 8.80549 86.1481 8.91406C86.1481 8.91406 85.6052 10.977 86.0395 12.8228C86.3652 14.4514 86.7995 15.1028 87.3424 15.4286Z" fill="#245D51"/>
<path d="M84.0841 11.7233C83.7584 10.3118 83.4327 8.90035 82.9984 7.48888C83.6498 8.90035 84.1927 10.4204 84.627 11.8319C85.1699 11.8319 85.4956 11.3976 85.0613 9.76895C84.627 7.92318 82.2384 5.31738 82.1298 5.31738C82.1298 5.31738 81.9127 7.48888 82.4555 9.22608C82.8898 10.8547 83.4327 11.5061 84.0841 11.7233Z" fill="#245D51"/>
<path d="M80.2774 8.46838C79.8431 7.05691 79.1916 5.75401 78.5402 4.34254C79.4088 5.75401 80.1688 7.16548 80.7117 8.57696C81.2546 8.57696 81.4717 8.03408 80.8203 6.51404C80.0602 4.77684 77.3459 2.27961 77.2373 2.38819C77.2373 2.38819 77.3459 4.55969 78.1059 6.29689C78.9745 7.70836 79.6259 8.25123 80.2774 8.46838Z" fill="#245D51"/>
<path d="M91.6768 24.3245C90.4825 23.4559 89.2882 22.6959 88.0938 22.0445C89.2882 22.5873 90.4825 23.1302 91.6768 23.8902C91.6768 23.2388 91.2425 22.4788 89.831 21.8273C88.311 20.9587 86.248 21.2844 86.248 21.2844C86.248 21.2844 88.2024 23.3474 89.6139 24.216C90.9168 24.976 91.4596 24.8674 91.6768 24.3245Z" fill="#245D51"/>
<path d="M83.7539 17.7015C83.7539 17.7015 85.9254 19.5473 87.4454 20.1987C88.8569 20.8502 89.2912 20.633 89.3998 20.1987C88.0969 19.5473 86.9026 18.8958 85.5997 18.353C86.9026 18.7873 88.2055 19.2216 89.3998 19.7644C89.2912 19.113 88.7483 18.4615 87.3369 17.9187C85.8168 17.1586 83.7539 17.7015 83.7539 17.7015Z" fill="#245D51"/>
<path d="M86.7939 16.276C85.491 15.7331 84.0795 15.1902 82.7766 14.8645C84.0795 15.0817 85.491 15.4074 86.7939 15.8417C86.5767 15.2988 86.0339 14.6474 84.5138 14.2131C82.7766 13.6702 80.8223 14.4302 80.8223 14.4302C80.8223 14.4302 83.3195 16.0588 84.8395 16.6017C86.251 17.036 86.7939 16.8189 86.7939 16.276Z" fill="#245D51"/>
<path d="M83.6489 12.7003C82.2375 12.266 80.826 11.9403 79.4145 11.7232C80.826 11.8317 82.2374 12.0489 83.5403 12.266C83.3232 11.7232 82.5632 11.0717 81.0431 10.8546C79.1974 10.5288 77.3516 11.506 77.3516 11.506C77.3516 11.506 80.0659 12.8089 81.6946 13.2432C83.2146 13.4604 83.6489 13.2432 83.6489 12.7003Z" fill="#245D51"/>
<path d="M78.1101 10.2187C79.6301 10.3273 80.173 10.1101 80.0644 9.56724C78.5444 9.35009 77.1329 9.13294 75.6129 9.02437C77.0243 9.02437 78.4358 9.02437 79.9559 9.13294C79.6301 8.59007 78.8701 8.04719 77.2415 7.93862C75.3957 7.83004 73.5499 9.02437 73.5499 9.02437C73.4413 8.91579 76.2643 10.0015 78.1101 10.2187Z" fill="#245D51"/>
<path d="M88.7507 25.4927C88.9678 25.7099 89.185 26.0356 89.4022 26.2527C89.7279 26.5785 90.0536 27.0128 90.3793 27.3385C90.705 27.6642 91.0308 27.9899 91.3565 28.3157C91.6822 28.5328 91.8994 28.75 92.1165 28.8585C92.5508 29.0757 92.8765 29.0757 93.0937 28.9671C93.2023 28.8585 93.3109 28.8585 93.3109 28.75C92.768 28.3157 92.2251 27.7728 91.6822 27.3385C91.1394 26.9042 90.5965 26.4699 90.0536 26.0356C90.5965 26.3613 91.2479 26.687 91.7908 27.1213C92.3337 27.4471 92.8766 27.8814 93.4194 28.3157C93.4194 28.2071 93.4194 28.2071 93.4194 28.0985C93.4194 27.8814 93.3108 27.5556 93.0937 27.3385C92.8765 26.9042 92.4423 26.5785 91.7908 26.1442C91.5737 26.0356 91.4651 25.927 91.2479 25.8184C90.7051 25.4927 90.0536 25.3841 89.5107 25.2756C89.185 25.167 88.8593 25.167 88.6422 25.167C88.5336 25.167 88.425 25.167 88.425 25.167C88.3164 25.167 88.3164 25.167 88.3164 25.167C88.3164 25.167 88.425 25.2756 88.5336 25.3841C88.6421 25.2756 88.7507 25.3841 88.7507 25.4927Z" fill="#245D51"/>
<path d="M54.6598 83.0742L53.8998 80.6855L53.1398 83.0742H50.6426L52.5969 84.4857L51.8369 86.7657L53.8998 85.3543L55.8542 86.7657L55.0941 84.4857L57.0485 83.0742H54.6598Z" fill="#245D51"/>
<path d="M53.8957 7.27539C34.5694 7.27539 18.9346 22.9102 18.9346 42.2365C18.9346 61.5628 34.5694 77.1976 53.8957 77.1976C73.222 77.1976 88.8568 61.5628 88.8568 42.2365C88.8568 22.9102 73.222 7.27539 53.8957 7.27539ZM53.8957 75.3518C35.6551 75.3518 20.8889 60.4771 20.8889 42.3451C20.8889 24.2131 35.7637 9.33831 53.8957 9.33831C72.1362 9.33831 86.9024 24.2131 86.9024 42.3451C86.9024 60.4771 72.1362 75.3518 53.8957 75.3518Z" fill="white"/>
<path d="M53.8948 10.2058C36.1971 10.2058 21.8652 24.5377 21.8652 42.2354C21.8652 59.9331 36.1971 74.265 53.8948 74.265C71.5925 74.265 85.9244 59.9331 85.9244 42.2354C85.9244 24.5377 71.484 10.2058 53.8948 10.2058ZM55.7406 47.8813C58.3464 46.3612 60.5179 44.2983 62.1465 41.9097C62.2551 41.9097 62.2551 41.9097 62.3637 41.9097C62.6894 41.9097 63.0151 41.8011 63.2322 41.6925C63.9923 42.2354 64.7523 42.8868 65.4037 43.5383C62.7979 45.9269 59.5407 47.447 55.7406 47.8813ZM66.1638 42.6697C65.5123 42.0182 64.7523 41.3668 63.8837 40.7153C63.8837 40.6068 63.8837 40.4982 63.8837 40.3896C63.8837 39.9553 63.6665 39.6296 63.4494 39.3039C64.2094 37.5667 64.6437 35.7209 64.8609 33.8751C65.2952 33.7666 65.6209 33.4408 65.8381 33.0065H70.1811C70.0725 36.6981 68.5524 40.0639 66.1638 42.6697ZM70.1811 31.8122H65.8381C65.6209 31.3779 65.2952 31.0522 64.8609 30.9436C64.6437 28.9893 64.2094 27.1435 63.4494 25.4063C63.6665 25.1891 63.7751 24.8634 63.7751 24.5377C63.7751 24.4291 63.7751 24.3205 63.7751 24.3205C64.6437 23.6691 65.5123 23.0176 66.2724 22.2576C68.5524 24.8634 70.0725 28.2292 70.1811 31.8122ZM65.4037 21.389C64.7523 22.149 63.8837 22.8005 63.1237 23.3434C62.9065 23.1262 62.5808 23.0176 62.1465 23.0176C60.5179 20.5204 58.3464 18.4575 55.7406 16.9375C59.4321 17.3718 62.7979 19.0004 65.4037 21.389ZM54.4377 17.5889C57.1521 19.0004 59.4321 21.0633 61.0607 23.4519C60.735 23.7777 60.5179 24.1034 60.5179 24.5377C60.5179 24.6463 60.5179 24.6463 60.5179 24.7548C58.8892 25.5149 57.1521 25.9492 55.3063 26.1663C55.0891 25.8406 54.7634 25.5149 54.3291 25.4063V17.5889H54.4377ZM54.4377 28.2292C54.872 28.1207 55.3063 27.6864 55.4149 27.2521C57.3692 27.0349 59.3235 26.6006 61.0607 25.732C61.3865 25.9492 61.7122 26.0577 62.0379 26.0577C62.1465 26.0577 62.2551 26.0577 62.3637 26.0577C63.0151 27.5778 63.4494 29.315 63.6666 31.0522C63.3408 31.1608 63.0151 31.4865 62.7979 31.9208H55.3063C55.0891 31.4865 54.7634 31.1608 54.3291 31.0522V28.2292H54.4377ZM54.4377 33.8751C54.872 33.7666 55.1977 33.4408 55.4149 33.0065H62.9065C63.0151 33.3323 63.3408 33.658 63.7751 33.8751C63.6665 35.6123 63.2323 37.3495 62.4722 38.8696H62.3637C61.9294 38.8696 61.6036 38.9782 61.3865 39.1953C59.5407 38.3267 57.5864 37.7838 55.5234 37.5667C55.4149 37.1324 54.9805 36.8067 54.5462 36.5895V33.8751H54.4377ZM54.4377 39.521C54.872 39.4124 55.1977 39.0867 55.4149 38.761C57.2606 38.9781 59.1064 39.4125 60.8436 40.281V40.3896C60.8436 40.7153 60.9522 41.0411 61.1693 41.3668C59.5407 43.864 57.2606 45.9269 54.5462 47.3384V39.521H54.4377ZM44.7745 33.0065H52.3747C52.4833 33.3323 52.8091 33.658 53.1348 33.8751V36.8067C52.7005 37.0238 52.4834 37.241 52.2662 37.6753C50.0947 37.8924 48.0318 38.4353 46.186 39.3039C45.8603 39.0867 45.5346 38.9781 45.2088 38.9781H45.1003C44.4488 37.3495 44.0145 35.7209 43.7973 33.9837C44.3402 33.658 44.6659 33.3323 44.7745 33.0065ZM44.0145 31.0522C44.1231 29.315 44.5574 27.5778 45.3174 26.0577C45.426 26.0577 45.5346 26.0577 45.6431 26.0577C45.9689 26.0577 46.2946 25.9492 46.6203 25.732C48.4661 26.6006 50.4204 27.0349 52.4833 27.2521C52.5919 27.6864 52.9177 27.9035 53.3519 28.1207V31.0522C53.0262 31.2693 52.7005 31.4865 52.5919 31.8122H44.9917C44.6659 31.4865 44.3402 31.1608 44.0145 31.0522ZM46.946 40.1725C48.6832 39.4124 50.529 38.8696 52.4833 38.761C52.5919 39.0867 52.9176 39.4124 53.2434 39.521V47.3384C50.529 45.9269 48.1403 43.864 46.6203 41.3668C46.8374 41.1496 46.946 40.8239 46.946 40.3896C46.946 40.281 46.946 40.281 46.946 40.1725ZM45.3174 41.9097C45.426 41.9097 45.426 41.9097 45.5345 41.9097C47.1632 44.4069 49.3347 46.4698 51.9405 47.8813C48.2489 47.447 44.8831 45.8184 42.2773 43.4297C42.9287 42.7783 43.6888 42.1268 44.4488 41.5839C44.6659 41.8011 44.9917 41.9097 45.3174 41.9097ZM53.2434 25.4063C52.9176 25.5149 52.5919 25.8406 52.4833 26.1663C50.6376 26.0577 48.7918 25.5149 47.1632 24.8634C47.1632 24.7548 47.1632 24.7548 47.1632 24.6463C47.1632 24.212 46.946 23.7777 46.6203 23.5605C48.2489 21.1719 50.529 19.1089 53.2434 17.6975V25.4063ZM52.049 16.9375C49.4432 18.4575 47.1632 20.5204 45.6431 23.0176C45.3174 23.0176 44.9917 23.1262 44.666 23.3434C43.7974 22.8005 43.0373 22.149 42.3859 21.389C44.8831 19.0004 48.2489 17.3718 52.049 16.9375ZM41.5173 22.2576C42.2773 23.0176 43.1459 23.7777 44.0145 24.3205C44.0145 24.4291 44.0145 24.4291 44.0145 24.5377C44.0145 24.8634 44.1231 25.1891 44.3402 25.4063C43.5802 27.1435 43.0373 28.9893 42.9288 30.9436C42.4945 31.0522 42.1687 31.3779 41.9516 31.8122H37.6086C37.7172 28.2292 39.1286 24.8634 41.5173 22.2576ZM41.843 33.0065C42.0602 33.4408 42.3859 33.7666 42.8202 33.8751C42.9287 35.8295 43.4716 37.6753 44.2316 39.3039C44.0145 39.6296 43.7973 39.9553 43.7973 40.3896C43.7973 40.4982 43.7973 40.6068 43.7973 40.7153C43.0373 41.2582 42.1687 41.9097 41.5173 42.6697C39.1286 40.0639 37.7172 36.6981 37.5 33.0065H41.843ZM75.5012 59.4988C74.6326 59.2817 73.764 59.0645 72.7868 58.8474C71.9182 58.6302 70.9411 58.5216 70.0725 58.4131C69.2039 58.3045 68.2267 58.1959 67.3581 58.1959C66.4895 58.1959 65.5123 58.1959 64.6437 58.1959C62.798 58.3045 60.9522 58.6302 59.215 59.1731C58.3464 59.3902 57.4778 59.716 56.6092 60.0417C55.7406 60.3674 54.872 60.8017 54.112 61.3446C53.2434 60.8017 52.4833 60.476 51.6147 60.0417C50.7461 59.716 49.8776 59.3902 49.009 59.1731C47.1632 58.6302 45.426 58.4131 43.5802 58.1959C42.7116 58.0873 41.7344 58.0873 40.8658 58.1959C39.9972 58.1959 39.0201 58.3045 38.1515 58.4131C37.2829 58.5216 36.3057 58.6302 35.4371 58.8474C34.5685 59.0645 33.5913 59.2817 32.7227 59.4988L30.7684 60.0417L31.637 58.3045C31.637 58.1959 31.7455 58.0873 31.8541 57.9788L32.2884 57.8702L33.8085 57.5445H33.917L35.1114 57.3273C35.5456 57.2187 35.98 57.1102 36.4143 57.1102L37.7171 57.0016C38.1514 56.893 38.5858 56.893 39.0201 56.893C39.4544 56.893 39.8887 56.893 40.323 56.7844C40.7573 56.7844 41.1915 56.7844 41.6258 56.7844H42.2773L42.9288 56.893C43.3631 57.0016 43.7973 57.0016 44.2316 57.0016C44.6659 57.1102 45.1002 57.2187 45.5345 57.2187C45.9688 57.3273 46.4032 57.4359 46.8375 57.5445C47.2718 57.653 47.706 57.8702 48.1403 57.9788C48.5746 58.0873 49.0089 58.3045 49.4432 58.4131C49.8775 58.5216 50.3118 58.8474 50.7461 58.9559C51.1804 59.1731 51.6147 59.3902 52.049 59.6074C52.9176 60.0417 53.7862 60.5845 54.6548 61.236C54.0034 60.476 53.2434 59.8245 52.5919 59.1731C52.1576 58.8474 51.8319 58.5216 51.3976 58.3045C50.9633 58.0873 50.6376 57.7616 50.2033 57.5445C49.769 57.3273 49.3347 57.0016 48.9004 56.893C48.4661 56.6759 48.0318 56.4587 47.5975 56.2416C47.1632 56.0244 46.7289 55.9158 46.2946 55.6987L44.8831 55.2644C44.4488 55.1558 43.9059 55.0472 43.4716 55.0472L42.8202 54.9387H42.0601C41.6258 54.9387 41.083 54.8301 40.6487 54.8301H39.2372C38.8029 54.8301 38.26 54.8301 37.8257 54.9387L36.4143 55.1558C36.3057 55.1558 36.3057 55.1558 36.1971 55.1558C35.8714 55.2644 35.5457 55.2644 35.2199 55.373H35.1114H35.0028L33.5913 55.6987L33.2656 55.8073L31.637 56.133L32.2884 55.0472L32.6141 54.5044C32.8313 54.0701 33.157 53.6358 33.3741 53.2015C33.5913 52.7672 33.917 52.3329 34.1342 51.8986C34.8942 50.7042 35.5457 49.4013 36.3057 48.207C37.1743 46.7955 38.0429 45.4926 38.9115 44.0812C39.3458 43.3211 39.7801 42.6697 40.323 42.0182C40.1058 42.6697 39.7801 43.3211 39.5629 43.9726C38.9115 45.3841 38.3686 46.9041 37.7171 48.3156C37.6086 48.4242 37.6086 48.6413 37.5 48.7499C37.0657 49.6185 36.6314 50.4871 36.1971 51.4643C35.8714 52.2243 35.4371 52.9843 35.1114 53.7443C35.4371 53.6358 35.8714 53.5272 36.1971 53.5272L37.0657 53.4186L37.6086 53.31C38.1515 53.2015 38.5858 53.2015 39.1286 53.2015H40.6487C41.1915 53.2015 41.7344 53.31 42.1687 53.31L42.9288 53.4186L43.6888 53.6358C44.2316 53.7443 44.666 53.8529 45.2088 53.9615L46.6203 54.5044C47.0546 54.7215 47.5975 54.9387 48.0318 55.1558C48.4661 55.373 48.9004 55.6987 49.3347 55.9158C49.769 56.133 50.2033 56.5673 50.529 56.7844C50.9633 57.1102 51.289 57.4359 51.7233 57.7616C52.0491 58.0873 52.3748 58.5216 52.8091 58.8474C53.4605 59.6074 54.0034 60.476 54.5462 61.3446C54.9805 60.476 55.632 59.6074 56.2835 58.8474C56.6092 58.5216 56.9349 58.0873 57.3692 57.7616C57.6949 57.4359 58.1292 57.0016 58.5635 56.7844C58.9978 56.4587 59.3236 56.133 59.7579 55.9158C60.1922 55.6987 60.6264 55.373 61.0607 55.1558C61.495 54.9387 62.0379 54.7215 62.4722 54.5044L63.8837 53.9615C64.4266 53.7443 64.8609 53.7443 65.4037 53.6358L66.1638 53.4186L66.9238 53.31C67.4667 53.31 67.901 53.2015 68.4439 53.2015H69.9639C70.5068 53.2015 70.9411 53.2015 71.4839 53.31L72.0268 53.4186L72.8954 53.5272C73.3297 53.6358 73.6555 53.6358 73.9812 53.7443C73.6555 52.9843 73.2212 52.2243 72.8954 51.4643C72.4611 50.5957 72.0268 49.7271 71.5925 48.7499C71.4839 48.6413 71.4839 48.4242 71.3754 48.3156C70.7239 46.9041 70.0725 45.3841 69.5296 43.9726C69.2039 43.3211 68.9867 42.6697 68.7696 42.0182C69.2039 42.6697 69.7468 43.4297 70.1811 44.0812C71.0497 45.3841 71.9182 46.7955 72.7868 48.207C73.5469 49.4013 74.1983 50.7042 74.9583 51.8986C75.1755 52.3329 75.5012 52.7672 75.7183 53.2015C75.9355 53.6358 76.2612 54.0701 76.4784 54.5044L76.8041 55.0472L77.4556 56.133L75.8269 55.8073L75.5012 55.6987L74.0897 55.373H73.9812H73.8726C73.5469 55.2644 73.2212 55.2644 72.8954 55.1558C72.7869 55.1558 72.7868 55.1558 72.6783 55.1558L71.2668 54.9387C70.8325 54.8301 70.2896 54.8301 69.8553 54.8301H68.4439C68.0096 54.8301 67.4667 54.9387 67.0324 54.9387H66.2724L65.6209 55.0472C65.1866 55.1558 64.6437 55.1558 64.2094 55.2644L62.7979 55.6987C62.3636 55.8073 61.9294 56.0244 61.4951 56.2416C61.0608 56.3501 60.6265 56.6759 60.1922 56.893C59.7579 57.1102 59.3235 57.3273 58.8892 57.5445C58.4549 57.7616 58.1292 58.0873 57.6949 58.3045C57.2606 58.6302 56.9349 58.8474 56.5006 59.1731C55.7406 59.8245 54.9806 60.476 54.4377 61.236C55.3063 60.5845 56.1749 60.1502 57.0435 59.6074C57.4778 59.3902 57.9121 59.1731 58.3464 58.9559C58.7807 58.7388 59.215 58.5216 59.6493 58.4131C60.0836 58.3045 60.5179 58.0873 60.9522 57.9788C61.3865 57.8702 61.8208 57.653 62.2551 57.5445C62.6894 57.4359 63.1237 57.3273 63.558 57.2187C63.9923 57.1102 64.4266 57.1102 64.8609 57.0016C65.2952 56.893 65.7295 56.893 66.1638 56.893L66.8152 56.7844H67.4667C67.901 56.7844 68.3353 56.7844 68.7696 56.7844C69.2039 56.7844 69.6382 56.893 70.0725 56.893C70.5068 56.893 70.9411 56.893 71.3754 57.0016L72.6783 57.1102C73.1126 57.2187 73.5469 57.3273 73.9812 57.3273L75.1755 57.5445H75.2841L76.8041 57.8702L77.2384 57.9788C77.2384 58.0873 77.347 58.1959 77.4556 58.3045L78.3242 60.0417L75.5012 59.4988Z" fill="white"/>
<path d="M7.53551 64.9432C7.42694 64.9432 7.31835 64.9432 7.31835 64.8347C7.20977 64.8347 7.2098 64.7261 7.2098 64.6175C7.2098 64.5089 7.2098 64.4004 7.2098 64.4004C7.2098 64.2918 7.2098 64.1832 7.2098 64.0746C7.2098 63.9661 7.2098 63.7489 7.2098 63.6403C7.2098 63.5318 7.10122 63.3146 7.10122 63.0975C6.99265 62.7717 6.7755 62.5546 6.55835 62.446C6.3412 62.3374 6.12404 62.3374 5.90689 62.446C5.79832 62.5546 5.68975 62.5546 5.58118 62.7717C5.58118 62.8803 5.4726 63.0975 5.4726 63.206C5.4726 63.4232 5.4726 63.5318 5.4726 63.7489C5.4726 63.9661 5.4726 64.1832 5.58118 64.4004C5.58118 64.6175 5.58118 64.8347 5.58118 65.0518C5.58118 65.269 5.4726 65.4861 5.4726 65.7033C5.36402 65.9204 5.25543 66.1375 5.14685 66.2461C4.9297 66.4633 4.71258 66.5719 4.49543 66.6804C4.16971 66.789 3.84396 66.8976 3.51823 66.8976C3.19251 66.8976 2.86679 66.8976 2.54106 66.789C2.21534 66.6804 1.9982 66.4633 1.67248 66.2461C1.45533 66.029 1.23817 65.7032 1.02102 65.2689C0.912449 65.0518 0.803861 64.8347 0.803861 64.6175C0.695286 64.4004 0.695313 64.0746 0.695313 63.8575C0.695313 63.6403 0.695313 63.3146 0.695313 63.0975C0.695313 62.8803 0.803861 62.6632 0.803861 62.446L1.78106 62.5546C1.88964 62.5546 1.88962 62.5546 1.99819 62.6632C2.10677 62.6632 2.10677 62.7717 2.10677 62.8803C2.10677 62.9889 2.21535 63.0975 2.10677 63.206C2.10677 63.3146 2.10677 63.4232 1.99819 63.6403C1.99819 63.7489 1.99819 63.9661 1.99819 64.1832C1.99819 64.4004 2.10677 64.6175 2.10677 64.8347C2.21535 65.1604 2.4325 65.3775 2.64965 65.4861C2.8668 65.5947 3.08396 65.5947 3.40968 65.4861C3.62683 65.3775 3.73539 65.269 3.73539 65.1604C3.84397 65.0518 3.84398 64.8347 3.84398 64.7261C3.84398 64.5089 3.84398 64.4004 3.84398 64.1832C3.84398 63.9661 3.73539 63.7489 3.73539 63.5318C3.73539 63.3146 3.73539 63.0975 3.73539 62.8803C3.73539 62.6632 3.84398 62.446 3.84398 62.2289C3.95255 62.0117 4.06112 61.7946 4.27827 61.5774C4.49542 61.3603 4.71258 61.2517 5.03831 61.0345C5.25546 60.926 5.58117 60.8174 5.90689 60.8174C6.23261 60.8174 6.44975 60.8174 6.77548 61.0345C7.1012 61.1431 7.31836 61.3603 7.53551 61.5774C7.75266 61.7946 7.96982 62.1203 8.18697 62.5546C8.29554 62.7717 8.4041 62.9889 8.4041 63.206C8.51267 63.4232 8.51268 63.6403 8.51268 63.8575C8.51268 64.0746 8.51268 64.2918 8.51268 64.5089C8.51268 64.7261 8.4041 64.9432 8.4041 65.0518L7.53551 64.9432Z" fill="white"/>
<path d="M13.5089 74.2789L12.3146 72.5418L7.21158 76.1247L6.23438 74.7132L11.3374 71.1303L10.1431 69.3931L11.3374 68.6331L14.8118 73.6275L13.5089 74.2789Z" fill="white"/>
<path d="M16.76 86.6445L15.7828 85.6674C15.6742 85.5588 15.5657 85.4502 15.5657 85.3416C15.5657 85.233 15.5657 85.1245 15.5657 85.0159L16.2171 83.713L14.1542 81.6501L12.8513 82.3015C12.7427 82.3015 12.6341 82.4101 12.5256 82.3015C12.417 82.3015 12.3084 82.193 12.1998 82.0844L11.2227 81.1072L18.7143 77.6328L20.0172 78.9357L16.76 86.6445ZM16.76 82.5187L17.7371 80.4558C17.7371 80.3472 17.8457 80.13 17.9543 80.0215C18.0629 79.8043 18.1714 79.6957 18.28 79.4786C18.0629 79.5872 17.9543 79.6957 17.7371 79.8043C17.52 79.9129 17.4114 80.0215 17.3029 80.0215L15.3485 80.9986L16.76 82.5187Z" fill="white"/>
<path d="M28.7111 87.2857L26.8654 86.0914L23.4996 91.4116L21.9795 90.4344L25.3453 85.1142L23.4996 83.9199L24.2596 82.7256L29.3626 85.9828L28.7111 87.2857Z" fill="white"/>
<path d="M34.6745 90.0217L34.0231 91.6504L36.3031 92.519L35.8688 93.7133L33.5888 92.8447L32.9373 94.5819L35.8688 95.7762L35.326 97.0791L30.6572 95.2333L33.4802 88.0674L38.1489 89.9132L37.606 91.2161L34.6745 90.0217Z" fill="white"/>
<path d="M53.7893 98.0457H53.8979C53.8979 98.0457 54.0064 98.0457 54.0064 98.1542L54.6579 98.9143C54.3321 99.3486 53.8978 99.5657 53.4635 99.7829C53.0292 100 52.3778 100 51.8349 100C51.292 100 50.7492 99.8914 50.3149 99.6743C49.8806 99.4571 49.4463 99.1314 49.1205 98.8057C48.7948 98.48 48.5777 98.0457 48.4691 97.5028C48.3605 96.9599 48.252 96.5256 48.252 95.8742C48.252 95.3313 48.3605 94.7884 48.5777 94.3541C48.7948 93.9198 49.1206 93.4855 49.4463 93.1598C49.772 92.8341 50.2063 92.6169 50.7492 92.3998C51.292 92.1826 51.7264 92.1826 52.2692 92.1826C52.595 92.1826 52.8121 92.1826 53.0292 92.2912C53.2464 92.3998 53.4635 92.3998 53.6807 92.5083C53.8978 92.6169 54.115 92.7255 54.3322 92.8341C54.5493 92.9426 54.6579 93.1598 54.7664 93.2684L54.115 94.0284L54.0064 94.137C54.0064 94.137 53.8979 94.2455 53.7893 94.137C53.6807 94.137 53.6807 94.137 53.5721 94.137C53.4635 94.137 53.4636 94.0284 53.355 94.0284C53.2464 94.0284 53.2464 93.9198 53.1378 93.9198C53.0292 93.9198 53.0292 93.8112 52.9207 93.8112C52.8121 93.8112 52.7035 93.7027 52.5949 93.7027C52.4864 93.7027 52.2692 93.5941 52.1607 93.5941C51.8349 93.5941 51.6178 93.5941 51.292 93.7027C51.0749 93.8112 50.8578 93.9198 50.6406 94.137C50.4235 94.3541 50.3149 94.5713 50.2063 94.897C50.0977 95.2227 49.9892 95.5484 49.9892 95.9827C49.9892 96.417 49.9892 96.7428 50.0977 97.0685C50.2063 97.3942 50.3149 97.6114 50.532 97.8285C50.7492 98.0457 50.9663 98.2628 51.1835 98.3714C51.4006 98.48 51.7263 98.5885 51.9435 98.5885C52.0521 98.5885 52.2692 98.5885 52.3778 98.5885C52.4864 98.5885 52.595 98.5885 52.7035 98.48C52.8121 98.48 52.9207 98.3714 53.0292 98.3714C53.1378 98.2628 53.2464 98.2628 53.355 98.1542L53.4635 98.0457C53.6807 98.0457 53.6807 98.0457 53.7893 98.0457Z" fill="white"/>
<path d="M67.2512 94.5604C67.3598 95.1032 67.3598 95.6461 67.2512 96.189C67.1426 96.7319 66.9255 97.1662 66.7083 97.6005C66.3826 98.0348 66.0569 98.3605 65.6226 98.6862C65.1883 99.0119 64.6454 99.1205 64.1025 99.2291C63.5597 99.3377 62.9082 99.3377 62.4739 99.2291C61.931 99.1205 61.4967 98.9034 61.0624 98.5776C60.6281 98.2519 60.3024 97.9262 60.0852 97.4919C59.8681 97.0576 59.6509 96.5147 59.5424 95.9718C59.4338 95.429 59.4338 94.8861 59.5424 94.3432C59.6509 93.8003 59.8681 93.366 60.0852 92.9317C60.411 92.4974 60.7367 92.1717 61.171 91.846C61.6053 91.5203 62.1482 91.4117 62.691 91.3031C63.2339 91.1945 63.8854 91.1945 64.3197 91.3031C64.8625 91.4117 65.2968 91.6288 65.7311 91.9546C66.1654 92.2803 66.4912 92.606 66.7083 93.0403C66.9255 93.5832 67.1426 94.0175 67.2512 94.5604ZM65.4054 94.8861C65.2968 94.5604 65.1883 94.2346 65.0797 93.9089C64.9711 93.5832 64.754 93.366 64.5368 93.2575C64.3197 93.0403 64.1025 92.9317 63.7768 92.9317C63.4511 92.8232 63.2339 92.8232 62.7996 92.9317C62.4739 93.0403 62.1482 93.1489 61.931 93.2575C61.7139 93.366 61.4967 93.5832 61.3882 93.8003C61.2796 94.0175 61.171 94.3432 61.0624 94.6689C61.0624 94.9947 61.0624 95.3204 61.0624 95.7547C61.171 96.0804 61.2796 96.5147 61.3882 96.7319C61.4967 97.0576 61.7139 97.2747 61.931 97.3833C62.1482 97.6005 62.3653 97.709 62.691 97.709C63.0168 97.8176 63.2339 97.8176 63.6682 97.709C63.994 97.6005 64.3197 97.4919 64.5368 97.3833C64.754 97.2747 64.9711 97.0576 65.0797 96.8404C65.1883 96.6233 65.2968 96.2976 65.4054 95.9718C65.514 95.6461 65.514 95.3204 65.4054 94.8861Z" fill="white"/>
<path d="M77.5676 93.3642L78.1105 94.6671L73.7675 96.4043L70.8359 89.2384L72.4646 88.5869L74.8532 94.3414L77.5676 93.3642Z" fill="white"/>
<path d="M86.4659 88.1683L87.2259 89.3626L83.3172 91.8598L79.1914 85.3453L80.7114 84.3682L84.0773 89.6883L86.4659 88.1683Z" fill="white"/>
<path d="M88.8602 79.9094L90.0545 81.2123L91.7917 79.5837L92.6603 80.5609L90.9231 82.1895L92.226 83.4924L94.5061 81.3209L95.4832 82.2981L91.9003 85.6639L86.5801 80.1266L90.1631 76.7607L91.1402 77.7379L88.8602 79.9094Z" fill="white"/>
<path d="M98.3089 72.4289L99.829 70.1488L102.543 71.9946C102.543 72.5374 102.435 72.9717 102.326 73.406C102.218 73.8403 102 74.2746 101.675 74.7089C101.349 75.2518 100.915 75.6861 100.48 76.0118C100.046 76.3375 99.5032 76.5547 99.0689 76.6633C98.5261 76.7718 98.0918 76.7718 97.5489 76.6633C97.006 76.5547 96.5717 76.3375 96.1374 76.0118C95.7031 75.6861 95.2688 75.2518 95.0517 74.9261C94.726 74.4918 94.6174 74.0575 94.5088 73.5146C94.4002 72.9717 94.4002 72.5374 94.6174 71.9946C94.726 71.4517 94.9431 70.9088 95.3774 70.4745C95.5946 70.2574 95.7031 69.9316 95.9203 69.8231C96.1374 69.6059 96.3546 69.4973 96.5717 69.2802C96.7889 69.1716 97.006 69.063 97.2232 68.9545C97.4403 68.8459 97.6575 68.8459 97.8746 68.7373L98.2004 69.6059C98.3089 69.7145 98.3089 69.823 98.2004 70.0402C98.2004 70.1488 98.0918 70.2574 97.8746 70.3659C97.7661 70.4745 97.5489 70.4745 97.4403 70.5831C97.3317 70.6916 97.2232 70.6917 97.1146 70.8002C97.006 70.9088 96.8975 71.0174 96.7889 71.1259C96.6803 71.2345 96.5717 71.3431 96.4631 71.5602C96.246 71.886 96.1374 72.1031 96.1374 72.4289C96.0289 72.7546 96.1374 72.9717 96.1374 73.2974C96.246 73.6232 96.3546 73.8403 96.5717 74.0575C96.7889 74.2746 97.006 74.6003 97.3318 74.7089C97.6575 74.9261 97.9832 75.1432 98.3089 75.1432C98.6347 75.2518 98.9604 75.2518 99.2861 75.2518C99.6118 75.2518 99.829 75.1432 100.155 74.9261C100.372 74.7089 100.589 74.4918 100.806 74.2746C100.915 74.0575 101.023 73.9489 101.132 73.7317C101.24 73.5146 101.24 73.406 101.24 73.1889L100.263 72.5374L99.829 73.1889C99.7204 73.2974 99.7204 73.2974 99.6118 73.406C99.5032 73.406 99.3947 73.406 99.3947 73.406L98.3089 72.4289Z" fill="white"/>
<path d="M101.016 62.6502L102.645 63.3016L103.622 61.0216L104.816 61.5644L103.839 63.8445L105.576 64.6045L106.77 61.673L108.073 62.2159L106.119 66.776L99.0615 63.7359L101.016 59.1758L102.319 59.7187L101.016 62.6502Z" fill="white"/>
<path d="M45.4248 0.103271H46.7277V0.537571H45.9677V2.05762H46.7277V2.49192H45.9677V4.12054H46.7277V4.55484H45.4248V0.103271Z" fill="white"/>
<path d="M47.2744 1.41147C47.2744 1.3029 47.2744 1.19432 47.2744 1.08575C47.2744 0.760024 47.383 0.542873 47.4915 0.325724C47.6001 0.108574 47.8173 0 48.143 0C48.5773 0 48.7945 0.217149 48.903 0.651448C48.903 0.868598 48.903 1.08575 48.903 1.3029V1.52005H48.3602V1.19432C48.3602 0.868598 48.3602 0.760023 48.3602 0.651448C48.3602 0.542874 48.2516 0.542874 48.2516 0.434299H48.143C48.0344 0.434299 47.9259 0.434299 47.9259 0.542874C47.8173 0.651449 47.8173 0.760024 47.8173 0.977173C47.8173 1.19432 47.8173 1.3029 47.9259 1.41147C47.9259 1.52005 48.0344 1.52005 48.143 1.62862C48.2516 1.7372 48.2516 1.7372 48.2516 1.7372L48.5773 2.06292C48.903 2.38865 49.1202 2.82295 49.1202 3.36582C49.1202 3.69154 49.0116 4.01727 48.903 4.23442C48.7945 4.45157 48.5773 4.56014 48.2516 4.56014C47.8173 4.56014 47.6001 4.34299 47.4915 4.01727C47.383 3.80012 47.383 3.58297 47.383 3.25725V2.82295H47.9259V3.25725C47.9259 3.58297 47.9258 3.80012 48.0344 3.90869C48.0344 4.01727 48.143 4.12584 48.2516 4.12584C48.3602 4.12584 48.4687 4.12584 48.4687 4.01727C48.4687 3.90869 48.5773 3.90869 48.5773 3.80012C48.5773 3.69155 48.5773 3.58297 48.5773 3.36582C48.5773 3.0401 48.4687 2.82295 48.143 2.49722L47.8173 2.1715C47.4916 1.95435 47.383 1.62862 47.2744 1.41147Z" fill="white"/>
<path d="M49.2285 0.103271H50.64V0.537572H50.2057V4.44627H49.6628V0.537572H49.2285V0.103271Z" fill="white"/>
<path d="M51.0781 0.103271H51.9467C52.2724 0.103271 52.4896 0.211847 52.5982 0.428996C52.7067 0.646146 52.8153 0.971871 52.8153 1.2976V3.25194C52.8153 3.68624 52.7067 4.01197 52.5982 4.22912C52.4896 4.44627 52.2724 4.55484 51.9467 4.55484H51.1867V0.103271H51.0781ZM52.2725 1.2976C52.2725 0.971871 52.2724 0.863296 52.1639 0.754721C52.0553 0.646146 51.9467 0.537571 51.8381 0.537571H51.621V4.12054H51.8381C51.9467 4.12054 52.0553 4.12054 52.0553 4.01197C52.1639 3.90339 52.2725 3.68624 52.2725 3.25194V1.2976Z" fill="white"/>
<path d="M55.1956 0.103271H55.5213V4.44627H54.9784V0.754721C54.8698 0.863296 54.8698 0.863295 54.7613 0.863295C54.6527 0.863295 54.5441 0.971871 54.4355 0.971871V0.646146C54.5441 0.646146 54.7613 0.537571 54.8698 0.428996C54.9784 0.320421 55.087 0.211846 55.1956 0.103271Z" fill="white"/>
<path d="M56.0674 1.40617C56.0674 1.08044 56.0674 0.863295 56.1759 0.646146C56.1759 0.537571 56.2845 0.428996 56.2845 0.320421C56.3931 0.211846 56.6102 0.103271 56.936 0.103271C57.2617 0.103271 57.3703 0.211846 57.4788 0.320421C57.5874 0.428996 57.696 0.646146 57.696 0.97187C57.696 1.08045 57.696 1.18902 57.696 1.40617V3.14337C57.696 3.68624 57.5874 4.12054 57.4788 4.33769C57.3703 4.44627 57.1531 4.55484 56.936 4.55484C56.7188 4.55484 56.5017 4.44627 56.3931 4.22912C56.2845 4.01197 56.1759 3.79482 56.1759 3.36052V3.25194H56.6103V3.36052C56.6103 3.79482 56.6102 4.01197 56.7188 4.12054C56.8274 4.22912 56.8274 4.22912 56.936 4.22912C57.0445 4.22912 57.1531 4.22912 57.1531 4.12054C57.1531 4.01197 57.1531 3.79482 57.1531 3.57767V2.92622C57.0446 3.03479 56.936 3.03479 56.8274 3.03479C56.5017 3.03479 56.2845 2.92622 56.1759 2.70907C56.0674 2.49192 56.0674 2.16619 56.0674 1.73189V1.40617ZM57.2617 1.2976C57.2617 0.971871 57.2617 0.863296 57.2617 0.754721C57.2617 0.646146 57.1531 0.646146 57.1531 0.537571C57.1531 0.537571 57.0445 0.537571 56.936 0.537571C56.8274 0.537571 56.7188 0.646146 56.7188 0.754721C56.7188 0.863296 56.6103 1.08044 56.6103 1.40617V1.62332C56.6103 1.94904 56.6102 2.16619 56.7188 2.27477C56.7188 2.38334 56.8274 2.49192 57.0445 2.49192C57.1531 2.49192 57.2617 2.49192 57.3703 2.38334V1.2976H57.2617Z" fill="white"/>
<path d="M58.457 1.08575C58.457 0.651449 58.5656 0.434299 58.6742 0.217149C58.7828 -2.10326e-07 58.9999 0 59.3256 0C59.6514 0 59.8685 0.108575 59.9771 0.217149C60.0856 0.434299 60.1942 0.651449 60.1942 1.08575C60.1942 1.62862 60.0857 1.95435 59.8685 2.06292C59.9771 2.1715 60.0857 2.28007 60.0857 2.49722C60.1942 2.71437 60.1942 2.93152 60.1942 3.14867V3.36582C60.1942 3.80012 60.0856 4.01727 59.9771 4.23442C59.8685 4.45157 59.6514 4.45157 59.3256 4.45157C58.9999 4.45157 58.7828 4.34299 58.6742 4.23442C58.5656 4.01727 58.457 3.80012 58.457 3.36582C58.457 3.36582 58.457 3.25724 58.457 3.04009C58.457 2.82295 58.457 2.71437 58.5656 2.49722C58.6742 2.28007 58.6742 2.1715 58.8913 2.06292C58.5656 1.95435 58.457 1.62862 58.457 1.08575ZM59.6514 3.25725C59.6514 2.93152 59.6514 2.71437 59.5428 2.6058C59.4342 2.49722 59.4342 2.38865 59.3256 2.38865C59.2171 2.38865 59.1085 2.49722 59.1085 2.6058C58.9999 2.71437 58.9999 2.93152 58.9999 3.25725V3.47439C58.9999 3.69154 58.9999 3.90869 59.1085 4.01727C59.1085 4.12584 59.2171 4.12584 59.3256 4.12584C59.4342 4.12584 59.5428 4.12584 59.5428 4.01727C59.5428 3.90869 59.6514 3.90869 59.6514 3.80012C59.6514 3.69154 59.6514 3.58297 59.6514 3.47439V3.25725ZM59.4342 1.95435C59.4342 1.95435 59.5428 1.84577 59.5428 1.7372C59.5428 1.62862 59.5428 1.41147 59.5428 1.3029C59.5428 1.08575 59.5428 0.977173 59.5428 0.868598C59.5428 0.760023 59.5428 0.651448 59.4342 0.651448L59.3256 0.542874H59.2171C59.1085 0.542874 59.1085 0.542874 58.9999 0.542874C58.8913 0.651449 58.8913 0.868598 58.8913 1.19432C58.8913 1.62862 58.8913 1.84577 58.9999 1.95435C58.9999 1.95435 59.1085 2.06292 59.2171 2.06292C59.3256 2.06292 59.4342 1.95435 59.4342 1.95435Z" fill="white"/>
<path d="M60.6289 1.19432C60.6289 0.760023 60.7375 0.542873 60.8461 0.325724C60.9546 0.108574 61.1718 0 61.4975 0C61.8232 0 62.0404 0.108574 62.1489 0.325724C62.2575 0.542873 62.3661 0.760023 62.3661 1.19432V3.25725C62.3661 3.69154 62.2575 4.01727 62.1489 4.12584C62.0404 4.34299 61.8232 4.45157 61.4975 4.45157C61.1718 4.45157 60.9546 4.34299 60.8461 4.12584C60.7375 3.90869 60.6289 3.58297 60.6289 3.25725V1.19432ZM61.9318 1.19432C61.9318 0.760023 61.8232 0.542874 61.7147 0.542874H61.6061H61.4975C61.4975 0.542874 61.3889 0.651449 61.3889 0.760024C61.3889 0.868599 61.2804 0.977173 61.2804 1.19432V3.36582C61.2804 3.80012 61.2804 4.01727 61.3889 4.12584C61.3889 4.12584 61.4975 4.23442 61.6061 4.23442C61.7146 4.23442 61.7147 4.23442 61.7147 4.23442H61.8232C61.9318 4.12584 61.9318 3.90869 61.9318 3.47439V1.19432Z" fill="white"/>
</svg>
