<svg width="100" height="100" viewBox="0 0 100 100" fill="none" xmlns="http://www.w3.org/2000/svg">
<path d="M49.9202 10.8887C30.0572 10.8887 14.0098 26.9361 14.0098 46.7991C14.0098 66.662 30.0572 82.7095 49.9202 82.7095C69.7831 82.7095 85.8306 66.662 85.8306 46.7991C85.8306 26.9361 69.7831 10.8887 49.9202 10.8887ZM49.9202 58.47C49.9202 58.47 31.2917 56.8989 19.5085 61.051L22.314 31.7616C22.314 31.7616 23.2118 31.6494 24.7829 31.4249L22.8751 57.46C31.0672 55.44 49.9202 58.47 49.9202 58.47C49.9202 58.47 37.2393 53.9812 25.1195 54.8789L27.4762 31.3127L27.925 27.2728C27.925 27.2728 28.8228 27.1606 30.3939 27.1606L30.0572 31.3127L28.0373 53.1956C27.8128 53.0834 36.2293 52.5223 49.9202 58.47C40.157 52.5223 30.6183 50.9512 30.6183 50.9512L32.4139 31.2005L32.7505 27.2728V26.7117L33.0872 23.4573C33.7605 23.4573 34.3216 23.5695 34.9949 23.6818C35.2194 23.6818 35.3316 23.794 35.556 23.794C35.7805 23.794 35.8927 23.9062 36.1171 23.9062C43.6359 25.3651 48.1247 30.415 49.4713 32.0983V32.4349V33.1082V35.2404C49.5835 35.2404 49.6957 35.1282 49.808 35.1282C49.9202 35.1282 50.0324 35.016 50.2568 35.016V33.1082V32.4349V32.0983C51.6035 30.415 56.0923 25.3651 63.611 23.9062C63.8355 23.9062 63.9477 23.794 64.1721 23.794C64.3966 23.794 64.5088 23.6818 64.7332 23.6818C65.2943 23.5695 65.9677 23.5695 66.641 23.4573L66.9776 26.7117V27.2728L67.3143 31.2005L69.1098 50.9512C69.222 51.0635 59.6833 52.5223 49.9202 58.47C63.611 52.5223 72.0275 53.0834 72.0275 53.0834L70.0076 31.2005L69.6709 27.0484C71.242 27.0484 72.1398 27.1606 72.1398 27.1606L72.5886 31.2005L74.9453 54.7667C62.601 53.9812 49.9202 58.47 49.9202 58.47C49.9202 58.47 68.7732 55.44 76.9652 57.46L75.0575 31.5372C76.6286 31.6494 77.5263 31.8738 77.5263 31.8738L80.3318 61.1633C68.5487 56.8989 49.9202 58.47 49.9202 58.47Z" fill="white"/>
<path d="M49.6982 44.5712L49.9227 56.8032L50.1471 44.459C50.0349 44.459 50.0349 44.5712 49.9227 44.5712C49.8105 44.459 49.8105 44.5712 49.6982 44.5712Z" fill="white"/>
<path d="M32.9676 4.1563C30.4987 5.2785 28.2543 6.4007 26.1222 7.85956C26.6833 8.30844 27.6932 8.19622 30.1621 6.9618C32.8554 5.61516 36.6708 2.92188 36.7831 2.92188C36.7831 2.92188 31.9576 3.03409 28.9277 4.49296C26.3466 5.8396 25.6733 6.84958 25.8977 7.41068C28.1421 6.06404 30.4987 5.05406 32.9676 4.1563Z" fill="#245D51"/>
<path d="M36.3386 91.1454C34.543 91.3699 32.6353 91.4821 30.8398 91.5943C32.5231 91.3699 34.3186 91.1454 36.0019 90.8088C35.7774 90.5843 35.4408 90.4721 35.1041 90.3599C34.6552 90.2477 33.9819 90.1354 33.0842 90.2477C32.8597 90.2477 32.6353 90.2477 32.4109 90.2477C31.2886 90.3599 30.2787 90.6965 29.4931 91.0332C28.7076 91.3699 28.1465 91.7065 28.1465 91.7065C28.1465 91.7065 28.2587 91.7065 28.3709 91.7065C28.3709 91.7065 28.4832 91.7065 28.5954 91.7065C28.8198 91.7065 29.0442 91.8187 29.2687 91.8187C29.4931 91.8187 29.7176 91.931 29.942 91.931C30.3909 92.0432 30.952 92.1554 31.5131 92.1554C31.8497 92.1554 32.1864 92.2676 32.5231 92.2676C32.7475 92.2676 32.8597 92.2676 33.0842 92.2676C33.3086 92.2676 33.4208 92.2676 33.5331 92.2676C33.6453 92.2676 33.8697 92.2676 33.9819 92.2676C34.0941 92.2676 34.3186 92.2676 34.4308 92.2676C35.7775 92.0432 36.3386 91.8187 36.4508 91.4821C36.4508 91.3699 36.563 91.2576 36.4508 91.1454C36.4508 91.2576 36.4508 91.1454 36.3386 91.1454Z" fill="#245D51"/>
<path d="M28.7045 89.9845C30.6122 89.8722 30.9489 89.4234 30.7245 88.8623C28.9289 88.8623 27.1334 88.8623 25.3379 88.75C27.0212 88.75 28.7045 88.6378 30.3878 88.4134C29.8267 87.8523 28.9289 87.5156 27.0212 87.5156C24.889 87.5156 22.7568 88.5256 22.7568 88.5256C22.7568 88.6378 26.4601 90.0967 28.7045 89.9845Z" fill="#245D51"/>
<path d="M25.5694 86.2939C23.8861 86.1817 22.0906 85.9573 20.4073 85.6206C22.0906 85.7328 23.6617 85.8451 25.345 85.8451C24.8961 85.284 23.9983 84.8351 22.2028 84.6106C20.1829 84.3862 17.9385 85.1717 17.9385 85.1717C17.9385 85.1717 21.3051 87.0795 23.4373 87.1917C25.345 87.1917 25.7939 86.855 25.5694 86.2939Z" fill="#245D51"/>
<path d="M20.9602 83.0456C19.2769 82.7089 17.7059 82.3723 16.0225 81.8112C17.5936 82.1478 19.1647 82.3723 20.7358 82.5967C20.3991 82.0356 19.6136 81.4745 17.8181 81.0256C15.9103 80.5767 13.5537 81.1378 13.5537 81.1378C13.5537 81.1378 16.5837 83.27 18.7158 83.6067C20.6236 84.0556 21.0725 83.6067 20.9602 83.0456Z" fill="#245D51"/>
<path d="M16.9255 79.4374C15.3544 78.9886 13.7833 78.4275 12.3245 77.7541C13.7833 78.203 15.3544 78.6519 16.8133 78.9886C16.5888 78.3152 15.8033 77.7541 14.2322 77.193C12.4367 76.5197 10.0801 76.8564 10.0801 76.8564C10.0801 76.8564 12.7734 79.3252 14.7933 79.8863C16.4766 80.3352 17.0377 79.9985 16.9255 79.4374Z" fill="#245D51"/>
<path d="M13.4433 75.5268C11.9845 74.8534 10.5256 74.1801 9.06674 73.2824C10.5256 73.9557 11.9845 74.5168 13.3311 74.9657C13.1067 74.2923 12.5456 73.619 10.9745 72.9457C9.17896 72.1602 6.93457 72.1602 6.93457 72.1602C6.93457 72.1602 9.2912 74.8534 11.1989 75.639C12.8822 76.3123 13.4433 76.0879 13.4433 75.5268Z" fill="#245D51"/>
<path d="M10.5276 71.1376C9.18101 70.352 7.83436 69.4543 6.48772 68.4443C7.83436 69.2298 9.18101 69.9032 10.5276 70.5765C10.4154 69.9032 9.85434 69.1176 8.39548 68.3321C7.83437 67.9954 7.04882 67.6588 6.48772 67.5465C5.36552 67.2099 4.46777 67.0977 4.46777 67.0977C4.46777 67.0977 4.80443 67.5465 5.25331 68.1076C6.03885 69.1176 7.27327 70.4643 8.28325 71.0254C9.85433 71.9231 10.4154 71.6987 10.5276 71.1376Z" fill="#245D51"/>
<path d="M30.9531 85.5284C29.8309 83.9573 27.3621 81.7129 27.3621 81.7129C27.3621 81.7129 27.1376 83.9573 28.1476 85.7528C29.0454 87.3239 30.0554 87.7728 30.7287 87.885C29.8309 86.5384 29.0454 85.1917 28.372 83.8451C29.1576 85.1917 30.1676 86.5384 31.2898 87.885C31.8509 87.6606 31.8509 86.9872 30.9531 85.5284Z" fill="#245D51"/>
<path d="M26.2349 82.9422C25.3372 81.2589 23.3172 78.79 23.3172 78.79C23.3172 78.79 22.7561 81.0344 23.5416 82.83C24.215 84.401 25.0005 85.0744 25.786 85.1866C25.1127 83.7277 24.5516 82.3811 24.1027 80.9222C24.7761 82.3811 25.4494 83.7277 26.3471 85.1866C26.9082 85.0744 27.0205 84.5133 26.2349 82.9422Z" fill="#245D51"/>
<path d="M22.0829 79.8834C21.4096 78.0879 19.7263 75.5068 19.8385 75.5068C19.8385 75.5068 19.0529 77.639 19.5018 79.4345C19.9507 81.1178 20.624 81.7912 21.2974 82.0156C20.8485 80.5567 20.5118 79.0979 20.1752 77.639C20.624 79.0979 21.1851 80.5567 21.7462 82.1278C22.4195 82.0156 22.644 81.4545 22.0829 79.8834Z" fill="#245D51"/>
<path d="M18.3795 76.4438C18.0428 74.6483 16.6962 71.8428 16.6962 71.8428C16.6962 71.8428 15.574 73.8627 15.9107 75.7705C16.1351 77.4538 16.8084 78.2393 17.3695 78.4638C17.1451 77.0049 16.9206 75.4338 16.8084 74.0872C17.0329 75.546 17.3695 77.1171 17.8184 78.6882C18.4917 78.576 18.7162 78.1271 18.3795 76.4438Z" fill="#245D51"/>
<path d="M14.4605 74.7205C15.0216 74.8327 15.3583 74.2716 15.2461 72.7005C15.1338 70.905 14.1239 67.9873 14.1239 67.9873C14.1239 67.9873 12.7772 69.895 12.8895 71.8028C12.8895 73.4861 13.4506 74.2716 14.0117 74.6083C13.8994 73.1494 13.8994 71.5783 14.0117 70.2317C14.1239 71.5783 14.2361 73.1494 14.4605 74.7205Z" fill="#245D51"/>
<path d="M11.5352 70.4794C12.0963 70.5916 12.433 70.1427 12.5452 68.5716C12.6574 67.4494 12.3208 65.8784 12.2085 64.8684C12.0963 64.1951 11.9841 63.8584 11.9841 63.8584C11.9841 63.8584 11.423 64.5317 10.8619 65.5417C10.5252 66.1028 10.3008 66.7761 10.3008 67.4494C10.1886 69.1327 10.5252 69.9183 11.0863 70.3672C11.1986 68.9083 11.423 67.4494 11.6474 65.9906C11.5352 67.4494 11.5352 68.9083 11.5352 70.4794Z" fill="#245D51"/>
<path d="M37.0139 88.8754C36.9016 88.7632 36.9016 88.5388 36.7894 88.4266C36.6772 88.2021 36.4528 87.9777 36.1161 87.641C35.7794 87.3044 35.3306 86.8555 34.8817 86.5188C34.6572 86.2944 34.4328 86.0699 34.2084 85.9577C33.9839 85.7333 33.7595 85.6211 33.535 85.3966C33.3106 85.1722 33.0862 85.06 32.9739 84.9477C32.8617 84.8355 32.7495 84.8355 32.7495 84.7233C32.6373 84.6111 32.5251 84.4989 32.4128 84.4989C32.3006 84.3866 32.1884 84.3866 32.1884 84.2744C32.1884 84.2744 32.1884 84.2744 32.0762 84.2744C32.0762 84.2744 32.0762 84.2744 32.0762 84.3866C32.0762 84.6111 32.0762 85.06 32.3006 85.6211C32.4128 85.8455 32.4128 86.1822 32.5251 86.4066C32.6373 86.7433 32.8617 87.1921 33.0862 87.5288C33.1984 87.7532 33.3106 87.9777 33.535 88.2021C33.9839 88.7632 34.4328 89.0999 34.7695 89.4365C34.8817 89.5488 34.9939 89.661 35.1061 89.661C35.4428 89.8854 35.7794 89.9976 36.1161 89.9976C36.2283 89.9976 36.3405 89.9976 36.4528 89.9976C35.3306 88.7632 34.3206 87.4166 33.4228 86.1822C34.4328 87.4166 35.6672 88.7632 37.0139 89.8854C37.1261 89.7732 37.2383 89.7732 37.3505 89.661C37.4627 89.5488 37.4627 89.4365 37.3505 89.2121C37.1261 89.0999 37.0139 88.9877 37.0139 88.8754Z" fill="#245D51"/>
<path d="M5.92412 66.3063C6.14856 66.5307 6.37301 66.6429 6.59745 66.7552C6.82189 66.8674 6.93411 66.9796 7.15855 66.9796C7.60743 67.0918 7.83187 66.9796 7.94409 66.7552C7.94409 66.7552 8.05632 66.6429 8.05632 66.5307C7.383 66.0818 6.8219 65.633 6.14858 65.0719C5.47526 64.5108 4.91415 64.0619 4.35305 63.5008C5.02637 63.9497 5.58747 64.3985 6.26079 64.8474C6.93411 65.2963 7.49521 65.633 8.16853 66.0818C8.16853 65.8574 8.05631 65.5207 7.94409 65.2963C7.83187 64.9596 7.60743 64.7352 7.15855 64.3985C6.93411 64.1741 6.59745 63.9496 6.26079 63.613C5.92413 63.2763 5.47526 63.0519 5.02638 62.8275C3.79196 62.1541 2.44531 61.9297 2.44531 61.9297C2.44531 61.9297 2.55754 62.1541 2.78198 62.4908C2.8942 62.603 3.0064 62.8274 3.11862 63.0519C3.23084 63.1641 3.23086 63.2763 3.34308 63.3886C3.67974 63.8374 4.01639 64.2863 4.35305 64.8474C4.91415 65.4085 5.36302 65.9696 5.92412 66.3063Z" fill="#245D51"/>
<path d="M4.0223 61.264C5.25672 62.3862 5.93005 62.274 6.15449 61.8251C5.03229 60.8151 3.91009 59.5807 2.78789 58.3463C3.91009 59.3563 5.03228 60.3663 6.2667 61.264C6.2667 60.5907 5.93004 59.8052 4.80784 58.5707C3.46119 57.2241 1.2168 56.5508 1.2168 56.5508C1.2168 56.663 2.56344 59.9174 4.0223 61.264Z" fill="#245D51"/>
<path d="M4.80521 56.8941C3.79523 55.6597 2.78525 54.4253 1.77527 53.0786C2.78525 54.2008 3.79523 55.323 4.91744 56.333C5.02965 55.6597 4.80521 54.8742 3.68301 53.5275C2.44859 52.0687 0.316406 51.1709 0.316406 51.1709C0.316406 51.1709 1.32639 54.6497 2.67303 56.1086C3.90745 57.343 4.58077 57.343 4.80521 56.8941Z" fill="#245D51"/>
<path d="M4.01967 51.8567C3.12191 50.6223 2.22415 49.1634 1.43861 47.8168C2.33637 49.0512 3.23413 50.2856 4.24411 51.4078C4.46855 50.7345 4.24412 49.8367 3.34636 48.4901C2.33638 46.919 0.316406 45.7968 0.316406 45.6846C0.316406 45.6846 0.989733 49.2756 2.11193 50.8467C3.12191 52.1933 3.68301 52.3056 4.01967 51.8567Z" fill="#245D51"/>
<path d="M3.68121 46.666C2.89567 45.3193 2.22236 43.8605 1.54904 42.2894C2.33458 43.636 3.12012 44.9827 3.90566 46.2171C4.1301 45.5438 4.1301 44.7582 3.34456 43.1872C2.4468 41.5039 0.651283 40.1572 0.539062 40.1572C0.539062 40.1572 0.763492 43.7483 1.77347 45.4316C2.78345 47.0027 3.34455 47.1149 3.68121 46.666Z" fill="#245D51"/>
<path d="M4.01637 41.5108C3.34305 40.0519 2.89417 38.5931 2.33307 37.022C2.89417 38.4809 3.56749 39.8275 4.24081 41.1741C4.57747 40.613 4.57748 39.7153 3.90416 38.1442C3.23084 36.3487 1.54753 34.7776 1.54753 34.7776C1.54753 34.7776 1.43532 38.3686 2.22086 40.1642C3.0064 41.7352 3.56749 41.9597 4.01637 41.5108Z" fill="#245D51"/>
<path d="M4.80493 36.4606C4.35605 35.0017 3.90717 33.4306 3.68273 31.7473C4.13161 33.2062 4.5805 34.665 5.1416 36.1239C5.47826 35.5628 5.59048 34.6651 5.1416 33.094C4.91716 32.4207 4.58049 31.7473 4.24383 31.1862C3.68273 30.1762 3.00942 29.5029 3.00942 29.5029C3.00942 29.5029 2.8972 30.064 2.8972 30.7373C2.78498 31.9718 2.78497 33.7673 3.12163 35.0017C3.79495 36.5728 4.35605 36.7972 4.80493 36.4606Z" fill="#245D51"/>
<path d="M8.84322 59.8021C9.2921 58.0066 9.2921 55.0889 9.40432 55.0889C9.40432 55.0889 7.60879 56.4355 7.04769 58.231C6.48659 59.8021 6.71104 60.6999 7.15992 61.261C7.6088 59.8021 8.05768 58.4555 8.61878 57.1088C8.1699 58.5677 7.83324 60.0265 7.49658 61.4854C7.94546 61.5976 8.39434 61.261 8.84322 59.8021Z" fill="#245D51"/>
<path d="M7.61392 55.1C8.28724 53.4167 8.62391 50.3867 8.62391 50.3867C8.62391 50.3867 6.71616 51.5089 5.93062 53.1922C5.2573 54.6511 5.36952 55.6611 5.70618 56.1099C6.26728 54.7633 6.9406 53.4167 7.61392 52.1822C7.05282 53.5289 6.49173 54.9877 6.04285 56.4466C6.60395 56.8955 7.05282 56.5588 7.61392 55.1Z" fill="#245D51"/>
<path d="M7.04743 50.3863C7.83297 48.8152 8.5063 45.8975 8.5063 45.8975C8.5063 45.8975 6.48634 46.7952 5.47636 48.3663C4.69082 49.8252 4.69082 50.7229 4.91526 51.284C5.7008 49.9374 6.37413 48.8152 7.27189 47.5808C6.48635 48.8152 5.81302 50.274 5.25192 51.6207C5.7008 52.0696 6.26189 51.8451 7.04743 50.3863Z" fill="#245D51"/>
<path d="M4.80468 46.2452C5.70244 45.0108 6.60022 43.8886 7.49798 42.8786C6.60022 44.113 5.81468 45.3475 5.02914 46.6941C5.3658 47.143 5.9269 46.9185 6.93688 45.5719C7.94686 44.113 8.84462 41.1953 8.95684 41.1953C8.95684 41.1953 6.82465 41.8686 5.70245 43.3275C4.58025 44.7864 4.46802 45.6841 4.80468 46.2452Z" fill="#245D51"/>
<path d="M5.03017 41.3061C6.04015 40.1839 7.05013 39.1739 8.06011 38.2762C7.05013 39.3984 6.15237 40.5206 5.2546 41.755C5.59126 42.2039 6.15236 42.0916 7.16234 40.8572C8.28454 39.5106 9.51896 36.7051 9.63118 36.7051C9.63118 36.7051 7.38679 37.154 6.15237 38.5006C5.14239 39.735 4.91795 40.6328 5.03017 41.3061Z" fill="#245D51"/>
<path d="M6.04147 36.8091C6.37813 37.258 6.93924 37.258 8.06144 36.1358C8.84698 35.3503 9.74474 34.0036 10.3058 33.2181C10.6425 32.657 10.8669 32.3203 10.8669 32.3203C10.8669 32.3203 9.96918 32.4325 8.9592 32.7692C8.3981 32.9936 7.72477 33.3303 7.16367 33.7792C5.92925 34.9014 5.59259 35.7991 5.70481 36.3602C6.82701 35.3503 7.94921 34.4525 9.07141 33.667C8.17365 34.5647 7.05145 35.6869 6.04147 36.8091Z" fill="#245D51"/>
<path d="M9.4026 66.0946C9.51482 66.0946 9.62704 66.0946 9.73926 65.9824C9.85148 65.8702 10.0759 65.6457 10.1881 65.1969C10.3004 64.9724 10.3004 64.6358 10.4126 64.1869C10.4126 63.9624 10.5248 63.738 10.5248 63.5136C10.5248 63.2891 10.5248 62.9525 10.5248 62.728C10.5248 62.5036 10.5248 62.1669 10.5248 61.9425C10.5248 61.718 10.5248 61.3814 10.5248 61.1569C10.5248 60.147 10.4126 59.4736 10.4126 59.4736C10.4126 59.4736 10.4126 59.4736 10.3004 59.5859C10.1881 59.6981 10.0759 59.8103 9.85147 60.147C9.29037 60.7081 8.61707 61.8303 8.39263 62.9525C8.05597 64.5235 8.39262 65.4213 8.8415 65.8702C9.06594 64.4113 9.51481 62.9525 9.85147 61.6058C9.51481 63.0647 9.29038 64.6358 9.17816 66.0946C9.29038 66.0946 9.4026 66.0946 9.4026 66.0946Z" fill="#245D51"/>
<path d="M8.06435 26.7162C7.95213 25.1451 7.95212 23.4618 7.95212 21.8907C8.06434 23.4618 8.17657 25.0329 8.40101 26.4917C8.84989 26.0429 9.18654 25.1451 9.07432 23.4618C8.9621 21.5541 7.95212 19.4219 7.95212 19.4219C7.95212 19.4219 6.60548 22.7885 6.82992 24.8084C7.05436 26.604 7.50325 26.9406 8.06435 26.7162Z" fill="#245D51"/>
<path d="M10.4163 22.2259C10.5285 20.6549 10.6408 18.9716 10.8652 17.4005C10.753 18.9716 10.753 20.5426 10.8652 22.0015C11.4263 21.5526 11.763 20.7671 11.9874 19.0838C12.0996 17.176 11.3141 14.9316 11.3141 14.9316C11.3141 14.9316 9.63077 18.186 9.51855 20.206C9.51855 21.8893 9.96742 22.3382 10.4163 22.2259Z" fill="#245D51"/>
<path d="M13.4442 17.8356C13.6686 16.2646 14.1175 14.5813 14.5664 13.0102C14.2297 14.5813 14.0053 16.1523 13.8931 17.6112C14.4542 17.2745 15.0153 16.489 15.3519 14.8057C15.6886 12.898 15.1275 10.6536 15.1275 10.6536C15.1275 10.6536 12.9953 13.6835 12.6586 15.7035C12.4342 17.499 12.8831 17.9479 13.4442 17.8356Z" fill="#245D51"/>
<path d="M16.9269 13.9107C17.3757 12.3396 17.9368 10.7685 18.6102 9.19744C18.0491 10.7685 17.7124 12.2274 17.3758 13.7985C18.0491 13.574 18.6102 12.7885 19.1713 11.1052C19.8446 9.19744 19.5079 6.84082 19.5079 6.84082C19.5079 6.84082 16.9269 9.64632 16.3658 11.6663C16.0291 13.4618 16.3658 13.9107 16.9269 13.9107Z" fill="#245D51"/>
<path d="M20.9623 10.327C21.6357 8.86818 22.4212 7.2971 23.319 5.83824C22.5334 7.2971 21.9723 8.75596 21.4112 10.327C22.0845 10.1026 22.7579 9.42928 23.6556 7.8582C24.5534 6.06268 24.6656 3.70605 24.6656 3.70605C24.6656 3.70605 21.6357 6.28712 20.8501 8.19486C20.0646 9.76594 20.4012 10.2148 20.9623 10.327Z" fill="#245D51"/>
<path d="M11.0884 24.5634C9.62954 25.3489 9.18066 26.1344 9.18066 26.8078C10.4151 26.0222 11.7617 25.4611 13.1084 24.9C11.7617 25.5733 10.5273 26.4711 9.29287 27.3689C9.51731 27.93 10.0784 28.0422 11.4251 27.1444C12.9961 26.2467 15.0161 24.0023 15.1283 24.0023C15.0161 24.0023 12.7717 23.6656 11.0884 24.5634Z" fill="#245D51"/>
<path d="M15.6941 20.8886C14.3475 21.4497 12.8886 22.123 11.542 22.9086C11.6542 23.4697 12.2153 23.5819 13.6742 22.9086C15.3575 22.123 17.7141 20.1031 17.7141 20.2153C17.7141 20.2153 15.4697 19.6542 13.7864 20.3275C12.2153 21.0008 11.6542 21.6741 11.542 22.3475C12.8886 21.7864 14.3475 21.2253 15.6941 20.8886Z" fill="#245D51"/>
<path d="M16.9229 16.3964C15.3519 16.8453 14.6785 17.5186 14.4541 18.1919C15.913 17.743 17.3718 17.4064 18.8307 17.0697C17.3718 17.5186 15.913 18.0797 14.4541 18.6408C14.4541 19.2019 15.0152 19.4263 16.5863 18.8652C18.3818 18.3041 20.9629 16.5086 20.9629 16.6208C20.9629 16.6208 18.8307 15.8353 16.9229 16.3964Z" fill="#245D51"/>
<path d="M20.6278 12.7793C18.9445 13.116 18.1589 13.6771 17.9345 14.3504C19.3934 14.0137 20.9644 13.9015 22.4233 13.7893C20.8522 14.0137 19.3933 14.4626 17.8223 14.9115C17.8223 15.4726 18.2711 15.697 19.9544 15.3604C21.75 14.9115 24.6677 13.5649 24.6677 13.5649C24.6677 13.4526 22.6477 12.4427 20.6278 12.7793Z" fill="#245D51"/>
<path d="M21.971 10.7905C23.5421 10.6782 25.1132 10.6782 26.5721 10.6782C25.001 10.7905 23.3177 11.0149 21.7466 11.2393C21.6344 11.8004 22.0832 12.1371 23.8788 12.0249C25.7865 11.8004 28.9287 10.6782 28.9287 10.6782C28.9287 10.6782 27.0209 9.44382 25.001 9.55604C23.0932 9.66826 22.3077 10.2294 21.971 10.7905Z" fill="#245D51"/>
<path d="M4.92065 30.4016C5.03287 30.7383 5.14509 30.9627 5.25731 31.1871C5.36953 31.4116 5.48176 31.5238 5.59398 31.5238C5.81842 31.636 5.93064 31.636 6.15508 31.5238C5.81842 29.9527 5.59397 28.3816 5.48175 26.6983C5.70619 28.2694 6.04284 29.7283 6.49172 31.1871C6.71616 30.9627 6.82839 30.626 6.94061 30.0649C6.94061 29.9527 6.94061 29.8405 6.94061 29.7283C6.94061 29.6161 6.94061 29.3916 6.94061 29.2794C6.94061 28.9427 6.94061 28.6061 6.82839 28.1572C6.82839 28.1572 6.82839 28.1572 6.82839 28.045C6.71617 27.7083 6.71617 27.3717 6.60395 27.035C6.49173 26.6983 6.37951 26.3617 6.26729 26.025C6.04285 25.5761 5.93062 25.2395 5.70618 24.9028C5.48174 24.4539 5.25731 24.2295 5.25731 24.2295C5.25731 24.2295 5.2573 24.3417 5.14508 24.5662C5.14508 24.6784 5.03287 24.9028 5.03287 25.015C4.92065 25.3517 4.92064 25.6884 4.80842 26.1372C4.80842 26.2495 4.80843 26.4739 4.69621 26.5861C4.58399 27.035 4.58398 27.4839 4.58398 27.9328C4.58398 28.4939 4.58399 29.1672 4.69621 29.6161C4.80843 29.9527 4.92065 30.1772 4.92065 30.4016Z" fill="#245D51"/>
<path d="M12.7754 28.042C12.6632 28.042 12.7754 28.042 12.7754 28.042C12.6632 28.042 12.551 28.042 12.4387 28.042C12.2143 28.042 11.8776 28.042 11.541 28.1542C11.3165 28.1542 11.2043 28.2664 10.9799 28.2664C10.6432 28.3786 10.3066 28.4909 9.96991 28.6031C9.74547 28.7153 9.52103 28.8275 9.40881 28.9398C9.29659 28.9398 9.18437 29.052 9.18437 29.052C8.95993 29.1642 8.8477 29.2764 8.73548 29.3886C8.62326 29.5008 8.51106 29.6131 8.39884 29.7253C8.28662 29.8375 8.17439 29.9497 8.06217 30.062C7.83773 30.2864 7.72551 30.5108 7.72551 30.7353C7.61329 30.9597 7.61328 31.0719 7.61328 31.2964C7.61328 31.4086 7.61328 31.5208 7.61328 31.5208C8.17438 31.0719 8.84771 30.6231 9.40881 30.2864C9.96991 29.8375 10.6432 29.5009 11.2043 29.1642C10.6432 29.6131 9.96991 30.0619 9.40881 30.5108C8.84771 30.9597 8.2866 31.5208 7.61328 31.9697C7.7255 32.0819 7.72552 32.1941 7.83774 32.3064C7.94996 32.3064 8.06216 32.4186 8.17438 32.4186C8.39882 32.4186 8.73549 32.3064 9.07215 32.0819C9.29659 31.9697 9.52103 31.8575 9.74547 31.633C10.0821 31.4086 10.531 30.9597 10.8677 30.6231C11.2043 30.2864 11.6532 29.8375 11.8776 29.5009C12.2143 29.1642 12.4388 28.8275 12.551 28.6031C12.4388 28.3787 12.551 28.1542 12.7754 28.042C12.7754 28.042 12.6632 28.042 12.7754 28.042Z" fill="#245D51"/>
<path d="M73.7127 7.72525C71.5805 6.37861 69.3361 5.14419 66.8672 4.02199C69.3361 4.91975 71.8049 6.04195 73.9371 7.27637C74.0493 6.60305 73.4882 5.59307 70.9072 4.35865C67.8772 2.78757 63.0518 2.67535 63.0518 2.78757C63.164 2.78757 66.8672 5.48085 69.6727 6.82749C72.1416 8.06191 73.1516 8.17413 73.7127 7.72525Z" fill="#245D51"/>
<path d="M69.4464 88.5649C71.1297 88.7893 72.813 88.7893 74.4963 88.9015C72.7007 89.0137 70.9052 89.126 69.1097 89.0137C68.8853 89.5748 69.2219 90.0237 71.1297 90.1359C73.3741 90.2482 77.0773 88.7893 76.9651 88.7893C76.9651 88.7893 74.8329 87.7793 72.7007 87.7793C71.0174 87.6671 70.0075 88.0038 69.4464 88.5649Z" fill="#245D51"/>
<path d="M77.6344 84.6106C75.8388 84.8351 74.9411 85.284 74.4922 85.8451C76.0633 85.8451 77.7466 85.7328 79.4299 85.6206C77.7466 85.9573 75.9511 86.1817 74.2678 86.2939C74.0433 86.855 74.4922 87.3039 76.3999 87.1917C78.5321 87.0795 81.8987 85.284 81.8987 85.1717C81.8987 85.1717 79.6543 84.3862 77.6344 84.6106Z" fill="#245D51"/>
<path d="M81.9063 81.1305C80.223 81.4672 79.4375 82.0283 78.9886 82.7016C80.5597 82.5894 82.1308 82.2527 83.7018 81.9161C82.0185 82.365 80.4475 82.8138 78.7642 83.1505C78.6519 83.7116 79.1008 84.0482 80.8963 83.8238C82.9163 83.4871 86.0585 81.355 86.0585 81.355C86.1707 81.2428 83.8141 80.6816 81.9063 81.1305Z" fill="#245D51"/>
<path d="M85.6015 77.2057C83.9182 77.7668 83.2449 78.3279 83.0204 79.0012C84.4793 78.6646 86.0504 78.2157 87.5092 77.7668C85.9382 78.4401 84.3671 79.0012 82.9082 79.4501C82.9082 80.0112 83.3571 80.3479 85.1526 79.7868C87.1726 79.2257 89.8658 76.7568 89.8658 76.7568C89.7536 76.8691 87.5092 76.5324 85.6015 77.2057Z" fill="#245D51"/>
<path d="M86.5038 74.9657C87.9627 74.5168 89.4215 73.9557 90.7682 73.2824C89.3093 74.0679 87.8505 74.8534 86.3916 75.5268C86.3916 76.0879 86.9527 76.3123 88.636 75.639C90.5437 74.8534 92.9004 72.1602 92.9004 72.1602C92.9004 72.1602 90.5437 72.1602 88.8604 72.9457C87.2894 73.619 86.616 74.2923 86.5038 74.9657Z" fill="#245D51"/>
<path d="M91.4369 68.4385C89.978 69.3363 89.4169 70.0096 89.3047 70.6829C90.6513 70.0096 91.998 69.3363 93.3446 68.5507C91.998 69.5607 90.6513 70.3463 89.3047 71.244C89.4169 71.8051 89.978 72.0296 91.5491 71.1318C92.6713 70.5707 93.9057 69.2241 94.579 68.2141C95.0279 67.653 95.3646 67.2041 95.3646 67.2041C95.3646 67.2041 94.4668 67.3163 93.3446 67.653C92.7835 67.7652 91.998 67.9896 91.4369 68.4385Z" fill="#245D51"/>
<path d="M71.694 85.7528C72.7039 84.0695 72.4795 81.7129 72.4795 81.7129C72.4795 81.7129 70.1229 83.9573 68.8885 85.5284C67.8785 86.9872 67.9907 87.5483 68.5518 87.7728C69.674 86.4261 70.5718 85.0795 71.4695 83.7329C70.7962 85.0795 70.0107 86.4261 69.1129 87.7728C69.8984 87.7728 70.7962 87.2117 71.694 85.7528Z" fill="#245D51"/>
<path d="M76.2861 82.83C77.0716 81.0344 76.5105 78.79 76.5105 78.79C76.5105 78.79 74.4906 81.2589 73.5928 82.9422C72.8073 84.5133 72.9195 85.0744 73.5928 85.1866C74.4906 83.7277 75.1639 82.3811 75.8372 80.9222C75.3883 82.3811 74.8272 83.7277 74.1539 85.1866C74.8272 84.9621 75.6128 84.401 76.2861 82.83Z" fill="#245D51"/>
<path d="M80.3348 79.4359C80.8959 77.5281 79.9981 75.3959 79.9981 75.5082C79.9981 75.5082 78.3148 78.2014 77.7537 79.8847C77.1926 81.4558 77.4171 82.0169 77.9782 82.0169C78.6515 80.5581 79.1004 79.0992 79.5492 77.5281C79.3248 78.987 78.8759 80.4458 78.427 81.9047C79.2126 81.7925 79.8859 81.1192 80.3348 79.4359Z" fill="#245D51"/>
<path d="M83.9205 75.7705C84.145 73.8627 83.135 71.8428 83.135 71.8428C83.135 71.8428 81.7884 74.6483 81.4517 76.4438C81.115 78.0149 81.4517 78.576 82.0128 78.576C82.4617 77.0049 82.7984 75.546 83.0228 73.975C82.9106 75.4338 82.7984 76.8927 82.4617 78.3515C83.0228 78.2393 83.6961 77.4538 83.9205 75.7705Z" fill="#245D51"/>
<path d="M86.9484 71.6973C86.9484 69.7896 85.714 67.8818 85.714 67.8818C85.714 67.8818 84.704 70.7996 84.5918 72.5951C84.4796 74.2784 84.8163 74.7273 85.3774 74.615C85.6018 73.044 85.714 71.4729 85.8262 70.014C85.9385 71.4729 85.9385 72.9317 85.8262 74.3906C86.3873 74.1662 86.9484 73.3806 86.9484 71.6973Z" fill="#245D51"/>
<path d="M89.4193 67.342C89.3071 66.6687 89.0827 65.9954 88.8582 65.4343C88.4094 64.4243 87.736 63.751 87.736 63.751C87.736 63.751 87.6238 64.1999 87.5116 64.761C87.3994 65.7709 87.0627 67.342 87.1749 68.4642C87.2871 70.0353 87.6238 70.4842 88.1849 70.372C88.1849 68.8009 88.1849 67.2298 88.0727 65.7709C88.2971 67.2298 88.5216 68.6887 88.6338 70.1475C89.1949 69.9231 89.6438 69.0253 89.4193 67.342Z" fill="#245D51"/>
<path d="M67.4305 90.1211C67.2061 90.1211 66.9817 90.1211 66.7572 90.1211C65.8595 90.1211 65.2984 90.1211 64.7373 90.2333C64.4006 90.3455 64.0639 90.4578 63.8395 90.6822C65.5228 91.0189 67.2061 91.3555 69.0016 91.4677C67.0939 91.4677 65.2984 91.2433 63.5028 91.0189C63.3906 91.1311 63.3906 91.2433 63.3906 91.3555V91.4677C63.5028 91.8044 64.0639 92.0288 65.4106 92.2533C65.5228 92.2533 65.7472 92.2533 65.8595 92.2533C65.9717 92.2533 66.1961 92.2533 66.3083 92.2533C66.4206 92.2533 66.645 92.2533 66.7572 92.2533C66.9817 92.2533 67.0939 92.2533 67.3183 92.2533C67.655 92.2533 67.9916 92.1411 68.3283 92.1411C68.8894 92.0288 69.4505 91.9166 69.8994 91.9166C70.1238 91.9166 70.3483 91.8044 70.5727 91.8044C70.7971 91.6922 71.1338 91.6922 71.246 91.6922C71.3582 91.6922 71.3582 91.6922 71.4705 91.6922C71.5827 91.6922 71.6949 91.6922 71.6949 91.6922C71.6949 91.6922 71.1338 91.3555 70.3483 91.0189C69.5627 90.6822 68.5527 90.2333 67.4305 90.1211Z" fill="#245D51"/>
<path d="M66.6446 86.0777C65.7468 87.4243 64.7368 88.6587 63.6146 89.8931C63.7269 89.8931 63.8391 89.8931 63.9513 89.8931C64.288 89.8931 64.6246 89.7809 64.9613 89.5565C65.1857 89.4443 65.4102 89.2198 65.6346 89.1076C65.9713 88.8832 66.3079 88.5465 66.5323 88.0976C66.9812 87.5365 67.3179 86.751 67.5423 86.1899C67.7668 85.5166 67.879 84.9555 67.879 84.6188C67.879 84.5066 67.879 84.3944 67.879 84.2821C67.879 84.1699 67.879 84.1699 67.879 84.1699C67.879 84.1699 67.879 84.1699 67.7668 84.1699C67.7668 84.1699 67.6546 84.2821 67.5423 84.3944C67.4301 84.5066 67.3179 84.5066 67.2057 84.6188C67.0935 84.731 66.9812 84.731 66.9812 84.8432C66.7568 84.9555 66.5324 85.1799 66.4201 85.2921C66.1957 85.5166 65.9713 85.6288 65.7468 85.8532C65.5224 86.0777 65.2979 86.1899 65.0735 86.4143C64.6246 86.8632 64.1757 87.1999 63.8391 87.5365C63.6146 87.8732 63.3902 88.0976 63.1657 88.3221C63.0535 88.4343 62.9413 88.6587 62.9413 88.7709C62.9413 88.8832 62.8291 88.9954 62.8291 89.1076C62.8291 89.332 62.8291 89.4443 62.8291 89.5565C62.9413 89.6687 62.9413 89.7809 63.1657 89.7809C64.4002 88.6587 65.6346 87.4243 66.6446 86.0777Z" fill="#245D51"/>
<path d="M93.5685 61.4057C94.8029 60.5079 95.9251 59.498 97.0473 58.488C95.9251 59.7224 94.8029 60.8446 93.6807 61.9668C93.9051 62.5279 94.4662 62.5279 95.8129 61.4057C97.2717 60.1713 98.7306 56.8047 98.6184 56.8047C98.6184 56.8047 96.374 57.478 95.0273 58.8246C93.9051 59.8346 93.4563 60.7324 93.5685 61.4057Z" fill="#245D51"/>
<path d="M96.0464 53.6369C94.9242 54.9835 94.6998 55.769 94.812 56.4424C95.9342 55.4324 96.9442 54.3102 97.9542 53.188C97.0564 54.5346 96.0464 55.769 94.9242 57.0035C95.2609 57.4523 95.822 57.4523 96.9442 56.2179C98.2908 54.7591 99.3008 51.2802 99.3008 51.2802C99.413 51.168 97.2808 52.178 96.0464 53.6369Z" fill="#245D51"/>
<path d="M97.8362 50.8467C99.0706 49.2756 99.6317 45.6846 99.6317 45.6846C99.6317 45.6846 97.6117 46.8068 96.6018 48.4901C95.704 49.9489 95.4796 50.7345 95.704 51.4078C96.714 50.2856 97.6117 49.0512 98.5095 47.8168C97.724 49.2756 96.8262 50.6223 95.9285 51.8567C96.1529 52.3056 96.8262 52.1933 97.8362 50.8467Z" fill="#245D51"/>
<path d="M96.4871 43.3392C95.7016 44.7981 95.5894 45.6958 95.926 46.3692C96.8238 45.1347 97.6093 43.7881 98.2826 42.4414C97.6093 43.9003 96.936 45.3592 96.1505 46.818C96.4871 47.2669 97.1604 47.1547 97.946 45.5836C98.9559 43.9003 99.2926 40.3093 99.1804 40.3093C99.1804 40.197 97.3849 41.5437 96.4871 43.3392Z" fill="#245D51"/>
<path d="M95.5901 41.1741C96.2634 39.8275 96.9367 38.4808 97.4978 37.022C97.049 38.5931 96.4879 40.1641 95.8145 41.5108C96.2634 41.8475 96.8245 41.7352 97.4978 40.1641C98.2834 38.3686 98.1712 34.7776 98.1712 34.7776C98.1712 34.7776 96.4879 36.3487 95.8145 38.1442C95.2534 39.7153 95.2534 40.613 95.5901 41.1741Z" fill="#245D51"/>
<path d="M94.6944 36.1307C95.2555 34.784 95.7044 33.3252 96.1533 31.7541C95.8166 33.3252 95.4799 34.8962 95.0311 36.4673C95.4799 36.804 96.041 36.5795 96.6021 34.8962C96.9388 33.774 96.9388 31.8663 96.8266 30.6319C96.7144 29.8463 96.7144 29.3975 96.7144 29.3975C96.7144 29.3975 96.1533 30.0708 95.4799 31.0808C95.1433 31.6419 94.8066 32.3152 94.5822 32.9885C94.2455 34.6718 94.3577 35.5696 94.6944 36.1307Z" fill="#245D51"/>
<path d="M91.4426 62.8463C91.4426 62.6218 91.3304 62.3974 91.2182 62.1729C91.106 61.9485 90.9938 61.7241 90.8815 61.4996C90.5449 60.9385 90.2082 60.3774 89.8716 60.0408C89.6471 59.8163 89.5349 59.5919 89.4227 59.4797L89.3105 59.3674C89.3105 59.3674 89.1982 60.153 89.1982 61.0507C89.1982 61.2752 89.1982 61.4996 89.1982 61.8363C89.1982 62.0607 89.1982 62.3974 89.1982 62.6218C89.1982 62.8463 89.1982 63.1829 89.1982 63.4074C89.1982 63.6318 89.1982 63.8562 89.3105 64.0807V64.1929C89.4227 64.5296 89.4227 64.8662 89.5349 65.0907C89.6471 65.4273 89.7593 65.764 89.9838 65.8762C90.096 65.9884 90.2082 65.9884 90.3204 65.9884C90.4327 65.9884 90.4327 65.9884 90.5449 65.9884C90.4327 64.4173 90.2082 62.9585 89.8716 61.4996C90.3204 62.8463 90.6571 64.3051 90.8815 65.764C91.5549 65.3151 91.7793 64.4173 91.4426 62.8463Z" fill="#245D51"/>
<path d="M92.9024 58.1256C92.3413 56.33 90.4335 54.9834 90.5458 54.9834C90.5458 54.9834 90.5458 58.0133 91.1069 59.6966C91.5557 61.2677 92.0046 61.6044 92.5657 61.3799C92.2291 59.8089 91.8924 58.35 91.4435 57.0034C92.0046 58.35 92.5657 59.6966 92.9024 61.1555C93.239 60.5944 93.4635 59.6966 92.9024 58.1256Z" fill="#245D51"/>
<path d="M93.914 53.2984C93.1285 51.6151 91.2207 50.4929 91.2207 50.4929C91.2207 50.4929 91.5574 53.5229 92.2307 55.2062C92.7918 56.665 93.3529 57.0017 93.8018 56.665C93.3529 55.2062 92.7918 53.7473 92.2307 52.4007C92.904 53.6351 93.5773 54.9817 94.1384 56.3284C94.4751 55.655 94.5873 54.7573 93.914 53.2984Z" fill="#245D51"/>
<path d="M94.3571 48.3663C93.4593 46.7952 91.3271 45.8975 91.3271 45.8975C91.3271 45.8975 92.0005 48.8152 92.786 50.3863C93.5716 51.8451 94.1327 52.0696 94.4693 51.6207C93.796 50.1618 93.1227 48.8152 92.4493 47.5808C93.2349 48.703 94.0204 49.9374 94.806 51.284C95.1426 50.7229 95.1426 49.8252 94.3571 48.3663Z" fill="#245D51"/>
<path d="M94.2427 43.4332C93.1205 41.9743 90.9883 41.301 90.9883 41.301C90.9883 41.301 91.9983 44.1065 93.0082 45.6776C93.906 47.0242 94.4671 47.1365 94.916 46.7998C94.1304 45.4532 93.3449 44.2187 92.4471 42.9843C93.3449 43.9943 94.3549 45.2287 95.1404 46.3509C95.3649 45.6776 95.2527 44.7798 94.2427 43.4332Z" fill="#245D51"/>
<path d="M94.8051 41.2993C95.0296 40.626 94.8051 39.7283 93.6829 38.6061C92.4485 37.2594 90.2041 36.8105 90.2041 36.8105C90.2041 36.8105 91.4385 39.5038 92.6729 40.9627C93.6829 42.1971 94.244 42.3093 94.5807 41.8604C93.6829 40.626 92.6729 39.3916 91.7752 38.3816C92.7852 39.1672 93.7952 40.1771 94.8051 41.2993Z" fill="#245D51"/>
<path d="M92.5626 33.6737C92.0015 33.2248 91.4404 32.8882 90.7671 32.6637C89.7571 32.3271 88.8594 32.2148 88.8594 32.2148C88.8594 32.2148 89.0838 32.5515 89.4205 33.1126C89.9816 34.0104 90.8793 35.2448 91.6649 36.0303C92.7871 37.1525 93.4604 37.1525 93.6848 36.7036C92.6749 35.5814 91.5526 34.4592 90.4304 33.5615C91.5526 34.347 92.6749 35.357 93.7971 36.2548C94.0215 35.6937 93.7971 34.7959 92.5626 33.6737Z" fill="#245D51"/>
<path d="M93.5738 63.613C93.2371 63.8374 93.0126 64.0619 92.676 64.3985C92.3393 64.7352 92.1149 65.0718 91.8905 65.2963C91.7782 65.6329 91.666 65.8574 91.666 66.0818C92.9004 65.2963 94.2471 64.5108 95.4815 63.5008C94.2471 64.623 93.0126 65.6329 91.7782 66.5307C91.7782 66.6429 91.7782 66.6429 91.8905 66.7552C92.0027 66.9796 92.3393 67.0918 92.676 66.9796C92.7882 66.9796 93.0126 66.8674 93.2371 66.7552C93.4615 66.6429 93.686 66.5307 93.9104 66.3063C94.4715 65.9696 94.9204 65.4085 95.3693 64.8474C95.7059 64.3985 96.0426 63.8374 96.3793 63.3886C96.4915 63.2763 96.4915 63.1641 96.6037 63.0519C96.7159 62.8274 96.8281 62.7152 96.9404 62.4908C97.1648 62.1541 97.277 61.9297 97.277 61.9297C97.277 61.9297 96.0426 62.1541 94.696 62.8275C94.3593 63.0519 93.9104 63.2763 93.5738 63.613Z" fill="#245D51"/>
<path d="M92.9013 28.2941C92.9013 28.5185 92.9013 28.6307 92.7891 28.8552C92.7891 29.0796 92.7891 29.1918 92.7891 29.4163C92.7891 29.5285 92.7891 29.7529 92.7891 29.8652C92.7891 29.9774 92.7891 30.0896 92.7891 30.2018C92.9013 30.6507 93.0135 30.9874 93.2379 31.324C93.6868 29.8652 94.0235 28.4063 94.2479 26.8352C94.1357 28.5185 93.9113 30.0896 93.5746 31.6607C93.799 31.7729 93.9113 31.7729 94.1357 31.6607C94.2479 31.6607 94.3601 31.5485 94.3601 31.4362C94.4724 31.324 94.4724 31.2118 94.5846 31.0996C94.6968 30.9874 94.6968 30.7629 94.809 30.5385C94.809 30.314 94.9212 30.2018 94.9212 29.9774C95.0335 29.5285 95.0335 28.8552 95.0335 28.2941C95.0335 27.8452 94.9212 27.3963 94.9212 26.9474C94.9212 26.8352 94.9212 26.6108 94.809 26.4986C94.6968 26.0497 94.6968 25.713 94.5846 25.3764C94.5846 25.1519 94.4724 25.0397 94.4724 24.9275C94.3601 24.703 94.3601 24.5908 94.3601 24.5908C94.3601 24.5908 94.1357 24.8153 93.9113 25.2641C93.799 25.6008 93.5746 25.9375 93.3502 26.3863C93.2379 26.723 93.1257 27.0597 93.0135 27.3963C93.1257 27.5085 93.0135 27.8452 92.9013 28.2941C92.9013 28.1819 92.9013 28.1819 92.9013 28.2941Z" fill="#245D51"/>
<path d="M91.8929 21.8907C92.0051 23.574 91.8929 25.1451 91.7807 26.7162C92.3418 26.9406 92.7906 26.604 92.9029 24.8084C93.1273 22.7885 91.7807 19.4219 91.7807 19.4219C91.7807 19.4219 90.6585 21.4418 90.6585 23.4618C90.5462 25.1451 90.8829 26.0429 91.3318 26.4917C91.6685 25.0329 91.7807 23.4618 91.8929 21.8907Z" fill="#245D51"/>
<path d="M88.9701 22.0015C89.0823 20.4304 88.9701 18.9716 88.9701 17.4005C89.1945 19.0838 89.419 20.6549 89.419 22.2259C89.9801 22.3382 90.429 22.0015 90.3167 20.206C90.3167 18.186 88.6334 14.9316 88.5212 14.9316C88.5212 14.9316 87.7357 17.0638 87.8479 19.0838C87.9601 20.7671 88.409 21.5526 88.9701 22.0015Z" fill="#245D51"/>
<path d="M85.9443 17.7174C85.8321 16.1463 85.6076 14.6875 85.271 13.1164C85.7198 14.6875 86.0565 16.3708 86.3932 17.9418C86.9543 18.0541 87.4031 17.6052 87.0665 15.8097C86.842 13.7897 84.7099 10.7598 84.5976 10.7598C84.5976 10.7598 84.0365 13.0042 84.3732 14.9119C84.8221 16.5952 85.3832 17.3807 85.9443 17.7174Z" fill="#245D51"/>
<path d="M82.4606 13.7929C82.124 12.3341 81.7873 10.763 81.2262 9.19191C81.8995 10.763 82.4606 12.3341 82.9095 13.9052C83.4706 13.9052 83.8072 13.4563 83.3584 11.773C82.7973 9.75301 80.3284 6.94751 80.2162 6.94751C80.2162 6.94751 79.9918 9.30413 80.5529 11.2119C81.2262 12.783 81.7873 13.4563 82.4606 13.7929Z" fill="#245D51"/>
<path d="M78.4204 10.2273C77.8593 8.76848 77.2982 7.30962 76.5127 5.73854C77.4104 7.1974 78.1959 8.76848 78.8693 10.2273C79.4304 10.2273 79.767 9.66624 78.9815 7.98294C78.196 6.0752 75.166 3.49414 75.166 3.49414C75.166 3.49414 75.2782 5.85076 76.176 7.64628C76.9615 9.32958 77.7471 10.0029 78.4204 10.2273Z" fill="#245D51"/>
<path d="M90.6529 27.2624C89.4185 26.3647 88.0718 25.5791 86.8374 24.7936C88.1841 25.3547 89.4185 26.028 90.7651 26.7013C90.7651 26.028 90.204 25.2425 88.8574 24.4569C87.1741 23.5592 84.9297 23.8958 84.9297 23.8958C84.9297 23.8958 87.0619 26.1402 88.633 27.038C89.8674 27.9357 90.4285 27.8235 90.6529 27.2624Z" fill="#245D51"/>
<path d="M82.125 20.2049C82.125 20.2049 84.4816 22.1126 86.1649 22.8982C87.6238 23.5715 88.1849 23.4593 88.2971 22.8982C86.9505 22.1126 85.6038 21.4393 84.145 20.8782C85.4916 21.3271 86.9505 21.776 88.2971 22.4493C88.1849 21.776 87.6238 20.9904 86.0527 20.4293C84.3694 19.6438 82.125 20.2049 82.125 20.2049Z" fill="#245D51"/>
<path d="M85.3818 18.6408C83.923 18.0797 82.4641 17.5186 81.0052 17.0697C82.4641 17.2942 83.923 17.743 85.3818 18.1919C85.1574 17.5186 84.4841 16.8453 82.913 16.3964C81.1175 15.8353 78.873 16.6208 78.873 16.6208C78.873 16.6208 81.4541 18.3041 83.2496 18.8652C84.8207 19.4263 85.3818 19.2019 85.3818 18.6408Z" fill="#245D51"/>
<path d="M82.0114 14.8064C80.4403 14.3575 78.9815 14.0208 77.4104 13.6842C78.8693 13.7964 80.4404 14.0208 81.8992 14.2453C81.6748 13.5719 80.8892 13.0108 79.2059 12.6742C77.2982 12.3375 75.166 13.3475 75.166 13.3475C75.166 13.3475 78.0837 14.8064 79.8793 15.143C81.5626 15.5919 82.0114 15.3675 82.0114 14.8064Z" fill="#245D51"/>
<path d="M75.9533 12.0249C77.6366 12.1371 78.0855 11.9127 78.0855 11.2393C76.5144 10.9027 74.8311 10.7905 73.26 10.6782C74.8311 10.6782 76.29 10.6782 77.8611 10.7905C77.5244 10.2294 76.6266 9.66826 74.9433 9.55604C72.9234 9.44382 71.0156 10.6782 71.0156 10.6782C71.0156 10.6782 74.1578 11.8004 75.9533 12.0249Z" fill="#245D51"/>
<path d="M87.5142 28.4909C87.7387 28.7153 87.9631 29.052 88.1875 29.3886C88.5242 29.7253 88.8609 30.1742 89.1975 30.5108C89.5342 30.8475 89.9831 31.2964 90.3197 31.5208C90.6564 31.7453 90.8808 31.9697 91.1053 32.0819C91.5541 32.3064 91.8908 32.4186 92.1152 32.3064C92.2275 32.1941 92.3397 32.1941 92.3397 31.9697C91.7786 31.4086 91.2175 30.9597 90.5442 30.5108C89.9831 30.0619 89.3097 29.6131 88.7486 29.1642C89.422 29.5009 89.9831 29.8375 90.5442 30.2864C91.1053 30.7353 91.7786 31.0719 92.3397 31.5208C92.3397 31.4086 92.3397 31.4086 92.3397 31.2964C92.3397 31.0719 92.2275 30.7353 92.003 30.3986C91.7786 29.9497 91.3297 29.5008 90.6564 29.052C90.4319 28.9397 90.2075 28.8275 90.0953 28.7153C89.422 28.3787 88.7486 28.2664 88.1875 28.1542C87.8509 28.042 87.5142 28.042 87.2898 28.042C87.1776 28.042 87.0653 28.042 87.0653 28.042C86.9531 28.042 86.9531 28.042 86.9531 28.042C86.9531 28.042 87.0653 28.1542 87.1776 28.2664C87.402 28.3786 87.402 28.3786 87.5142 28.4909Z" fill="#245D51"/>
<path d="M50.3689 86.3096C46.5534 86.3096 43.5234 89.3395 43.5234 93.155C43.5234 96.9705 46.5534 100 50.3689 100C54.1844 100 57.2143 96.9705 57.2143 93.155C57.2143 89.4517 54.1844 86.3096 50.3689 86.3096Z" fill="#245D51"/>
<path d="M47.7871 6.39654L49.9193 4.93768L52.0515 6.39654L51.266 3.9277L53.2859 2.46884H50.7049L49.9193 0L49.1338 2.46884H46.5527L48.6849 3.9277L47.7871 6.39654Z" fill="#245D51"/>
<path d="M65.0732 31.324C65.7465 29.6407 65.9709 28.1818 65.9709 27.5085C65.9709 27.2841 65.9709 27.0596 65.9709 26.9474V26.8352V26.9474C65.8587 27.1719 65.7465 27.2841 65.6343 27.5085C64.1754 29.7529 61.0332 31.0996 59.0133 31.7729C57.7788 32.2218 56.9933 32.334 56.9933 32.334L55.1978 34.9151L55.7589 32.7829C55.7589 32.7829 53.6267 34.1295 50.3723 35.1395C50.2601 35.1395 50.1479 35.2517 49.9234 35.2517C49.8112 35.2517 49.699 35.3639 49.5868 35.3639C49.4746 35.3639 49.4746 35.3639 49.4746 35.3639C45.6591 36.2617 43.5269 39.4039 43.5269 39.4039L43.4147 38.2817C39.3748 40.8627 38.1403 44.2293 37.8037 46.0248C38.477 45.576 39.2625 45.0149 40.1603 44.3415C41.2825 43.556 42.7414 42.546 44.3124 41.7605C45.098 41.3116 45.9957 40.9749 46.8935 40.6383C47.7913 40.3016 48.689 40.0772 49.5868 39.8527H49.699C49.8112 39.8527 49.9234 39.7405 50.0357 39.7405C50.1479 39.7405 50.2601 39.6283 50.3723 39.6283C53.7389 38.6183 56.7689 36.8228 59.0133 35.3639C61.3699 33.7929 62.6043 32.334 62.6043 32.334C62.6043 32.334 62.2676 32.6706 61.7065 33.2317C61.1454 33.7928 60.2477 34.5784 59.0133 35.4762C56.8811 37.0472 53.7389 38.8428 50.2601 39.965C50.1479 39.965 50.0357 40.0772 49.9234 40.0772C49.8112 40.0772 49.699 40.1894 49.5868 40.1894C48.689 40.4138 47.7913 40.7505 46.8935 41.0872C45.9957 41.4238 45.2102 41.7605 44.4247 42.2094C42.8536 42.9949 41.5069 44.0049 40.3847 44.7904C39.2625 45.576 38.3648 46.3615 37.5792 46.8104C35.8959 47.9326 34.7737 48.9426 34.7737 48.9426L33.876 50.9625C38.0281 47.147 40.1603 46.8104 40.1603 46.8104C43.8635 46.3615 47.1179 45.576 49.8112 44.6782C49.9234 44.6782 49.9234 44.6782 50.0357 44.566C50.1479 44.566 50.1479 44.566 50.2601 44.4538C50.5968 44.3415 50.9334 44.2293 51.3823 44.0049L50.3723 43.1071L52.5045 43.556C55.31 42.3216 57.4422 40.9749 59.2377 39.5161L57.2177 39.6283L60.4721 38.2817C62.8287 35.925 64.2876 33.344 65.0732 31.324Z" fill="#245D51"/>
<path d="M31.1717 71.835C30.7228 71.4983 30.3861 71.0495 30.0495 70.6006C29.7128 70.0395 29.6006 69.5906 29.6006 69.2539C29.6006 67.6828 29.6006 65.9995 29.6006 64.4285C29.9372 64.4285 30.2739 64.4285 30.6106 64.4285C30.6106 66.224 30.4983 68.0195 30.4983 69.815C30.4983 69.9272 30.4983 70.1517 30.6106 70.3761C30.7228 70.6006 30.835 70.7128 31.0595 70.825C31.1717 70.9372 31.3961 70.9372 31.5083 70.825C31.6205 70.7128 31.7328 70.6006 31.7328 70.4883C31.845 68.4684 31.845 66.4484 31.9572 64.4285C32.2939 64.4285 32.7428 64.4285 33.0794 64.4285C32.9672 66.5606 32.855 68.805 32.855 70.9372C32.855 71.4983 32.6305 71.9472 32.2939 72.0594C31.9572 72.1716 31.5083 72.0594 31.1717 71.835Z" fill="white"/>
<path d="M35.4423 64.3355C35.7789 66.5799 36.2278 68.9365 36.5645 71.4054C36.6767 69.0488 36.7889 66.6921 36.9011 64.3355C37.2378 64.3355 37.5744 64.3355 38.0233 64.3355C37.9111 67.9266 37.6867 71.6298 37.5745 75.2209C37.2378 75.1087 36.7889 74.8842 36.4523 74.6598C36.1156 72.1909 35.6667 69.8343 35.3301 67.7021C35.2178 69.7221 35.1056 71.8543 34.9934 73.8742C34.6567 73.6498 34.3201 73.5376 33.9834 73.3131C34.0956 70.2832 34.2078 67.2532 34.4323 64.1111C34.6567 64.3355 34.9934 64.3355 35.4423 64.3355Z" fill="white"/>
<path d="M39.7072 76.0895C39.3705 75.9773 39.0338 75.8651 38.585 75.7528C38.6972 71.9374 38.9216 68.1219 39.0338 64.3064C39.3705 64.3064 39.7072 64.3064 40.156 64.3064C40.0438 68.2341 39.9316 72.1618 39.7072 76.0895Z" fill="white"/>
<path d="M42.2825 76.8849C41.9459 72.6205 41.7214 68.4684 41.3848 64.4285C41.7214 64.4285 42.1703 64.4285 42.507 64.4285C42.7314 67.6828 42.9558 70.9372 43.0681 74.3038C43.5169 71.0494 43.8536 67.7951 44.3025 64.4285C44.6392 64.4285 45.088 64.4285 45.4247 64.4285C44.8636 68.805 44.3025 73.0694 43.7414 77.2215C43.2925 77.1093 42.7314 76.9971 42.2825 76.8849Z" fill="white"/>
<path d="M46.3242 77.5484C46.4364 73.1718 46.4365 68.683 46.5487 64.3064C47.5587 64.3064 48.5686 64.3064 49.5786 64.3064C49.5786 64.9797 49.5786 65.653 49.5786 66.3264C48.9053 66.3264 48.232 66.3264 47.5586 66.3264C47.5586 67.5608 47.5586 68.7952 47.5586 69.9174C48.0075 69.9174 48.5686 69.9174 49.0175 69.9174C49.0175 70.5907 49.0175 71.264 49.0175 71.9374C48.5686 71.9374 48.0075 71.9374 47.5586 71.9374C47.5586 73.1718 47.5586 74.4062 47.5586 75.5284C48.232 75.5284 48.9053 75.6406 49.6908 75.6406C49.6908 76.3139 49.6908 76.9873 49.6908 77.6606C48.5686 77.7728 47.4464 77.6606 46.3242 77.5484Z" fill="white"/>
<path d="M52.2701 64.4186C52.8312 64.4186 53.2801 64.7553 53.6168 65.3164C53.8412 65.8775 54.0656 66.5508 54.0656 67.5608C54.0656 68.2341 54.0656 68.7952 54.0656 69.4685C54.0656 70.3663 53.9534 71.1518 53.5045 71.8251C53.8412 73.7329 54.1779 75.6406 54.4023 77.4361C53.9534 77.5484 53.6168 77.5484 53.1679 77.5484C52.9434 75.8651 52.719 74.294 52.3823 72.6107H52.2701C52.0457 72.6107 51.8212 72.6107 51.5968 72.6107C51.5968 74.294 51.5968 75.9773 51.5968 77.6606C51.2601 77.6606 50.8113 77.6606 50.4746 77.6606C50.4746 73.1718 50.4746 68.683 50.4746 64.3064C51.1479 64.4186 51.709 64.4186 52.2701 64.4186ZM53.0557 67.5608C53.0557 66.7752 52.8312 66.4386 52.3823 66.4386C52.1579 66.4386 51.9335 66.4386 51.709 66.4386C51.709 67.8974 51.709 69.2441 51.709 70.7029C51.9335 70.7029 52.1579 70.7029 52.3823 70.7029C52.6068 70.7029 52.719 70.5907 52.8312 70.3663C52.9434 70.1418 53.0557 69.8052 53.0557 69.5807C53.0557 68.7952 53.0557 68.2341 53.0557 67.5608Z" fill="white"/>
<path d="M58.8936 73.4108C58.8936 74.3086 58.7814 74.9819 58.557 75.6552C58.4447 76.1041 58.1081 76.4407 57.7714 76.7774C57.547 76.8896 57.4348 77.0018 57.2103 77.114C56.7614 77.2263 56.4248 77.1141 56.0881 76.7774C55.8637 76.553 55.6392 76.1041 55.527 75.6552C55.4148 75.0941 55.3026 74.533 55.1904 73.8597C55.527 73.7474 55.8637 73.6352 56.2003 73.6352C56.3125 74.4208 56.4248 74.8696 56.537 75.2063C56.6492 75.4307 56.8736 75.543 56.9859 75.4307C57.2103 75.3185 57.4347 75.0941 57.547 74.6452C57.6592 74.4208 57.6592 74.1963 57.6592 73.7474C57.6592 73.1863 57.4348 72.7375 57.2103 72.2886C56.9859 71.9519 56.6492 71.503 56.2003 70.8297C55.8637 70.2686 55.527 69.7075 55.4148 69.2586C55.1903 68.6975 55.1903 68.1364 55.0781 67.4631C55.0781 66.3409 55.3026 65.3309 55.6392 64.7698C55.8637 64.4332 56.2003 64.2087 56.6492 64.2087C56.9859 64.2087 57.3225 64.321 57.6592 64.6576C57.8836 64.8821 58.1081 65.2187 58.2203 65.5554C58.3325 66.0043 58.4447 66.4531 58.557 66.902C58.2203 67.0142 57.8836 67.1265 57.547 67.2387C57.547 66.6776 57.4348 66.3409 57.2103 66.1165C57.0981 65.892 56.9859 65.7798 56.7614 65.7798C56.537 65.7798 56.4248 65.892 56.3126 66.2287C56.2003 66.4531 56.2003 66.7898 56.2003 67.1265C56.2003 67.6876 56.4248 68.2487 56.6492 68.8098C56.7614 69.0342 56.9859 69.2586 57.2103 69.5953C57.4348 69.932 57.6592 70.1564 57.7714 70.2686C58.1081 70.7175 58.3325 71.0542 58.4447 71.503C58.5569 71.7275 58.5569 71.8397 58.6692 72.0641C58.8936 72.7375 58.8936 73.0741 58.8936 73.4108Z" fill="white"/>
<path d="M61.2498 75.6552C60.9131 75.7674 60.5765 75.8796 60.1276 75.9918C60.0154 72.0641 59.7909 68.1364 59.6787 64.2087C60.0154 64.2087 60.352 64.2087 60.8009 64.2087C61.0254 68.1364 61.1376 71.9519 61.2498 75.6552Z" fill="white"/>
<path d="M63.1592 65.8775C62.8226 65.8775 62.3737 65.8775 62.037 65.9897C62.037 65.4286 62.037 64.8675 61.9248 64.3064C63.047 64.3064 64.1692 64.3064 65.2914 64.3064C65.2914 64.7553 65.2914 65.2042 65.4036 65.7653C65.067 65.7653 64.6181 65.8775 64.2814 65.8775C64.3936 68.683 64.5059 71.4885 64.6181 74.294C64.2814 74.5184 63.9448 74.6306 63.6081 74.8551C63.3837 71.8251 63.2714 68.7952 63.1592 65.8775Z" fill="white"/>
<path d="M67.866 68.9074C67.3049 67.5608 66.856 65.9897 66.2949 64.3064C66.7438 64.3064 67.0805 64.3064 67.5293 64.3064C67.866 65.3164 68.0905 66.2141 68.4271 66.9997C68.6516 65.9897 68.876 65.0919 69.1004 64.3064C69.5493 64.3064 69.886 64.3064 70.3349 64.3064C69.886 65.5408 69.4371 66.9997 68.9882 68.5708C68.9882 69.5807 68.9882 70.5907 69.1004 71.6007C68.7638 71.8251 68.4271 72.0496 68.0904 72.274C67.866 71.1518 67.866 70.0296 67.866 68.9074Z" fill="white"/>
<path d="M43.4139 20.6664V20.8909H41.9551V18.3098H43.4139V18.5343H42.404V19.432H43.1895V19.6565H42.404V20.6664H43.4139Z" fill="white"/>
<path d="M44.8781 19.8741C44.8781 19.7619 44.878 19.7619 44.6536 19.7619H44.2047C43.8681 19.7619 43.7559 19.6497 43.7559 19.4253V18.7519C43.7559 18.5275 43.8681 18.4153 44.2047 18.4153H44.7658C45.1025 18.4153 45.2147 18.5275 45.2147 18.7519V19.2008H44.7658V18.8642C44.7658 18.7519 44.7658 18.7519 44.5414 18.7519H44.2047C44.0925 18.7519 43.9803 18.7519 43.9803 18.8642V19.5375C43.9803 19.6497 43.9803 19.6497 44.2047 19.6497H44.6536C44.9903 19.6497 45.1025 19.7619 45.1025 19.9864V20.7719C45.1025 20.9963 44.9903 21.1086 44.6536 21.1086H44.2047C43.8681 21.1086 43.7559 20.9963 43.7559 20.7719V20.323H44.2047V20.6597C44.2047 20.7719 44.2047 20.7719 44.4292 20.7719H44.6536C44.7658 20.7719 44.8781 20.7719 44.8781 20.6597V19.8741Z" fill="white"/>
<path d="M47.235 18.6397H46.5617V20.9963H46.1128V18.6397H45.4395V18.4153H47.1228V18.6397H47.235Z" fill="white"/>
<path d="M48.8028 18.4153C49.1394 18.4153 49.2517 18.5275 49.2517 18.7519V20.6597C49.2517 20.8841 49.1394 20.9963 48.8028 20.9963H47.5684V18.4153H48.8028ZM48.915 18.7519C48.915 18.6397 48.915 18.6397 48.6906 18.6397H48.0172V20.6597H48.6906C48.8028 20.6597 48.915 20.6597 48.915 20.5475V18.7519Z" fill="white"/>
<path d="M51.3782 20.8909H50.9293V18.5343H50.4805V18.3098H51.3782V20.8909Z" fill="white"/>
<path d="M53.0686 18.4153C53.4052 18.4153 53.5175 18.5275 53.5175 18.7519V20.6597C53.5175 20.8841 53.4052 20.9963 53.0686 20.9963H52.5075C52.1708 20.9963 52.0586 20.8841 52.0586 20.6597V20.2108H52.5075V20.6597C52.5075 20.7719 52.5075 20.7719 52.7319 20.7719H53.0686C53.1808 20.7719 53.293 20.7719 53.293 20.6597V19.9864H52.6197C52.283 19.9864 52.1708 19.8741 52.1708 19.6497V18.8642C52.1708 18.6397 52.283 18.5275 52.6197 18.5275H53.0686V18.4153ZM53.1808 19.6497V18.7519C53.1808 18.6397 53.1808 18.6397 52.9564 18.6397H52.6197C52.5075 18.6397 52.3953 18.6397 52.3953 18.7519V19.5375C52.3953 19.6497 52.3953 19.6497 52.6197 19.6497H53.1808Z" fill="white"/>
<path d="M55.7576 19.432C55.7576 19.5442 55.6454 19.6565 55.5332 19.6565C55.6454 19.6565 55.7576 19.7687 55.7576 19.8809V20.6664C55.7576 20.8909 55.6454 21.0031 55.3087 21.0031H54.6354C54.2988 21.0031 54.1865 20.8909 54.1865 20.6664V19.8809C54.1865 19.7687 54.2988 19.6565 54.411 19.6565C54.2988 19.6565 54.1865 19.5442 54.1865 19.432V18.6465C54.1865 18.422 54.2988 18.3098 54.6354 18.3098H55.3087C55.6454 18.3098 55.7576 18.422 55.7576 18.6465V19.432ZM55.3087 18.7587C55.3087 18.6465 55.3087 18.6465 55.0843 18.6465H54.7476C54.6354 18.6465 54.5232 18.6465 54.5232 18.7587V19.432C54.5232 19.5442 54.5232 19.5442 54.7476 19.5442H55.0843C55.1965 19.5442 55.3087 19.5442 55.3087 19.432V18.7587ZM55.3087 19.8809C55.3087 19.7687 55.3087 19.7687 55.0843 19.7687H54.7476C54.6354 19.7687 54.5232 19.7687 54.5232 19.8809V20.5542C54.5232 20.6664 54.5232 20.6664 54.7476 20.6664H55.0843C55.1965 20.6664 55.3087 20.6664 55.3087 20.5542V19.8809Z" fill="white"/>
<path d="M58.0027 20.5542C58.0027 20.7787 57.8905 20.8909 57.5538 20.8909H56.8805C56.5439 20.8909 56.4316 20.7787 56.4316 20.5542V18.6465C56.4316 18.422 56.5439 18.3098 56.8805 18.3098H57.5538C57.8905 18.3098 58.0027 18.422 58.0027 18.6465V20.5542ZM57.5538 18.7587C57.5538 18.6465 57.5538 18.6465 57.3294 18.6465H56.9927C56.8805 18.6465 56.7683 18.6465 56.7683 18.7587V20.5542C56.7683 20.6664 56.7683 20.6664 56.9927 20.6664H57.3294C57.4416 20.6664 57.5538 20.6664 57.5538 20.5542V18.7587Z" fill="white"/>
<path d="M50.2618 96.0711V94.8367H51.1595L50.9351 94.1634H48.9151L48.6907 94.8367H49.4762V96.0711H46.4463V94.8367H47.1196L48.4663 90.5723H48.0174V89.3379H51.7206L53.4039 94.8367H54.0773V96.0711H50.2618ZM50.7107 93.0412L50.0373 91.0212L49.364 93.0412H50.7107Z" fill="white"/>
</svg>
