<svg width="109" height="100" viewBox="0 0 109 100" fill="none" xmlns="http://www.w3.org/2000/svg">
<path d="M50.4168 61.0176L48.2372 60.5588C47.5489 60.444 46.8606 60.3293 46.1723 60.0999L44.1074 59.641L42.0425 59.2969C41.3542 59.1822 40.6659 59.0674 39.9776 58.9527C39.2893 58.838 38.6009 58.7233 37.9126 58.6086L35.8477 58.2644L33.7828 58.035C33.0945 57.9203 32.4062 57.9203 31.7179 57.8056C31.0296 57.6908 30.3413 57.5761 29.653 57.5761L27.5881 57.4614C26.8998 57.4614 26.2115 57.4614 25.5232 57.3467C24.9496 57.3467 24.376 57.3467 23.8024 57.3467C23.3436 57.3467 22.77 57.3467 22.3111 57.3467C22.1964 57.3467 22.0817 57.3467 22.0817 57.3467C21.8522 57.3467 21.7375 57.3467 21.5081 57.3467H20.7051C20.5903 57.5761 20.3609 57.8056 20.2462 58.035L18.7549 60.2146H21.5081C22.8847 60.2146 24.2613 60.0999 25.6379 60.2146C26.3262 60.2146 27.0145 60.2146 27.7028 60.2146L29.7677 60.3293C32.5209 60.444 35.3889 60.6735 38.1421 60.9029L42.3866 61.2471L46.6312 61.7059L55.1202 62.6237C54.0878 62.1648 53.0553 61.8207 51.9082 61.3618L50.4168 61.0176Z" fill="white"/>
<path d="M80.0172 60.2229L82.0821 60.1082C82.7704 60.1082 83.4587 60.1082 84.147 60.1082C85.5236 60.1082 86.9002 60.1082 88.2768 60.1082H91.03L89.5387 57.9285C89.424 57.6991 89.1945 57.4697 89.0798 57.2402H88.2768C88.0474 57.2402 87.9326 57.2402 87.7032 57.2402C87.5885 57.2402 87.4738 57.2402 87.4738 57.2402C87.0149 57.2402 86.4413 57.2402 85.9824 57.2402C85.4089 57.2402 84.8353 57.2402 84.2617 57.2402C83.5734 57.2402 82.8851 57.2402 82.1968 57.3549L80.1319 57.4697C79.4436 57.4697 78.7553 57.5844 78.067 57.6991C77.3787 57.8138 76.6904 57.8138 76.0021 57.9285L73.9371 58.158L71.8722 58.5021C71.1839 58.6168 70.4956 58.7316 69.8073 58.8463C69.119 58.961 68.4307 59.0757 67.7424 59.1904L65.6775 59.5346L63.6126 59.9934C62.9243 60.1082 62.236 60.2229 61.5477 60.4523L59.3681 60.9112L58.2209 61.1406C57.1884 61.4848 56.0412 61.9436 55.0088 62.4025L63.4979 61.4848L67.7424 61.0259L71.987 60.6817C74.396 60.567 77.1492 60.3376 80.0172 60.2229Z" fill="white"/>
<path d="M46.8599 58.0549C45.4833 57.4813 44.1067 57.0225 42.7301 56.4489C42.0418 56.2194 41.3535 55.99 40.6652 55.7606C39.9769 55.5311 39.2886 55.3017 38.6003 55.187C37.2237 54.8428 35.7324 54.4987 34.241 54.1545C33.5527 54.0398 32.7497 53.9251 32.0614 53.8104C31.3731 53.6957 30.5701 53.5809 29.8818 53.4662L27.7021 53.2368C27.1286 53.2368 26.555 53.1221 25.9814 53.1221C25.8667 53.1221 25.6372 53.1221 25.5225 53.1221C25.5225 53.1221 25.5225 53.1221 25.4078 53.1221C25.1784 53.1221 25.0636 53.1221 24.8342 53.1221C24.7195 53.1221 24.6048 53.1221 24.3753 53.1221C24.2606 53.1221 24.1459 53.1221 24.0312 53.1221H23.9165H23.4576L22.081 53.2368H21.8516H21.5074H20.9338H20.1308C20.0161 53.3515 19.9014 53.5809 19.7867 53.6957L17.9512 56.1047H21.0486H21.1632C21.6221 56.1047 22.1957 56.1047 22.6546 56.1047C22.7693 56.1047 22.884 56.1047 22.9987 56.1047H23.1134C23.4576 56.1047 23.8017 56.1047 24.0312 56.1047C24.3753 56.1047 24.7195 56.1047 25.1783 56.1047C25.8666 56.1047 26.555 56.1047 27.2433 56.2194L29.3082 56.4489C29.9965 56.4489 30.6848 56.5636 31.3731 56.6783C32.0614 56.793 32.7497 56.793 33.438 56.9077L35.5029 57.2519L37.5678 57.596C38.2561 57.7108 38.9444 57.8255 39.6327 58.0549C40.321 58.1696 41.0093 58.2843 41.6977 58.5138L43.7625 58.9727L45.8274 59.5462C47.2041 59.8904 48.5807 60.2345 49.9573 60.6934C50.9897 60.9228 51.9075 61.267 52.9399 61.6111C53.3988 61.7259 53.743 61.8406 54.2018 61.9553C53.1694 61.267 52.1369 60.6934 50.9897 60.1198C49.9573 59.4315 48.466 58.6285 46.8599 58.0549Z" fill="white"/>
<path d="M89.3092 53.2368H88.5062H87.9326H87.5884H87.359L85.9824 53.1221H85.5235H85.4088C85.2941 53.1221 85.1794 53.1221 85.0646 53.1221C84.9499 53.1221 84.8352 53.1221 84.6058 53.1221C84.3763 53.1221 84.2616 53.1221 84.0322 53.1221C84.0322 53.1221 84.0322 53.1221 83.9175 53.1221C83.8027 53.1221 83.5733 53.1221 83.4586 53.1221C82.885 53.1221 82.3114 53.1221 81.7378 53.2368L79.5582 53.4662C78.8699 53.5809 78.0669 53.6957 77.3786 53.8104C76.6903 53.9251 75.8873 54.0398 75.1989 54.1545C73.7076 54.4987 72.331 54.7281 70.8397 55.187C70.1514 55.4164 69.4631 55.5311 68.7748 55.7606C68.0865 55.99 67.3982 56.2194 66.7099 56.4489C65.3333 56.9077 63.9567 57.4813 62.5801 58.0549C60.974 58.7432 59.4827 59.4315 57.9914 60.2345C56.8442 60.8081 55.8118 61.3817 54.7793 62.07C55.2382 61.9553 55.5823 61.8406 56.0412 61.7259C57.0736 61.3817 57.9914 61.1523 59.0238 60.8081C60.4004 60.3493 61.777 60.0051 63.1536 59.661L65.2186 59.0874L67.2835 58.6285C67.9718 58.3991 68.6601 58.2843 69.3484 58.1696C70.0367 58.0549 70.725 57.8255 71.4133 57.7108L73.4782 57.3666L75.5431 57.0225C76.2314 56.9077 76.9197 56.793 77.608 56.793C78.2963 56.6783 78.9846 56.5636 79.6729 56.5636L81.7378 56.3342C82.4261 56.3342 83.1144 56.3342 83.8027 56.2194C84.1469 56.2194 84.491 56.2194 84.9499 56.2194C85.2941 56.2194 85.6382 56.2194 85.8677 56.2194H85.9824C86.0971 56.2194 86.2118 56.2194 86.3265 56.2194C86.7854 56.2194 87.359 56.2194 87.8178 56.2194H87.9326H91.0299L89.1945 53.8104C89.5386 53.5809 89.4239 53.4662 89.3092 53.2368Z" fill="white"/>
<path d="M37.2223 51.2865L35.0427 50.5982C34.3544 50.3688 33.5514 50.1393 32.8631 50.0246C32.1747 49.9099 31.3717 49.6805 30.6834 49.5658L28.3891 49.2216C28.2744 49.2216 28.1596 49.2216 28.0449 49.2216C27.8155 49.2216 27.586 49.2216 27.4713 49.1069C27.2419 49.1069 27.1272 49.1069 26.8977 49.1069C26.783 49.1069 26.783 49.1069 26.6683 49.1069C26.5536 49.1069 26.4389 49.1069 26.3242 49.1069H26.2095C25.8653 49.1069 25.6359 49.1069 25.2917 49.1069C25.177 49.1069 25.0623 49.1069 24.9476 49.1069C25.2917 48.7627 25.5211 48.4186 25.7506 48.0744C26.2094 47.5008 26.783 46.8125 27.2419 46.239L31.1423 41.3061L31.4864 40.8472L35.731 35.3408C35.9604 35.1114 36.0751 34.8819 36.3046 34.5378V34.3084V33.9642V33.5053V32.2435V32.014L35.2721 31.4404C34.6985 32.1287 34.1249 32.7023 33.5514 33.3906L29.0774 38.7823L24.7181 44.174C23.6857 45.4359 22.7679 46.6978 21.7355 47.9597C21.6207 48.0744 21.6208 48.1892 21.506 48.3039C21.1619 48.7627 20.703 49.2216 20.3589 49.6805L18.2939 52.2043H19.4411H20.8177H20.9325H21.6208H22.8826H23.4562H23.6857C23.8004 52.2043 24.0298 52.2043 24.1445 52.2043C24.2593 52.2043 24.4887 52.2043 24.6034 52.2043C24.8328 52.2043 25.0623 52.2043 25.2917 52.2043C25.4064 52.2043 25.6359 52.2043 25.7506 52.2043H25.8653C25.98 52.2043 26.0947 52.2043 26.3242 52.2043C26.8977 52.2043 27.3566 52.2043 27.9302 52.319L30.1098 52.5484C30.7981 52.5484 31.4864 52.7778 32.1747 52.8926C32.863 53.0073 33.5514 53.122 34.2397 53.3514L36.3046 53.8103L38.5989 54.1544C39.2872 54.2692 39.8608 54.6133 40.4344 54.728C40.8933 54.8428 41.2374 55.0722 41.6963 55.1869C42.0404 55.3016 42.3846 55.4163 42.614 55.5311C43.3023 55.7605 43.9906 55.9899 44.6789 56.3341C45.3672 56.6782 46.0555 56.9077 46.7438 57.1371C47.3174 57.3665 47.891 57.7107 48.4646 57.9401C49.2676 58.2843 49.9559 58.6284 50.759 58.9726C51.9061 59.5462 52.9386 60.1197 53.971 60.6933C54.2005 60.808 54.4299 60.9228 54.6593 61.0375C54.4299 60.8081 54.0857 60.5786 53.8563 60.3492C51.7914 58.7431 49.6118 57.2518 47.4322 55.8752C46.1703 55.0722 44.7936 54.3839 43.5317 53.8103C42.9582 53.4661 42.3846 53.2367 41.811 53.0073C41.6963 53.0073 41.5816 52.8926 41.5816 52.8926C40.8933 52.5484 40.2049 52.319 39.5166 51.9748L37.2223 51.2865Z" fill="white"/>
<path d="M58.5644 59.0936C59.3675 58.7495 60.0558 58.4053 60.8588 58.0612C61.4324 57.8317 62.006 57.4876 62.5795 57.2581C63.2679 56.914 63.9562 56.6845 64.6445 56.4551C65.3328 56.111 66.0211 55.8815 66.7094 55.6521C67.0535 55.5374 67.3977 55.4227 67.6271 55.3079C68.086 55.1932 68.4301 54.9638 68.889 54.8491C69.5773 54.6196 70.1509 54.3902 70.7245 54.2755L72.7894 53.7019L74.8543 53.243C75.5426 53.0136 76.2309 52.8989 76.9192 52.7842C77.6075 52.6694 78.2958 52.44 78.9841 52.44L81.1638 52.2106C81.7374 52.2106 82.1962 52.0959 82.7698 52.0959C82.8845 52.0959 82.9992 52.0959 83.2287 52.0959H83.3434C83.4581 52.0959 83.6875 52.0959 83.8023 52.0959C84.0317 52.0959 84.2611 52.0959 84.4906 52.0959C84.6053 52.0959 84.8347 52.0959 84.9494 52.0959C85.0641 52.0959 85.2936 52.0959 85.4083 52.0959H85.6377H86.2113H87.4732H88.1615H88.2762H89.6528H90.8L88.7351 49.5721C88.391 49.1132 87.9321 48.6543 87.5879 48.1955C87.4732 48.0808 87.4732 47.966 87.3585 47.8513C86.326 46.5894 85.4083 45.3275 84.3758 44.0656L80.0166 38.6739L75.5426 33.2822C74.969 32.5939 74.3955 32.0203 73.8219 31.332L72.7894 31.9056V32.1351V33.5117V33.7411V34.0852V34.3147C73.0188 34.5441 73.1335 34.7736 73.363 35.1177L77.6075 40.6241L77.9517 41.083L81.8521 46.0158C82.3109 46.5894 82.8845 47.2777 83.3434 47.8513C83.6875 48.1955 83.917 48.5396 84.1464 48.8838C84.0317 48.8838 83.917 48.8838 83.8023 48.8838C83.4581 48.8838 83.2287 48.8838 82.8845 48.8838H82.7698C82.6551 48.8838 82.5404 48.8838 82.4257 48.8838C82.3109 48.8838 82.3109 48.8838 82.1962 48.8838C81.9668 48.8838 81.8521 48.8838 81.6226 48.8838C81.3932 48.8838 81.1638 48.8838 81.049 48.9985C80.9343 48.9985 80.8196 48.9985 80.7049 48.9985L78.4106 49.3426C77.6075 49.4574 76.9192 49.6868 76.2309 49.8015C75.5426 49.9162 74.7396 50.1457 74.0513 50.3751L71.8717 51.0634L69.8068 51.8664C69.1185 52.0959 68.4301 52.44 67.7418 52.7842C67.6271 52.7842 67.5124 52.8989 67.5124 52.8989C66.9388 53.1283 66.3652 53.4725 65.7917 53.7019C64.415 54.3902 63.1531 55.0785 61.8912 55.7668C59.5969 57.1434 57.4173 58.6347 55.4671 60.2408C55.2377 60.4702 54.8935 60.6997 54.6641 60.9291C54.8935 60.8144 55.1229 60.6996 55.3524 60.5849C56.3848 60.2408 57.532 59.6672 58.5644 59.0936Z" fill="white"/>
<path d="M54.436 55.8824C54.436 57.1443 54.5507 58.1767 54.5507 58.9798C54.5507 59.7828 54.6654 60.2417 54.6654 60.2417C54.6654 60.2417 54.6654 59.7828 54.7802 58.9798C54.7802 58.1767 54.8949 57.1443 54.8949 55.8824C54.8949 54.5058 55.0096 53.0145 55.0096 51.4084C55.0096 50.4907 55.0096 49.4582 55.0096 48.4258H54.8949C54.7802 48.4258 54.6654 48.4258 54.6654 48.4258C54.5507 48.4258 54.436 48.4258 54.3213 48.4258C54.3213 49.4582 54.3213 50.376 54.3213 51.4084C54.3213 53.0145 54.436 54.6205 54.436 55.8824Z" fill="white"/>
<path d="M36.3103 1.49133C33.6718 2.6385 31.1481 4.01511 28.8537 5.50643C29.4273 5.9653 30.5745 5.85058 33.213 4.47397C36.1956 2.98265 40.3254 0 40.3254 0C40.3254 0 35.0485 0.114717 31.8364 1.72076C28.9684 3.09737 28.2801 4.24454 28.5096 4.93284C31.0334 3.67095 33.5571 2.52378 36.3103 1.49133Z" fill="white"/>
<path d="M39.9827 96.0165C38.0325 96.2459 35.9675 96.4754 34.0173 96.4754C35.8528 96.2459 37.803 96.0165 39.5238 95.5576C39.2943 95.3282 38.9502 95.2135 38.4913 95.0988C37.9177 94.984 37.2294 94.8693 36.3117 94.984C36.0823 94.984 35.8528 94.984 35.6234 94.984C34.4762 95.0988 33.3291 95.5576 32.526 95.9018C31.723 96.2459 31.1494 96.5901 31.1494 96.5901C31.1494 96.5901 31.2641 96.5901 31.3789 96.7048C31.4936 96.7048 31.4936 96.7048 31.6083 96.8195C31.8377 96.8195 32.0672 96.9342 32.4113 97.049C32.6407 97.049 32.8702 97.1637 33.0996 97.1637C33.6732 97.2784 34.2468 97.3931 34.8204 97.5078C35.1645 97.5078 35.5087 97.6225 35.8528 97.6225C36.0823 97.6225 36.197 97.6225 36.4264 97.6225C36.6558 97.6225 36.7706 97.6225 37 97.6225C37.2294 97.6225 37.3442 97.6225 37.5736 97.6225C37.6883 97.6225 37.9177 97.6225 38.0325 97.6225C39.4091 97.3931 40.0974 97.1637 40.2121 96.8195C40.2121 96.7048 40.3268 96.5901 40.2121 96.4754C40.0974 96.1312 39.9827 96.1312 39.9827 96.0165Z" fill="white"/>
<path d="M31.6092 94.849C33.6741 94.7343 34.1329 94.2754 33.7888 93.7018C31.8386 93.7018 29.8884 93.7018 27.9382 93.5871C29.7737 93.5871 31.6092 93.4724 33.3299 93.2429C32.7563 92.6693 31.7239 92.3252 29.659 92.3252C27.3647 92.3252 25.0703 93.4724 25.0703 93.4724C25.185 93.3577 29.2001 94.9637 31.6092 94.849Z" fill="white"/>
<path d="M28.2792 90.7476C26.4437 90.6328 24.6082 90.4034 22.658 89.9445C24.4935 90.174 26.2143 90.174 27.935 90.174C27.4762 89.6004 26.5584 89.0268 24.6082 88.9121C22.4286 88.6826 20.0195 89.4857 20.0195 89.4857C20.0195 89.4857 23.6905 91.5506 25.9848 91.6653C28.0498 91.8947 28.5086 91.4359 28.2792 90.7476Z" fill="white"/>
<path d="M23.2305 87.3136C21.395 86.9695 19.6742 86.5106 17.9535 85.937C19.6742 86.2812 21.395 86.5106 23.1157 86.74C22.7716 86.0517 21.8538 85.4781 20.0184 85.134C17.9534 84.6751 15.4297 85.2487 15.4297 85.2487C15.4297 85.2487 18.7565 87.6578 20.9361 88.0019C22.8863 88.3461 23.3452 88.0019 23.2305 87.3136Z" fill="white"/>
<path d="M18.8765 83.4066C17.1558 82.833 15.435 82.2595 13.829 81.5712C15.435 82.1447 17.1558 82.6036 18.7618 82.9478C18.4177 82.2595 17.7294 81.5712 15.8939 80.9976C13.829 80.3093 11.4199 80.6534 11.4199 80.6534C11.4199 80.6534 14.4026 83.2919 16.4675 83.9802C18.4177 84.4391 18.8765 84.0949 18.8765 83.4066Z" fill="white"/>
<path d="M15.0862 79.1565C13.4801 78.4682 11.8741 77.6652 10.3827 76.7475C11.9888 77.4358 13.4801 78.0094 15.0862 78.5829C14.8567 77.8946 14.1684 77.0916 12.5624 76.4033C10.6122 75.4856 8.20312 75.6003 8.20312 75.6003C8.20312 75.6003 10.8416 78.5829 12.7918 79.386C14.3979 79.9596 14.9714 79.7301 15.0862 79.1565Z" fill="white"/>
<path d="M11.8714 74.431C10.3801 73.628 8.88877 72.5955 7.51216 71.5631C9.00349 72.4808 10.4948 73.1691 11.9861 73.8574C11.8714 73.1691 11.2978 72.3661 9.6918 71.3336C9.0035 70.8748 8.31519 70.6453 7.62689 70.4159C6.47971 70.0717 5.44727 69.957 5.44727 69.957C5.44727 69.957 5.79141 70.4159 6.25028 71.1042C7.0533 72.1367 8.4299 73.628 9.57708 74.3163C11.0684 75.234 11.7567 75.0046 11.8714 74.431Z" fill="white"/>
<path d="M34.01 90.0287C32.7481 88.308 30.1096 85.8989 30.1096 85.7842C30.1096 85.7842 29.8802 88.1932 30.9126 90.1434C31.9451 91.7495 32.9776 92.3231 33.6659 92.4378C32.7481 90.9465 31.8304 89.4551 31.1421 87.9638C32.0598 89.4551 33.0923 90.9465 34.2394 92.3231C35.0425 92.2083 35.0425 91.6348 34.01 90.0287Z" fill="white"/>
<path d="M28.9711 87.199C28.0534 85.3636 25.759 82.7251 25.759 82.6104C25.759 82.6104 25.1854 85.0194 25.9885 86.9696C26.6768 88.6904 27.5945 89.3787 28.3975 89.4934C27.7092 88.0021 27.0209 86.396 26.562 84.9047C27.2503 86.5107 28.0534 88.0021 28.9711 89.6081C29.6594 89.4934 29.7741 88.9198 28.9711 87.199Z" fill="white"/>
<path d="M24.494 83.8464C23.8057 81.8963 21.9702 79.0283 21.9702 79.0283C21.9702 79.0283 21.0525 81.3227 21.6261 83.3876C22.085 85.2231 22.888 85.9114 23.5763 86.1408C23.1174 84.5348 22.6585 82.9287 22.4291 81.4374C22.888 83.0434 23.4616 84.6495 24.1499 86.2555C24.8382 86.1408 25.0676 85.5672 24.494 83.8464Z" fill="white"/>
<path d="M20.4808 80.1735C20.022 78.2233 18.6453 75.126 18.6453 75.126C18.6453 75.126 17.4982 77.3056 17.7276 79.3705C17.957 81.206 18.6454 82.009 19.3337 82.3532C19.1042 80.7471 18.8748 79.1411 18.7601 77.535C18.9895 79.1411 19.3336 80.8618 19.7925 82.4679C20.4808 82.4679 20.825 81.8943 20.4808 80.1735Z" fill="white"/>
<path d="M16.2369 78.2421C16.8104 78.3568 17.1546 77.7832 17.0399 76.0624C16.9252 74.1122 15.778 70.9001 15.778 70.9001C15.778 70.9001 14.4014 72.9651 14.4014 75.03C14.4014 76.8654 14.975 77.7832 15.6633 78.1273C15.5485 76.5213 15.5485 74.9152 15.6633 73.3092C15.778 74.9152 15.8927 76.5213 16.2369 78.2421Z" fill="white"/>
<path d="M13.0241 73.6534C13.5977 73.7681 14.0565 73.3093 14.1713 71.5885C14.286 70.3266 13.9418 68.6059 13.8271 67.4587C13.7124 66.7704 13.5977 66.3115 13.5977 66.3115C13.5977 66.3115 12.9094 66.9998 12.4505 68.147C12.1064 68.7206 11.8769 69.5236 11.7622 70.2119C11.6475 72.0474 11.9916 72.9651 12.5652 73.424C12.6799 71.818 12.9094 70.2119 13.1388 68.7206C13.0241 70.3266 13.0241 71.9327 13.0241 73.6534Z" fill="white"/>
<path d="M40.6641 93.6198C40.5494 93.5051 40.4347 93.2757 40.32 93.161C40.0905 92.9315 39.9758 92.5874 39.6317 92.3579C39.2875 91.8991 38.7139 91.5549 38.2551 91.096C38.0256 90.8666 37.7962 90.6372 37.452 90.4077C37.2226 90.1783 36.9932 89.9489 36.7637 89.8342C36.5343 89.6047 36.3049 89.49 36.0754 89.3753C35.9607 89.2606 35.846 89.2606 35.7313 89.1459C35.6166 89.0311 35.3871 88.9164 35.3871 88.8017C35.2724 88.687 35.1577 88.687 35.1577 88.5723C35.1577 88.5723 35.1577 88.5723 35.043 88.5723C35.043 88.5723 35.043 88.5723 35.043 88.687C35.043 88.9164 35.1577 89.3753 35.2724 90.0636C35.3871 90.293 35.3871 90.6372 35.5018 90.9813C35.6165 91.4402 35.846 91.7843 36.0754 92.2432C36.1901 92.4727 36.4196 92.7021 36.5343 92.9315C36.9932 93.5051 37.452 93.964 37.9109 94.1934C38.0256 94.3081 38.1403 94.4228 38.3698 94.4228C38.8286 94.6523 39.1728 94.767 39.5169 94.767C39.6317 94.767 39.7464 94.767 39.8611 94.767C38.5992 93.3904 37.5667 92.0138 36.649 90.6372C37.7962 92.0138 39.0581 93.3904 40.5494 94.6523C40.6641 94.5376 40.7788 94.5376 40.8936 94.4228C41.0083 94.3081 41.0083 94.1934 40.8936 93.964C40.7788 93.8493 40.6641 93.7345 40.6641 93.6198Z" fill="white"/>
<path d="M6.82675 69.0628C7.1709 69.2922 7.40033 69.4069 7.62977 69.5217C7.8592 69.6364 8.08863 69.7511 8.20335 69.7511C8.66222 69.8658 8.89166 69.7511 9.12109 69.5217C9.12109 69.4069 9.2358 69.4069 9.2358 69.2922C8.5475 68.8333 7.85921 68.2598 7.1709 67.6862C6.4826 67.1126 5.79428 66.539 5.2207 65.9654C5.909 66.4243 6.59731 66.9979 7.28561 67.4567C7.97391 67.9156 8.66222 68.3745 9.35052 68.8334C9.35052 68.6039 9.23581 68.2598 9.12109 67.9156C9.00638 67.5715 8.66223 67.2273 8.31808 66.8832C8.08864 66.6537 7.74449 66.4243 7.40033 66.0801C6.94147 65.736 6.4826 65.5065 6.02373 65.2771C4.64712 64.5888 3.27051 64.3594 3.27051 64.3594C3.27051 64.3594 3.38523 64.5888 3.61466 64.933C3.72938 65.0477 3.8441 65.2771 3.95882 65.5065C4.07354 65.6213 4.07353 65.736 4.18825 65.8507C4.5324 66.3096 4.87655 66.8832 5.33542 67.342C5.79429 68.145 6.36788 68.7186 6.82675 69.0628Z" fill="white"/>
<path d="M4.87765 63.653C6.25426 64.9149 6.94256 64.8002 7.172 64.2266C5.91011 63.0794 4.6482 61.8175 3.50103 60.5556C4.76292 61.7028 6.02481 62.7353 7.2867 63.7677C7.40142 63.0794 6.94256 62.1617 5.68067 60.8998C4.18935 59.5232 1.78027 58.7202 1.78027 58.7202C1.78027 58.6054 3.27161 62.2764 4.87765 63.653Z" fill="white"/>
<path d="M5.67554 58.8524C4.52837 57.5905 3.49591 56.2139 2.46346 54.7226C3.61063 55.9845 4.7578 57.2464 5.90497 58.2788C6.01969 57.5905 5.79026 56.6728 4.52837 55.1815C3.15176 53.5754 0.972139 52.543 0.857422 52.543C0.857422 52.543 1.88987 56.3286 3.3812 57.82C4.75781 59.426 5.33139 59.426 5.67554 58.8524Z" fill="white"/>
<path d="M4.76264 53.3494C3.73019 51.9728 2.81245 50.4814 2.00943 48.8754C2.92717 50.252 3.95962 51.6286 4.99207 52.7758C5.22151 52.0875 4.99208 51.1697 3.95962 49.5637C2.81245 47.8429 0.632812 46.5811 0.632812 46.5811C0.632812 46.5811 1.32113 50.4814 2.58302 52.0875C3.84491 53.8082 4.41849 53.8082 4.76264 53.3494Z" fill="white"/>
<path d="M4.52798 47.8298C3.72496 46.3385 2.92194 44.7324 2.23364 43.1264C3.03666 44.6177 3.9544 45.9943 4.87214 47.3709C5.10157 46.6826 5.10157 45.7649 4.18383 44.1588C3.26609 42.3234 1.20117 40.832 1.20117 40.832C1.20117 40.832 1.43062 44.7324 2.57779 46.5679C3.49553 48.0592 4.06911 48.1739 4.52798 47.8298Z" fill="white"/>
<path d="M4.76073 42.2213C4.07242 40.6152 3.49883 39.0092 2.92524 37.2884C3.61355 38.8945 4.30185 40.3858 4.99016 41.7624C5.33431 41.0741 5.33431 40.1564 4.646 38.4356C3.84298 36.4854 2.00752 34.7646 2.00752 34.7646C2.00752 34.7646 1.8928 38.665 2.81054 40.6152C3.72827 42.4507 4.30186 42.6801 4.76073 42.2213Z" fill="white"/>
<path d="M5.67993 36.7017C5.22106 35.0956 4.76219 33.3749 4.41804 31.5394C4.87691 33.1454 5.4505 34.7515 6.02409 36.2428C6.48296 35.6692 6.59768 34.6368 6.02409 32.916C5.79465 32.113 5.4505 31.4247 5.10635 30.8511C4.53276 29.8186 3.84445 29.0156 3.84445 29.0156C3.84445 29.0156 3.72974 29.5892 3.72974 30.3922C3.61503 31.7688 3.61502 33.719 3.95917 34.9809C4.53276 36.8164 5.22106 37.0458 5.67993 36.7017Z" fill="white"/>
<path d="M10.0419 62.0363C10.6155 60.0861 10.6155 56.874 10.6155 56.874C10.6155 56.874 8.66528 58.3653 7.97698 60.2008C7.40339 61.9216 7.63282 62.954 8.09169 63.4129C8.55055 61.9216 9.12415 60.3155 9.69774 58.9389C9.23887 60.4303 8.77999 62.0363 8.43584 63.7571C9.00943 63.9865 9.58302 63.6423 10.0419 62.0363Z" fill="white"/>
<path d="M8.77827 56.904C9.46658 55.0685 9.81073 51.8564 9.92545 51.8564C9.92545 51.8564 7.74581 53.1183 6.94279 54.9538C6.25449 56.5599 6.25449 57.5923 6.71336 58.1659C7.40166 56.6746 8.08997 55.298 8.77827 53.9214C8.08997 55.4127 7.51638 56.904 7.05752 58.51C7.6311 58.8542 8.08997 58.6248 8.77827 56.904Z" fill="white"/>
<path d="M8.09206 51.8362C9.00979 50.1154 9.69811 46.9033 9.69811 46.9033C9.69811 46.9033 7.40375 47.8211 6.3713 49.6565C5.45356 51.1479 5.45356 52.1803 5.79771 52.8686C6.60073 51.492 7.40377 50.1154 8.3215 48.8535C7.51848 50.2301 6.83017 51.7214 6.14187 53.2128C6.71545 53.5569 7.28903 53.3275 8.09206 51.8362Z" fill="white"/>
<path d="M5.68196 47.3829C6.5997 46.121 7.63214 44.8591 8.6646 43.712C7.74686 44.9739 6.82914 46.3505 6.02612 47.8418C6.48499 48.3007 7.05856 48.0712 8.09101 46.6946C9.23819 45.0886 10.1559 41.9912 10.2707 41.9912C10.2707 41.9912 7.9763 42.6795 6.71441 44.2856C5.45252 45.6622 5.33781 46.6946 5.68196 47.3829Z" fill="white"/>
<path d="M6.02889 41.8635C7.06134 40.7163 8.20851 39.5692 9.35568 38.5367C8.32323 39.6839 7.29077 41.0605 6.25832 42.3224C6.60247 42.7812 7.29077 42.6665 8.43794 41.4046C9.69983 39.9133 11.0764 36.9307 11.0764 36.9307C11.0764 36.9307 8.66738 37.3895 7.29077 38.8809C6.02888 40.2575 5.79945 41.1752 6.02889 41.8635Z" fill="white"/>
<path d="M7.05259 37.0515C7.39674 37.6251 7.97032 37.5104 9.23221 36.3632C10.1499 35.5602 11.0677 34.0689 11.756 33.1511C12.1002 32.5775 12.3296 32.2334 12.3296 32.2334C12.3296 32.2334 11.4118 32.3481 10.2647 32.6923C9.57637 32.9217 8.88806 33.2659 8.42919 33.7247C7.05258 34.8719 6.82314 35.9044 6.93786 36.5927C8.08503 35.5602 9.34694 34.5277 10.6088 33.61C9.34694 34.6425 8.19976 35.7896 7.05259 37.0515Z" fill="white"/>
<path d="M10.7279 68.9416C10.8426 68.9416 10.9573 68.9416 11.072 68.8269C11.3015 68.7121 11.4162 68.4827 11.5309 68.0238C11.6456 67.7944 11.7603 67.3355 11.7603 66.9914C11.7603 66.7619 11.875 66.5325 11.875 66.1884C11.875 65.9589 11.875 65.6148 11.875 65.3853C11.875 65.0412 11.875 64.8118 11.875 64.4676C11.875 64.1234 11.875 63.894 11.875 63.6646C11.875 62.6321 11.7603 61.8291 11.7603 61.8291C11.7603 61.8291 11.7603 61.8291 11.6456 61.9438C11.5309 62.0585 11.3015 62.288 11.072 62.5174C10.4984 63.2057 9.69542 64.3529 9.46598 65.5001C9.12183 67.2208 9.46598 68.2533 9.92484 68.7121C10.269 67.1061 10.6131 65.6148 11.072 64.1234C10.7279 65.7295 10.4984 67.3355 10.3837 69.0563C10.6131 68.8269 10.6131 68.9416 10.7279 68.9416Z" fill="white"/>
<path d="M9.23998 26.1665C9.12526 24.4457 9.12527 22.725 9.12527 20.8895C9.23999 22.6102 9.35471 24.2163 9.69886 25.937C10.2724 25.4782 10.6166 24.5604 10.5019 22.6102C10.3872 20.5453 9.23998 18.251 9.23998 18.251C9.23998 18.251 7.74866 21.9219 7.9781 24.1016C8.09282 26.0518 8.66639 26.3959 9.23998 26.1665Z" fill="white"/>
<path d="M11.7561 21.1047C11.8708 19.3839 11.9855 17.5485 12.3297 15.8277C12.215 17.5485 12.215 19.2692 12.3297 20.8753C12.9033 20.4164 13.3621 19.6134 13.4769 17.6632C13.5916 15.5983 12.6738 13.1892 12.6738 13.1892C12.6738 13.1892 10.8384 16.7454 10.7236 18.9251C10.7236 20.8753 11.1825 21.3341 11.7561 21.1047Z" fill="white"/>
<path d="M15.0841 16.5149C15.3135 14.7941 15.7724 13.0733 16.2313 11.2379C15.8871 12.9586 15.6577 14.6794 15.543 16.2854C16.2313 15.9413 16.6902 15.1382 17.149 13.1881C17.6079 11.1231 16.9196 8.59937 16.9196 8.59937C16.9196 8.59937 14.6252 11.9262 14.2811 14.1058C13.9369 16.056 14.3958 16.6296 15.0841 16.5149Z" fill="white"/>
<path d="M18.8686 12.1685C19.3274 10.4477 20.0158 8.72696 20.7041 7.0062C20.1305 8.72696 19.6716 10.333 19.3275 11.939C20.0158 11.5949 20.7041 10.9066 21.2776 9.07111C21.9659 7.0062 21.7365 4.48242 21.7365 4.48242C21.7365 4.48242 18.9833 7.57979 18.4097 9.75942C17.8361 11.7096 18.1803 12.1685 18.8686 12.1685Z" fill="white"/>
<path d="M23.2323 8.2423C23.9207 6.63625 24.8384 4.91549 25.8708 3.30945C25.0678 4.91549 24.3795 6.52154 23.8059 8.12758C24.609 7.89814 25.2973 7.20984 26.215 5.48908C27.2475 3.53889 27.2475 0.900391 27.2475 0.900391C27.2475 0.900391 23.9206 3.6536 23.1176 5.71851C22.3146 7.55399 22.544 8.2423 23.2323 8.2423Z" fill="white"/>
<path d="M12.5595 23.7548C10.9535 24.5578 10.4946 25.4756 10.3799 26.1639C11.7565 25.3609 13.2478 24.6725 14.6244 24.099C13.2478 24.902 11.7565 25.8197 10.4946 26.7375C10.724 27.311 11.2976 27.4258 12.789 26.508C14.5097 25.4756 16.6893 23.0665 16.8041 23.0665C16.8041 23.0665 14.2803 22.8371 12.5595 23.7548Z" fill="white"/>
<path d="M17.4916 19.7417C16.0002 20.43 14.5089 21.1183 13.0176 21.9214C13.1323 22.4949 13.7059 22.7244 15.3119 21.9214C17.1474 21.1183 19.6712 18.9387 19.6712 18.9387C19.6712 18.9387 17.2621 18.3651 15.4266 19.1681C13.7059 19.8564 13.1323 20.6595 13.0176 21.3478C14.5089 20.7742 16.0002 20.2006 17.4916 19.7417Z" fill="white"/>
<path d="M18.5287 17.6854C20.4789 16.9971 23.2321 15.1616 23.2321 15.1616C23.2321 15.1616 20.9378 14.3586 18.8729 14.9321C17.1521 15.391 16.3491 16.194 16.2344 16.8823C17.8404 16.4235 19.3317 15.9646 20.9378 15.7352C19.3317 16.194 17.7257 16.7676 16.2344 17.4559C16.2344 18.0295 16.808 18.2589 18.5287 17.6854Z" fill="white"/>
<path d="M22.2029 13.6555C24.1531 13.1966 27.2505 11.7053 27.3652 11.7053C27.3652 11.7053 25.0708 10.5581 23.0059 10.9023C21.1704 11.2464 20.3674 11.9348 20.0232 12.5083C21.6293 12.1642 23.2353 11.9348 24.9561 11.82C23.2353 12.1642 21.6293 12.5083 19.9086 12.9672C19.7938 13.7702 20.3674 13.9997 22.2029 13.6555Z" fill="white"/>
<path d="M24.2659 8.82188C25.9867 8.70716 27.5927 8.59244 29.3135 8.70716C27.5927 8.82188 25.872 9.05131 24.0365 9.39546C23.9218 9.96905 24.4954 10.3132 26.3308 10.1985C28.3957 9.96905 31.7226 8.70716 31.8373 8.70716C31.8373 8.70716 29.6576 7.33055 27.5927 7.44527C25.6425 7.55999 24.7248 8.13357 24.2659 8.82188Z" fill="white"/>
<path d="M5.7914 30.0577C5.90612 30.4019 6.02084 30.746 6.13556 30.9754C6.25028 31.2049 6.365 31.3196 6.47971 31.4343C6.70915 31.549 6.82387 31.549 7.0533 31.4343C6.70915 29.7136 6.47971 27.9928 6.36499 26.1573C6.59442 27.8781 7.05329 29.4841 7.51216 31.0902C7.7416 30.8607 7.97104 30.4019 7.97104 29.943C7.97104 29.8283 7.97104 29.7136 7.97104 29.4841C7.97104 29.3694 7.97104 29.14 7.97104 29.0253C7.97104 28.6811 7.97104 28.3369 7.85632 27.8781C7.85632 27.8781 7.85632 27.8781 7.85632 27.7634C7.7416 27.4192 7.7416 26.9603 7.62689 26.6162C7.51217 26.272 7.39746 25.9279 7.16802 25.5837C6.93859 25.1249 6.70916 24.7807 6.59444 24.4366C6.365 23.9777 6.13556 23.6335 6.13556 23.6335C6.13556 23.6335 6.13557 23.7483 6.02085 24.0924C6.02085 24.2071 5.90613 24.4366 5.90613 24.666C5.79141 25.0101 5.79141 25.469 5.6767 25.9279C5.6767 26.0426 5.67669 26.272 5.56197 26.3868C5.44726 26.8456 5.44727 27.4192 5.44727 27.8781C5.44727 28.5664 5.44726 29.14 5.56197 29.7136C5.67669 29.7136 5.7914 29.943 5.7914 30.0577Z" fill="white"/>
<path d="M14.2831 27.5369C14.0537 27.5369 14.0537 27.5369 13.8243 27.5369C13.5948 27.5369 13.2507 27.5369 12.7918 27.6516C12.5624 27.6516 12.3329 27.7663 12.1035 27.7663C11.7594 27.881 11.4152 27.9957 10.9563 28.1105C10.7269 28.2252 10.4975 28.3399 10.268 28.4546C10.1533 28.4546 10.0386 28.5693 10.0386 28.5693C9.80917 28.684 9.69445 28.7988 9.57973 28.9135C9.46501 29.0282 9.23558 29.1429 9.12087 29.2576C9.00615 29.3723 8.89143 29.4871 8.77671 29.6018C8.54728 29.8312 8.43257 30.0606 8.31785 30.2901C8.20313 30.5195 8.20312 30.749 8.20312 30.8637C8.20312 30.9784 8.20312 31.0931 8.20312 31.0931C8.89143 30.6342 9.46501 30.1754 10.1533 29.7165C10.8416 29.2576 11.5299 28.9135 12.1035 28.4546C11.4152 28.9135 10.8416 29.3723 10.1533 29.9459C9.46501 30.4048 8.89143 30.9784 8.20312 31.552C8.31784 31.6667 8.31784 31.7814 8.43256 31.8961C8.54727 31.8961 8.66199 32.0108 8.77671 32.0108C9.00615 32.0108 9.35029 31.8961 9.80916 31.6667C10.0386 31.552 10.268 31.4373 10.4975 31.2078C10.8416 30.8637 11.3005 30.5195 11.6446 30.0606C12.1035 29.6018 12.4477 29.2576 12.7918 28.7988C13.136 28.4546 13.3654 28.1105 13.5948 27.881C14.0537 27.881 14.1684 27.7663 14.2831 27.5369Z" fill="white"/>
<path d="M80.4761 5.50643C78.1818 4.01511 75.7727 2.6385 73.0195 1.49133C75.7727 2.52378 78.2965 3.67095 80.7055 4.93284C80.8203 4.24454 80.2466 3.09737 77.3787 1.72076C74.1666 0.114717 68.8896 0 68.8896 0C69.0044 0 73.1342 2.86793 76.0021 4.47397C78.7553 5.85058 79.9025 5.9653 80.4761 5.50643Z" fill="white"/>
<path d="M75.8859 93.2502C77.7214 93.4797 79.4421 93.5944 81.2776 93.5944C79.3274 93.7091 77.3772 93.8238 75.427 93.7091C75.0829 94.2827 75.5417 94.8563 77.6066 94.8563C80.0157 94.971 84.0308 93.3649 84.0308 93.3649C84.0308 93.3649 81.7365 92.2178 79.4421 92.2178C77.6066 92.2178 76.5742 92.6766 75.8859 93.2502Z" fill="white"/>
<path d="M84.834 88.91C82.8838 89.1395 81.9661 89.5983 81.5072 90.1719C83.228 90.1719 85.0634 90.0572 86.7842 89.9425C84.9487 90.2866 83.1133 90.5161 81.1631 90.7455C80.9336 91.3191 81.3925 91.778 83.4574 91.6632C85.7518 91.5485 89.4227 89.5983 89.4227 89.4836C89.4227 89.5983 87.0136 88.6806 84.834 88.91Z" fill="white"/>
<path d="M89.4218 85.134C87.5863 85.5929 86.6686 86.1664 86.3245 86.74C88.0452 86.5106 89.766 86.2812 91.4867 85.937C89.766 86.5106 87.9305 86.9695 86.2097 87.3136C86.095 87.8872 86.5539 88.3461 88.5041 88.0019C90.7984 87.6578 94.1252 85.2487 94.0105 85.2487C94.0105 85.2487 91.6014 84.6751 89.4218 85.134Z" fill="white"/>
<path d="M93.4397 80.8593C91.6042 81.4328 90.9159 82.1211 90.5717 82.8095C92.1778 82.4653 93.8985 82.0064 95.5046 81.4328C93.7838 82.1212 92.1778 82.8095 90.457 83.2683C90.457 83.8419 91.0306 84.3008 92.8661 83.7272C95.0457 83.1536 98.0284 80.5151 97.9137 80.4004C98.0284 80.5151 95.5046 80.2857 93.4397 80.8593Z" fill="white"/>
<path d="M94.3584 78.5874C95.9644 78.0138 97.4558 77.4402 99.0618 76.7519C97.4558 77.6696 95.9644 78.4726 94.3584 79.1609C94.3584 79.7345 94.932 80.0787 96.7675 79.2757C98.8324 78.4726 101.471 75.49 101.356 75.49C101.356 75.49 98.8324 75.49 96.9969 76.293C95.2761 77.096 94.5878 77.7843 94.3584 78.5874Z" fill="white"/>
<path d="M99.7484 71.3336C98.1424 72.2514 97.5688 73.0544 97.4541 73.8574C98.9454 73.1691 100.437 72.3661 101.928 71.5631C100.437 72.5955 99.0602 73.5133 97.5688 74.431C97.6835 75.0046 98.2571 75.234 99.9779 74.3163C101.125 73.628 102.502 72.2514 103.305 71.1042C103.764 70.5306 104.108 69.957 104.108 69.957C104.108 69.957 103.075 70.0717 101.928 70.4159C101.24 70.6453 100.437 70.9895 99.7484 71.3336Z" fill="white"/>
<path d="M78.4105 90.1434C79.5577 88.308 79.2135 85.7842 79.2135 85.7842C79.2135 85.7842 76.575 88.1932 75.3131 90.0287C74.2807 91.6348 74.2807 92.2083 74.969 92.4378C76.1161 90.9465 77.1486 89.5698 78.0663 88.0785C77.378 89.5698 76.4603 91.0612 75.5426 92.5525C76.3456 92.3231 77.378 91.7495 78.4105 90.1434Z" fill="white"/>
<path d="M83.3435 87.077C84.1465 85.1268 83.573 82.7178 83.573 82.7178C83.573 82.7178 81.3933 85.3563 80.3609 87.3065C79.5578 89.0272 79.6725 89.6008 80.3609 89.7155C81.2786 88.2242 82.0816 86.6182 82.7699 85.0121C82.3111 86.5034 81.6227 88.1095 80.9344 89.6008C81.7375 89.4861 82.6552 88.7978 83.3435 87.077Z" fill="white"/>
<path d="M87.8183 83.3876C88.3919 81.3227 87.4742 79.0283 87.4742 79.0283C87.4742 79.0283 85.6387 81.8963 84.9504 83.8464C84.3768 85.5672 84.6063 86.1408 85.1799 86.2555C85.8682 84.6495 86.4417 83.0434 86.9006 81.4374C86.5565 83.0434 86.2123 84.6495 85.7534 86.1408C86.5565 85.9114 87.2448 85.2231 87.8183 83.3876Z" fill="white"/>
<path d="M91.6044 79.3705C91.9486 77.3056 90.6867 75.126 90.6867 75.126C90.6867 75.126 89.31 78.1086 88.8512 80.1735C88.507 81.8943 88.8512 82.4679 89.4248 82.4679C89.8836 80.7471 90.2278 79.1411 90.4572 77.535C90.3425 79.1411 90.2278 80.7471 89.8837 82.3532C90.6867 82.009 91.375 81.206 91.6044 79.3705Z" fill="white"/>
<path d="M94.9291 75.03C94.9291 72.9651 93.5524 70.9001 93.5524 70.9001C93.5524 70.9001 92.52 73.9975 92.2905 76.0624C92.1758 77.7832 92.52 78.3568 93.0936 78.2421C93.323 76.5213 93.5524 74.9152 93.5524 73.1945C93.6671 74.8005 93.6671 76.4066 93.5524 78.0126C94.3555 77.6685 94.9291 76.7507 94.9291 75.03Z" fill="white"/>
<path d="M97.6837 70.3193C97.569 69.5163 97.3396 68.828 96.9954 68.2544C96.4218 67.222 95.8482 66.4189 95.8482 66.4189C95.8482 66.4189 95.7335 66.8778 95.6188 67.5661C95.3894 68.7133 95.1599 70.4341 95.2747 71.6959C95.3894 73.4167 95.7335 73.9903 96.4218 73.7608C96.4218 72.0401 96.4218 70.434 96.3071 68.7133C96.5365 70.2046 96.766 71.8107 96.8807 73.4167C97.3396 72.9578 97.7984 72.0401 97.6837 70.3193Z" fill="white"/>
<path d="M73.7083 94.9629C73.4789 94.9629 73.2495 94.9629 73.02 94.9629C72.1023 94.9629 71.414 94.9629 70.8404 95.0776C70.3815 95.1923 70.1521 95.307 69.808 95.5365C71.6434 95.8806 73.4789 96.2248 75.3144 96.4542C73.2495 96.4542 71.2993 96.2248 69.3491 95.9953C69.2343 96.1101 69.2344 96.2248 69.2344 96.4542V96.5689C69.3491 96.9131 70.0374 97.2572 71.414 97.372C71.5287 97.372 71.7581 97.372 71.8729 97.372C71.9876 97.372 72.217 97.372 72.4464 97.372C72.6759 97.372 72.7906 97.372 73.02 97.372C73.2495 97.372 73.3642 97.372 73.5936 97.372C73.9378 97.372 74.2819 97.2572 74.6261 97.2572C75.1997 97.1425 75.888 97.0278 76.3468 96.9131C76.5763 96.9131 76.8057 96.7984 77.0351 96.7984C77.3793 96.6836 77.6087 96.6837 77.8382 96.5689C77.9529 96.5689 77.9529 96.5689 78.0676 96.4542C78.1823 96.4542 78.297 96.4542 78.297 96.3395C78.297 96.3395 77.7234 95.9953 76.9204 95.6512C76.0027 95.5365 74.9702 95.0776 73.7083 94.9629Z" fill="white"/>
<path d="M72.9042 90.6372C71.9865 92.0138 70.8393 93.3904 69.6922 94.767C69.8069 94.767 69.9216 94.767 70.0363 94.767C70.3805 94.767 70.7246 94.6523 71.1835 94.4228C71.4129 94.3081 71.6424 94.0787 71.9865 93.8493C72.3307 93.6198 72.6748 93.2757 73.019 92.8168C73.5926 92.1285 73.9367 91.4402 74.1661 90.7519C74.3956 90.0636 74.5103 89.3753 74.5103 89.0311C74.5103 88.9164 74.5103 88.8017 74.5103 88.687C74.5103 88.5723 74.5103 88.5723 74.5103 88.5723C74.5103 88.5723 74.5103 88.5723 74.3956 88.5723C74.3956 88.5723 74.2809 88.687 74.1661 88.8017C74.0514 88.9164 73.9367 89.0311 73.822 89.1459C73.7073 89.2606 73.5925 89.2606 73.4778 89.3753C73.2484 89.49 73.019 89.7194 72.7895 89.8342C72.5601 90.0636 72.3307 90.1783 72.1012 90.4077C71.8718 90.6372 71.6424 90.8666 71.2982 91.096C70.8393 91.5549 70.2657 92.0138 69.9216 92.3579C69.5774 92.7021 69.4627 92.9315 69.2333 93.161C69.1186 93.3904 69.0039 93.5051 68.8891 93.6198C68.8891 93.7345 68.7744 93.8493 68.7744 93.964C68.7744 94.1934 68.7744 94.3081 68.7744 94.4228C68.8891 94.5376 69.0039 94.6523 69.1186 94.6523C70.4952 93.3904 71.7571 92.0138 72.9042 90.6372Z" fill="white"/>
<path d="M102.155 63.6672C103.417 62.6347 104.679 61.6022 105.941 60.4551C104.794 61.8317 103.532 62.9789 102.27 64.126C102.499 64.6996 103.188 64.8143 104.564 63.5524C106.17 62.1758 107.662 58.5049 107.662 58.5049C107.662 58.5049 105.253 59.3079 103.761 60.6845C102.385 62.0611 102.041 62.9789 102.155 63.6672Z" fill="white"/>
<path d="M104.796 55.2878C103.649 56.6644 103.305 57.5822 103.419 58.3852C104.566 57.238 105.714 56.0908 106.861 54.8289C105.828 56.3203 104.796 57.6969 103.649 58.9588C103.993 59.5324 104.566 59.5323 105.828 58.1557C107.32 56.5497 108.352 52.8787 108.352 52.8787C108.467 52.6493 106.173 53.6818 104.796 55.2878Z" fill="white"/>
<path d="M106.744 52.3023C108.006 50.5816 108.694 46.7959 108.694 46.7959C108.694 46.7959 106.515 48.0578 105.368 49.7786C104.335 51.2699 104.106 52.3023 104.335 52.9906C105.368 51.7287 106.4 50.4669 107.318 49.0902C106.4 50.6963 105.482 52.0729 104.565 53.5642C104.909 53.7937 105.597 53.7937 106.744 52.3023Z" fill="white"/>
<path d="M105.255 44.0534C104.452 45.6594 104.337 46.6919 104.566 47.2654C105.484 45.8888 106.402 44.5122 107.205 43.0209C106.516 44.6269 105.713 46.233 104.91 47.7243C105.369 48.1832 105.943 48.0685 106.861 46.4624C108.008 44.6269 108.237 40.7266 108.237 40.7266C108.237 40.7266 106.172 42.2179 105.255 44.0534Z" fill="white"/>
<path d="M104.221 41.8613C105.024 40.37 105.713 38.8787 106.286 37.3873C105.713 39.1081 105.139 40.7141 104.451 42.3202C104.909 42.6643 105.483 42.5496 106.286 40.8289C107.204 38.8787 107.089 34.9783 107.089 34.9783C107.089 34.9783 105.254 36.699 104.451 38.6492C103.877 40.2553 103.877 41.173 104.221 41.8613Z" fill="white"/>
<path d="M103.305 36.3502C103.879 34.8589 104.452 33.2529 104.911 31.6468C104.567 33.3676 104.108 35.0883 103.649 36.8091C104.108 37.1533 104.796 36.9238 105.255 35.0883C105.714 33.8265 105.599 31.8763 105.485 30.4997C105.37 29.6966 105.37 29.123 105.37 29.123C105.37 29.123 104.682 29.9261 104.108 30.9585C103.764 31.5321 103.42 32.3351 103.19 33.0234C102.846 34.7442 102.961 35.7766 103.305 36.3502Z" fill="white"/>
<path d="M99.8636 65.3926C99.8636 65.1632 99.7489 64.9338 99.6342 64.7043C99.5195 64.4749 99.4047 64.2455 99.29 64.016C98.9459 63.3277 98.487 62.7541 98.1428 62.41C97.9134 62.1805 97.684 61.9511 97.5693 61.8364L97.4545 61.7217C97.4545 61.7217 97.3398 62.5247 97.3398 63.5572C97.3398 63.7866 97.3398 64.1307 97.3398 64.3602C97.3398 64.5896 97.3398 64.9338 97.3398 65.2779C97.3398 65.6221 97.3398 65.8515 97.3398 66.0809C97.3398 66.3104 97.3398 66.6545 97.4545 66.884V66.9987C97.5693 67.3428 97.5693 67.687 97.684 67.9164C97.7987 68.3753 98.0281 68.6047 98.1428 68.7194C98.2576 68.8341 98.3723 68.8342 98.487 68.8342C98.6017 68.8342 98.6017 68.8342 98.7164 68.8342C98.6017 67.1134 98.3723 65.5074 98.0281 63.9013C98.487 65.3926 98.8311 66.9987 99.1753 68.49C99.8636 68.0311 100.208 67.1134 99.8636 65.3926Z" fill="white"/>
<path d="M101.47 60.2041C100.781 58.2539 98.8311 56.7626 98.8311 56.8773C98.8311 56.8773 98.8311 60.0894 99.4046 62.0396C99.8635 63.7603 100.437 64.1045 100.896 63.7603C100.552 62.1543 100.208 60.5482 99.6341 58.9422C100.208 60.3188 100.781 61.8101 101.24 63.4162C101.814 62.8426 102.043 61.9249 101.47 60.2041Z" fill="white"/>
<path d="M102.5 54.9538C101.697 53.1183 99.5176 51.8564 99.5176 51.8564C99.5176 51.8564 99.8617 55.0685 100.665 56.904C101.353 58.51 101.927 58.8542 102.386 58.51C101.927 56.904 101.353 55.4127 100.665 53.9214C101.468 55.298 102.156 56.6746 102.73 58.1659C103.074 57.5923 103.189 56.5599 102.5 54.9538Z" fill="white"/>
<path d="M102.958 49.5491C101.926 47.8284 99.6316 46.7959 99.7463 46.7959C99.7463 46.7959 100.435 50.008 101.352 51.7287C102.155 53.2201 102.729 53.5642 103.188 53.1053C102.5 51.614 101.811 50.1227 101.008 48.7461C101.926 50.008 102.729 51.3846 103.532 52.7612C103.876 52.1876 103.876 51.1552 102.958 49.5491Z" fill="white"/>
<path d="M102.847 44.2915C101.585 42.6854 99.291 41.8824 99.291 41.9971C99.291 41.9971 100.323 45.0945 101.471 46.7005C102.503 48.1918 103.077 48.3066 103.536 47.8477C102.733 46.3564 101.815 44.9798 100.897 43.7179C101.93 44.865 102.962 46.1269 103.88 47.3888C103.994 46.7005 103.88 45.6681 102.847 44.2915Z" fill="white"/>
<path d="M103.419 41.8635C103.648 41.1752 103.419 40.1427 102.157 38.8809C100.78 37.3895 98.3711 36.9307 98.3711 36.9307C98.3711 36.9307 99.7477 39.9133 101.01 41.4046C102.157 42.6665 102.73 42.896 103.189 42.3224C102.157 40.9458 101.124 39.6839 100.092 38.5367C101.239 39.5692 102.386 40.7163 103.419 41.8635Z" fill="white"/>
<path d="M101.01 33.7247C100.436 33.2659 99.7479 32.9217 99.1743 32.6923C98.0271 32.3481 97.1094 32.2334 97.1094 32.2334C97.1094 32.2334 97.3388 32.5775 97.683 33.1511C98.2565 34.0689 99.289 35.5602 100.207 36.3632C101.469 37.5104 102.042 37.6251 102.386 37.0515C101.239 35.7896 100.092 34.6425 98.9449 33.61C100.207 34.5277 101.469 35.5602 102.616 36.5927C102.616 35.7896 102.386 34.8719 101.01 33.7247Z" fill="white"/>
<path d="M102.044 66.173C101.7 66.4024 101.356 66.7466 101.126 66.976C100.782 67.3201 100.553 67.6643 100.323 68.0084C100.094 68.3526 100.094 68.582 100.094 68.9262C101.47 68.1232 102.847 67.2054 104.224 66.173C102.962 67.3201 101.585 68.4673 100.208 69.4998C100.208 69.6145 100.208 69.6145 100.323 69.7292C100.438 69.9586 100.782 70.0734 101.241 69.9586C101.47 69.9586 101.585 69.8439 101.815 69.7292C102.044 69.6145 102.273 69.4998 102.618 69.2703C103.191 68.9262 103.765 68.2379 104.224 67.6643C104.682 67.2054 105.027 66.6318 105.371 66.173C105.485 66.0583 105.485 65.9435 105.6 65.8288C105.715 65.5994 105.83 65.3699 105.944 65.2552C106.174 64.9111 106.288 64.6816 106.288 64.6816C106.288 64.6816 104.912 64.9111 103.535 65.5994C102.962 65.5994 102.503 65.8288 102.044 66.173Z" fill="white"/>
<path d="M101.467 27.7792C101.467 28.0086 101.353 28.238 101.353 28.3528C101.353 28.5822 101.353 28.6969 101.353 28.9263C101.353 29.0411 101.353 29.2705 101.353 29.3852C101.353 29.4999 101.353 29.7294 101.353 29.8441C101.467 30.4177 101.582 30.7618 101.811 30.9913C102.27 29.3852 102.614 27.7792 102.959 26.0584C102.844 27.8939 102.614 29.6147 102.27 31.3354C102.5 31.4501 102.729 31.4501 102.844 31.3354C102.959 31.3354 103.073 31.2207 103.073 31.106C103.188 30.9913 103.188 30.8765 103.303 30.6471C103.417 30.4177 103.417 30.303 103.532 30.0735C103.532 29.8441 103.647 29.7294 103.647 29.4999C103.762 28.9263 103.762 28.3528 103.762 27.6645C103.762 27.2056 103.647 26.632 103.647 26.1731C103.647 26.0584 103.647 25.829 103.532 25.7143C103.417 25.2554 103.417 24.7965 103.303 24.4524C103.303 24.2229 103.188 24.1082 103.188 23.8788C103.073 23.6494 103.073 23.4199 103.073 23.4199C103.073 23.4199 102.844 23.7641 102.614 24.2229C102.385 24.5671 102.27 24.9112 102.041 25.3701C101.926 25.7143 101.697 26.0584 101.582 26.4026C101.582 26.9762 101.467 27.3203 101.467 27.7792Z" fill="white"/>
<path d="M100.323 20.8895C100.438 22.725 100.323 24.4457 100.209 26.1665C100.782 26.3959 101.241 26.0518 101.471 24.1016C101.7 21.9219 100.323 18.251 100.209 18.251C100.209 18.251 99.0615 20.5453 98.9468 22.6102C98.8321 24.4457 99.1762 25.3635 99.7498 25.937C99.9792 24.2163 100.209 22.6102 100.323 20.8895Z" fill="white"/>
<path d="M97.1092 20.8753C97.224 19.2692 97.224 17.5485 97.1092 15.8277C97.3387 17.6632 97.5681 19.3839 97.6828 21.1047C98.2564 21.2194 98.7153 20.8753 98.7153 18.9251C98.7153 16.7454 96.8798 13.1892 96.7651 13.1892C96.7651 13.1892 95.8474 15.5983 95.9621 17.6632C96.0768 19.6134 96.5357 20.5311 97.1092 20.8753Z" fill="white"/>
<path d="M93.8981 16.2781C93.7834 14.6721 93.554 12.9513 93.2098 11.2306C93.6687 12.9513 94.1275 14.7868 94.357 16.5076C94.9306 16.6223 95.3894 16.1634 95.0453 14.2132C94.7011 12.0336 92.4068 8.70679 92.4068 8.70679C92.4068 8.70679 91.8332 11.2306 92.1774 13.2955C92.6362 15.131 93.2098 15.934 93.8981 16.2781Z" fill="white"/>
<path d="M89.9975 12.0465C89.6534 10.4404 89.1945 8.71966 88.6209 7.11362C89.4239 8.83438 89.9975 10.5551 90.4564 12.2759C91.03 12.2759 91.4888 11.817 90.9153 9.86684C90.3417 7.68721 87.5885 4.58984 87.5885 4.58984C87.5885 4.58984 87.359 7.11362 88.0473 9.17853C88.6209 10.8993 89.3092 11.7023 89.9975 12.0465Z" fill="white"/>
<path d="M85.6388 8.16488C85.0652 6.55884 84.3769 4.95279 83.5739 3.34675C84.6063 4.95279 85.4093 6.55884 86.2124 8.27959C86.786 8.27959 87.1301 7.70601 86.3271 5.87053C85.5241 3.80562 82.1973 0.937692 82.1973 1.05241C82.1973 1.05241 82.312 3.57619 83.2297 5.6411C84.1475 7.24714 84.8358 7.93544 85.6388 8.16488Z" fill="white"/>
<path d="M98.9442 26.7065C97.5676 25.674 96.191 24.871 94.8144 24.068C96.191 24.6416 97.6823 25.4446 99.0589 26.1329C99.0589 25.4446 98.4853 24.5269 96.8793 23.7238C95.0438 22.6914 92.6348 23.0355 92.6348 23.0355C92.6348 23.0355 94.9291 25.4446 96.6499 26.4771C98.1412 27.3948 98.7148 27.2801 98.9442 26.7065Z" fill="white"/>
<path d="M89.6523 18.9387C89.6523 18.9387 92.1761 21.1183 94.0116 21.9214C95.6176 22.6097 96.1912 22.4949 96.3059 21.9214C94.8146 21.1183 93.3233 20.3153 91.832 19.7417C93.3233 20.2006 94.8146 20.7742 96.3059 21.3478C96.1912 20.6595 95.6177 19.8564 93.8969 19.1681C92.0614 18.3651 89.6523 18.9387 89.6523 18.9387Z" fill="white"/>
<path d="M93.2087 17.3046C91.6027 16.6162 89.9966 16.0427 88.5053 15.5838C90.1113 15.9279 91.6027 16.2721 93.2087 16.731C92.9793 16.0427 92.2909 15.2396 90.5702 14.7808C88.5053 14.2072 86.2109 15.0102 86.2109 15.0102C86.2109 15.0102 89.0789 16.8457 90.9144 17.534C92.6351 18.2223 93.2087 17.9929 93.2087 17.3046Z" fill="white"/>
<path d="M86.4413 10.9023C84.3764 10.5581 82.082 11.7053 82.082 11.7053C82.082 11.7053 85.1794 13.1966 87.2443 13.6555C88.9651 13.9997 89.5387 13.7702 89.5387 13.0819C87.8179 12.6231 86.2119 12.1642 84.4911 11.9348C86.0971 12.0495 87.7032 12.2789 89.4239 12.6231C89.1945 11.9348 88.2768 11.2464 86.4413 10.9023Z" fill="white"/>
<path d="M82.9986 10.0911C84.8341 10.3205 85.4077 9.97634 85.2929 9.28804C83.5722 8.94389 81.8514 8.71445 80.0159 8.59973C81.622 8.59973 83.3427 8.59973 85.0635 8.71445C84.7193 8.02615 83.8016 7.45256 81.8514 7.33785C79.6718 7.22313 77.4922 8.59973 77.6069 8.59973C77.6069 8.71445 80.9337 9.86162 82.9986 10.0911Z" fill="white"/>
<path d="M95.5028 27.9877C95.7322 28.2171 95.9616 28.5613 96.3058 28.9054C96.6499 29.2496 96.9941 29.7085 97.4529 30.1673C97.9118 30.6262 98.256 30.9704 98.6001 31.3145C98.9443 31.5439 99.2884 31.7734 99.5179 31.8881C100.091 32.1175 100.436 32.2322 100.665 32.1175C100.78 32.0028 100.894 32.0028 100.894 31.7734C100.321 31.1998 99.6326 30.6262 98.9443 30.1673C98.256 29.7085 97.6824 29.1349 96.9941 28.676C97.6824 29.0202 98.3707 29.479 98.9443 29.9379C99.6326 30.3968 100.206 30.8556 100.894 31.3145C100.894 31.1998 100.894 31.0851 100.894 31.0851C100.894 30.8556 100.78 30.5115 100.55 30.1673C100.321 29.7085 99.7473 29.2496 99.059 28.676C98.8296 28.5613 98.6001 28.4466 98.3707 28.3319C97.6824 27.9877 96.9941 27.873 96.3058 27.7583C95.8469 27.6436 95.5027 27.6436 95.2733 27.6436C95.1586 27.6436 95.0439 27.6436 94.9292 27.6436C94.8145 27.6436 94.8145 27.6436 94.8145 27.6436C94.8145 27.6436 94.9292 27.7583 95.0439 27.9877C95.3881 27.873 95.5028 27.9877 95.5028 27.9877Z" fill="white"/>
<path d="M54.6642 9.61914L26.0996 24.7618L35.5064 29.8094L36.3094 30.2682L37.4566 30.8418L37.8008 31.0713V32.2184V32.4479V33.4803V33.9392V37.7249V39.6751C37.8008 40.2486 38.0302 40.8222 38.4891 41.3958C38.7185 41.6253 38.8332 41.8547 39.0626 42.0841C38.8332 41.74 38.8332 41.2811 38.7185 40.937V40.8222C38.7185 40.5928 38.7185 40.2486 38.8332 40.0192C38.948 39.4456 39.2921 38.9868 39.751 38.6426V35.66V34.9717V32.2184V31.989C39.751 31.6449 39.8657 31.186 40.0951 30.9565C40.2098 30.8418 40.3246 30.7271 40.4393 30.6124C40.554 30.4977 40.6687 30.4977 40.7834 30.383L41.0129 30.2682L41.1276 30.1535L40.6687 29.9241L40.4393 29.8094L38.9479 29.0064L37.9155 28.4328L37.6861 28.3181L37.1125 27.9739L31.2619 24.8765L54.6642 12.3724L78.0665 24.7618L72.2159 27.8592L71.6424 28.2033L71.4129 28.3181L70.3805 28.8916L68.8891 29.6947L68.6597 29.8094L67.8567 30.2682L66.7095 30.8418L65.4476 31.5301L64.7593 31.8743L54.7789 37.1513L54.5495 37.266L54.3201 37.1513L44.9132 32.1037L43.9955 32.6773L43.4219 33.0215V33.7098V34.1686L54.3201 40.0192L54.6642 40.1339L55.0083 40.0192L58.794 37.9543L66.1359 34.0539L68.2008 32.9067L69.0039 32.5626L69.2333 32.4479V34.3981V36.463V38.9868V39.7898C69.1186 40.3634 67.9714 41.2811 65.9065 42.3136C63.3827 43.5754 59.7118 44.6079 55.1231 44.7226H55.0083C54.8936 44.7226 54.7789 44.7226 54.7789 44.7226C54.6642 44.7226 54.5495 44.7226 54.4348 44.7226C50.3049 44.6079 46.634 43.5754 44.1102 42.4283C43.9955 42.543 43.9955 42.6577 43.8808 42.7724C43.8808 42.7724 43.8808 42.8871 43.7661 42.8871L44.2249 44.4932L44.4544 45.2962C44.7985 45.4109 45.1427 45.5256 45.4868 45.6404C48.1253 46.5581 51.2227 47.1317 54.4348 47.1317C54.5495 47.1317 54.6642 47.1317 54.8937 47.1317C55.0084 47.1317 55.1231 47.1317 55.1231 47.1317H55.2378C58.3352 47.1317 61.4325 46.5581 64.071 45.6404C67.2831 44.6079 69.8069 43.0019 70.9541 41.5105C71.4129 40.937 71.6424 40.3634 71.6424 39.7898V37.8396V34.0539V33.4803V32.4479V32.2184V31.0713L71.9865 30.8418L73.1337 30.2682L73.9367 29.8094L83.3435 24.7618L54.6642 9.61914Z" fill="#245D51"/>
<path d="M42.4993 43.2162C42.4993 43.1015 42.4993 42.9868 42.4993 42.872C42.4993 42.6426 42.4994 42.4132 42.6141 42.1837C42.6141 42.069 42.7288 41.9543 42.8435 41.9543C42.8435 41.9543 42.8435 41.8396 42.9582 41.8396L43.0729 41.7249C43.0729 41.6102 43.1877 41.6102 43.1877 41.4954C43.3024 41.266 43.3024 41.0366 43.3024 40.8071C43.3024 40.6924 43.3024 40.463 43.1877 40.3483V40.2335C43.1877 40.1188 43.0729 40.0041 43.0729 39.8894C43.0729 39.8894 43.0729 39.8894 43.0729 39.7747C42.8435 39.5452 42.6141 39.3158 42.3846 39.2011V35.5301V33.3505V32.2033L43.7612 31.4003L44.5643 30.9414L45.2526 30.4826L45.482 30.3679L46.285 29.909L46.6292 29.7943L46.9733 29.6796L48.4647 28.8765L49.8412 28.0735L54.6594 25.435C54.7741 25.3203 54.8888 25.2056 55.0035 25.0909C55.0035 24.9761 55.0035 24.7467 55.0035 24.632C54.8888 24.4026 54.6594 24.2878 54.4299 24.2878H54.3152C54.3152 24.2878 54.3152 24.2878 54.2005 24.2878L48.8088 27.2705L47.088 28.1882L45.9409 28.8765L45.8261 28.9912L45.1379 29.3354L44.9084 29.4501L44.1054 29.909L42.9582 30.4826L42.6141 30.712L42.0405 31.0562L41.5816 31.2856C41.3522 31.4003 41.2374 31.6297 41.2374 31.8592V32.7769V33.1211V37.595V37.7098V39.2011C41.1227 39.2011 41.008 39.3158 40.8933 39.3158C40.7786 39.3158 40.7786 39.4305 40.6639 39.5452C40.6639 39.5452 40.6639 39.5452 40.5492 39.66C40.5492 39.66 40.5492 39.7747 40.4344 39.7747C40.4344 39.7747 40.4344 39.8894 40.3197 39.8894C40.205 40.0041 40.205 40.1188 40.205 40.2335C40.205 40.2335 40.205 40.2335 40.205 40.3483C40.205 40.463 40.205 40.6924 40.205 40.8071C40.205 41.266 40.3197 41.6101 40.6639 41.8396C40.7786 41.9543 40.7786 42.069 40.8933 42.069C41.008 42.2985 41.008 42.5279 41.008 42.7573C41.008 42.872 41.008 42.9868 41.008 43.1015V43.2162L40.205 46.1988L39.9756 46.8871H41.6963H43.876L43.1877 44.3634L42.4993 43.2162Z" fill="#245D51"/>
<path d="M55.5842 95.5261L54.6665 92.6582L53.7488 95.5261H50.8809L53.1752 97.2469L52.3722 100L54.6665 98.2794L57.0756 100L56.1578 97.2469L58.5669 95.5261H55.5842Z" fill="#245D51"/>
<path d="M27.9299 76.869C27.471 76.869 27.0121 76.869 26.668 76.7542C26.3238 76.6395 25.9797 76.5248 25.7502 76.2954C25.5208 76.0659 25.2914 75.8365 25.1766 75.6071C25.0619 75.3776 24.9472 75.0335 24.8325 74.6893C24.7178 74.3452 24.7178 74.001 24.7178 73.5422V66.4297H27.0121V73.8863C27.0121 74.001 27.0121 74.2305 27.0121 74.3452C27.0121 74.4599 27.0121 74.5746 27.1268 74.6893C27.1268 74.8041 27.2416 74.9188 27.2416 75.0335C27.2416 75.1482 27.3563 75.1482 27.471 75.2629C27.5857 75.2629 27.7004 75.3776 27.8152 75.3776C27.9299 75.3776 28.0446 75.3776 28.1593 75.2629C28.274 75.2629 28.3887 75.1482 28.3887 75.0335C28.3887 74.9188 28.5035 74.8041 28.5035 74.6893C28.5035 74.5746 28.5034 74.4599 28.6182 74.3452C28.6182 74.2305 28.6182 74.1157 28.6182 73.8863V66.4297H30.9125V73.5422C30.9125 74.1157 30.9125 74.5746 30.7978 75.0335C30.6831 75.4924 30.5683 75.8365 30.3389 76.0659C30.1095 76.4101 29.7653 76.6395 29.4212 76.7542C29.077 76.869 28.5035 76.869 27.9299 76.869Z" fill="#245D51"/>
<path d="M32.5137 76.7542V66.4297H34.1197L36.2993 71.3625V66.4297H38.2495V76.7542H36.7582L34.5786 71.3625V76.7542H32.5137Z" fill="#245D51"/>
<path d="M39.6338 76.7542V66.4297H41.9281V76.7542H39.6338Z" fill="#245D51"/>
<path d="M44.9117 76.7542L43.0762 66.4297H45.0264L46.1736 73.4274L47.206 66.4297H49.2709L47.3207 76.7542H44.9117Z" fill="#245D51"/>
<path d="M50.1855 76.7542V66.4297H54.7742V68.0357H52.3652V70.5595H54.2007V72.1656H52.3652V75.2629H54.7742V76.7542H50.1855Z" fill="#245D51"/>
<path d="M55.9219 76.7542V66.4297H58.7898C59.2487 66.4297 59.5928 66.4297 59.937 66.5444C60.2811 66.5444 60.6253 66.6591 60.8547 66.7738C61.1989 66.8886 61.4283 67.118 61.543 67.2327C61.7724 67.4621 61.8872 67.6916 62.0019 68.0357C62.1166 68.3799 62.1166 68.724 62.1166 69.1829C62.1166 69.8712 62.0019 70.4448 61.8872 70.7889C61.6577 71.2478 61.4283 71.4773 60.8547 71.7067L62.2313 76.7542H59.8223L58.6751 72.1656H57.9868V76.7542H55.9219ZM58.2162 70.7889H58.7898C59.2487 70.7889 59.5928 70.6742 59.8223 70.4448C60.0517 70.2154 60.0517 69.8712 60.0517 69.2976C60.0517 68.8387 59.937 68.4946 59.8223 68.2652C59.5928 68.0357 59.3634 67.921 58.9045 67.921H58.2162V70.7889Z" fill="#245D51"/>
<path d="M66.2454 76.8489C65.2129 76.8489 64.5246 76.6194 64.0657 76.0458C63.6069 75.4722 63.3774 74.6692 63.2627 73.5221L65.2129 73.1779C65.2129 73.8662 65.3276 74.3251 65.4423 74.5545C65.557 74.8987 65.7865 75.0134 66.1306 75.0134C66.4748 75.0134 66.7042 74.7839 66.7042 74.2104C66.7042 73.9809 66.7042 73.6368 66.5895 73.4073C66.4748 73.1779 66.3601 72.9485 66.2454 72.8337C66.1306 72.719 65.9012 72.4896 65.6718 72.2602L64.754 71.4571C64.5246 71.2277 64.2951 71.113 64.1804 70.8836C64.0657 70.7688 63.8363 70.5394 63.7216 70.31C63.6068 70.0805 63.4921 69.8511 63.3774 69.6217C63.2627 69.3922 63.2627 69.0481 63.2627 68.7039C63.2627 67.7862 63.4921 67.2126 64.0657 66.7537C64.5246 66.2949 65.3276 66.0654 66.1306 66.0654C66.4748 66.0654 66.7042 66.0654 66.9337 66.1801C67.1631 66.2949 67.3925 66.2949 67.6219 66.4096C67.7367 66.5243 67.9661 66.639 68.0808 66.8684C68.1956 66.9832 68.3103 67.2126 68.425 67.3273C68.5397 67.442 68.5397 67.6715 68.6544 67.9009C68.6544 68.1303 68.7691 68.2451 68.7691 68.4745C68.7691 68.5892 68.7691 68.8186 68.7691 69.0481L66.8189 69.2775C66.8189 69.0481 66.8189 68.9334 66.8189 68.8186C66.8189 68.7039 66.8189 68.5892 66.8189 68.4745C66.8189 68.3598 66.8189 68.2451 66.7042 68.1303C66.7042 68.0156 66.5895 68.0156 66.5895 67.9009C66.5895 67.7862 66.4748 67.7862 66.3601 67.7862C66.2454 67.7862 66.2453 67.7862 66.1306 67.7862C65.9012 67.7862 65.7865 67.9009 65.6718 68.0156C65.557 68.1303 65.557 68.3598 65.557 68.5892C65.557 68.8186 65.557 68.9334 65.6718 69.1628C65.6718 69.2775 65.7865 69.5069 65.9012 69.6217C66.0159 69.7364 66.1306 69.8511 66.2454 69.9658C66.3601 70.0805 66.4748 70.1952 66.5895 70.31L67.5072 71.113C67.7367 71.3424 67.9661 71.5719 68.0808 71.6866C68.3103 71.916 68.425 72.1454 68.5397 72.3749C68.6544 72.6043 68.7691 72.9485 68.8838 73.1779C68.9986 73.522 68.9986 73.7515 68.9986 74.0956C68.9986 74.8987 68.7691 75.4722 68.1955 75.9311C67.7367 76.6194 67.0484 76.8489 66.2454 76.8489Z" fill="#245D51"/>
<path d="M70.1406 76.7542V66.4297H72.435V76.7542H70.1406Z" fill="#245D51"/>
<path d="M74.8463 76.7542V68.1504H73.2402V66.4297H78.7466V68.1504H77.1406V76.7542H74.8463Z" fill="#245D51"/>
<path d="M80.9267 76.7542V72.5097L78.9766 66.4297H81.1562L82.1886 69.7565L83.1064 66.4297H85.1713L83.2211 72.5097V76.7542H80.9267Z" fill="#245D51"/>
<path d="M42.7354 81.8936H44.5708V82.4671H43.4237V84.6468H44.4561V85.2204H43.4237V87.5147H44.5708V88.0883H42.7354V81.8936Z" fill="#245D51"/>
<path d="M45.3706 83.8438C45.3706 83.729 45.2559 83.4996 45.2559 83.2702C45.2559 82.8113 45.3706 82.4671 45.4853 82.2377C45.6 82.0083 45.9442 81.8936 46.403 81.8936C46.9766 81.8936 47.3208 82.2377 47.4355 82.8113C47.4355 83.0407 47.5502 83.3849 47.5502 83.729V83.9585H46.8619V83.4996C46.8619 83.1554 46.8619 82.8113 46.7472 82.6966C46.7472 82.5819 46.6325 82.4671 46.6325 82.4671C46.5178 82.4671 46.5177 82.3524 46.403 82.3524C46.1736 82.3524 46.0589 82.4671 46.0589 82.5819C45.9442 82.6966 45.9442 82.926 45.9442 83.1555C45.9442 83.3849 45.9442 83.6143 46.0589 83.729C46.1736 83.8438 46.1736 83.9585 46.2883 84.0732C46.4031 84.1879 46.403 84.1879 46.5178 84.3026L46.9766 84.7615C47.4355 85.3351 47.7797 85.9087 47.7797 86.597C47.7797 87.1706 47.6649 87.5147 47.5502 87.8589C47.4355 88.0883 47.0913 88.3177 46.6325 88.3177C46.0589 88.3177 45.7147 88.0883 45.6 87.6294C45.4853 87.4 45.4853 86.9411 45.4853 86.4822V85.9087H46.1736V86.597C46.1736 87.0558 46.1736 87.4 46.2883 87.5147C46.4031 87.7441 46.5178 87.7441 46.6325 87.7441C46.8619 87.7441 46.9766 87.7441 46.9766 87.6294C47.0913 87.5147 47.0913 87.4 47.0913 87.2853C47.0913 87.1706 47.0913 86.9411 47.0913 86.7117C47.0913 86.2528 46.8619 85.9087 46.5178 85.4498L46.0589 84.9909C45.6 84.4173 45.3706 84.0732 45.3706 83.8438Z" fill="#245D51"/>
<path d="M48.1289 81.8936H50.1938V82.4671H49.5055V88.0883H48.8172V82.4671H48.1289V81.8936Z" fill="#245D51"/>
<path d="M50.7632 81.8936H51.9103C52.3692 81.8936 52.7133 82.0083 52.9428 82.3524C53.1722 82.6966 53.1722 83.0407 53.1722 83.6143V86.3675C53.1722 87.0558 53.0575 87.5147 52.8281 87.7441C52.5986 87.9736 52.2545 88.203 51.7956 88.203H50.6484V81.8936H50.7632ZM52.4839 83.4996C52.4839 83.1554 52.4839 82.8113 52.3692 82.6966C52.2545 82.5819 52.1398 82.4671 51.9103 82.4671H51.5662V87.5147H51.9103C52.0251 87.5147 52.1398 87.5147 52.2545 87.4C52.4839 87.2853 52.4839 86.9411 52.4839 86.3675V83.4996Z" fill="#245D51"/>
<path d="M56.4998 81.8936H57.0734V88.0883H56.3851V82.8113C56.2703 82.926 56.1556 82.926 56.0409 83.0407C55.9262 83.0407 55.6967 83.1555 55.582 83.1555V82.6966C55.8115 82.6966 55.9262 82.5819 56.1556 82.4671C56.2703 82.2377 56.4998 82.123 56.4998 81.8936Z" fill="#245D51"/>
<path d="M57.877 83.729C57.877 83.2702 57.877 82.926 57.9917 82.6966C58.1064 82.4671 58.1064 82.3524 58.2211 82.2377C58.4506 82.0083 58.68 81.8936 59.1388 81.8936C59.483 81.8936 59.8272 82.0083 59.9419 82.2377C60.1713 82.4671 60.1713 82.8113 60.286 83.1555C60.286 83.3849 60.286 83.4996 60.286 83.8438V86.2528C60.286 87.0558 60.1713 87.6294 59.9419 87.9736C59.7125 88.203 59.483 88.3177 59.1388 88.3177C58.7947 88.3177 58.4506 88.203 58.3359 87.9736C58.2211 87.7441 58.1064 87.2853 58.1064 86.7117V86.2528H58.7947V86.3675C58.7947 86.9411 58.7947 87.2853 58.9094 87.4C59.0242 87.5147 59.1389 87.5147 59.2536 87.5147C59.3683 87.5147 59.483 87.4 59.5977 87.2853C59.5977 87.1706 59.7124 86.9411 59.7124 86.4822V85.5645C59.5977 85.6792 59.3683 85.6792 59.1388 85.6792C58.68 85.6792 58.4506 85.5645 58.2211 85.2204C58.1064 84.8762 57.9917 84.4173 57.9917 83.729H57.877ZM59.5977 83.6143C59.5977 83.2702 59.5977 82.926 59.483 82.8113C59.483 82.6966 59.3683 82.5819 59.3683 82.5819C59.2536 82.5819 59.2536 82.4671 59.1388 82.4671C58.9094 82.4671 58.7947 82.5819 58.7947 82.6966C58.68 82.926 58.68 83.1554 58.68 83.6143V83.9585C58.68 84.4173 58.68 84.7615 58.7947 84.9909C58.9094 85.2204 59.0241 85.2204 59.2536 85.2204C59.483 85.2204 59.5977 85.1056 59.7124 84.9909V83.6143H59.5977Z" fill="#245D51"/>
<path d="M61.2041 83.3849C61.2041 82.8113 61.3188 82.4671 61.4335 82.2377C61.6629 82.0083 61.8924 81.8936 62.3512 81.8936C62.8101 81.8936 63.0395 82.0083 63.269 82.2377C63.4984 82.4671 63.4984 82.926 63.4984 83.3849C63.4984 84.0732 63.3837 84.5321 63.0395 84.7615C63.1542 84.8762 63.269 85.1056 63.3837 85.3351C63.4984 85.6792 63.4984 85.9087 63.4984 86.2528V86.4822C63.4984 87.0558 63.3837 87.4 63.1542 87.6294C62.9248 87.8588 62.6954 87.9736 62.2365 87.9736C61.7776 87.9736 61.5482 87.8588 61.3187 87.6294C61.0893 87.4 60.9746 86.9411 60.9746 86.4822C60.9746 86.4822 60.9746 86.3675 60.9746 86.0234C60.9746 85.7939 60.9746 85.4498 61.0893 85.2204C61.2041 84.8762 61.3188 84.7615 61.4335 84.6468C61.4335 84.5321 61.2041 84.0732 61.2041 83.3849ZM62.9248 86.3675C62.9248 85.9087 62.9248 85.6792 62.8101 85.4498C62.6954 85.2204 62.5806 85.1056 62.4659 85.1056C62.3512 85.1056 62.2365 85.2204 62.1218 85.4498C62.0071 85.6792 62.0071 86.0234 62.0071 86.3675V86.597C62.0071 86.9411 62.0071 87.2853 62.1218 87.4C62.2365 87.5147 62.3512 87.6294 62.4659 87.6294C62.5806 87.6294 62.8101 87.6294 62.8101 87.5147C62.9248 87.4 62.9248 87.2853 62.9248 87.1706C62.9248 87.0558 62.9248 86.8264 62.9248 86.7117V86.3675ZM62.6954 84.4173C62.8101 84.3026 62.8101 84.1879 62.8101 84.0732C62.8101 83.8437 62.9248 83.729 62.9248 83.3849C62.9248 83.1554 62.9248 82.926 62.9248 82.8113C62.9248 82.6966 62.9248 82.5819 62.8101 82.4671C62.8101 82.3524 62.6954 82.3524 62.6954 82.3524C62.6954 82.3524 62.5806 82.3524 62.4659 82.3524C62.3512 82.3524 62.2365 82.3524 62.2365 82.4671C62.1218 82.5819 62.0071 82.926 62.0071 83.3849C62.0071 83.9585 62.1218 84.3026 62.2365 84.4173C62.3512 84.5321 62.3512 84.5321 62.4659 84.5321C62.4659 84.5321 62.5807 84.5321 62.6954 84.4173Z" fill="#245D51"/>
<path d="M64.2998 83.5079C64.2998 82.9343 64.4145 82.5901 64.5293 82.246C64.7587 82.0165 64.9881 81.7871 65.5617 81.7871C66.1353 81.7871 66.3647 81.9018 66.5942 82.246C66.8236 82.4754 66.8236 82.9343 66.8236 83.5079V86.4905C66.8236 87.0641 66.7089 87.523 66.5942 87.7524C66.4794 88.0966 66.1353 88.2113 65.5617 88.2113C65.1028 88.2113 64.7587 88.0966 64.5293 87.7524C64.4145 87.4083 64.2998 87.0641 64.2998 86.4905V83.5079ZM66.1353 83.3932C66.1353 82.8196 66.0206 82.4754 65.7912 82.4754C65.7912 82.4754 65.6764 82.4754 65.5617 82.4754C65.447 82.4754 65.447 82.4754 65.3323 82.4754C65.2175 82.4754 65.2176 82.5901 65.1028 82.7049C65.1028 82.8196 64.9881 83.049 64.9881 83.3932V86.3758C64.9881 86.9494 65.1028 87.2935 65.2176 87.4083C65.3323 87.4083 65.3323 87.523 65.447 87.523C65.5617 87.523 65.5617 87.523 65.6764 87.523C65.6764 87.523 65.7912 87.523 65.7912 87.4083C65.9059 87.2935 66.0206 86.9494 66.0206 86.3758V83.3932H66.1353Z" fill="#245D51"/>
</svg>
